<mxfile host="65bd71144e" modified="2021-03-08T01:55:48.934Z" agent="5.0 (Windows NT 10.0; Win64; x64) AppleWebKit/537.36 (KHTML, like Gecko) Code/1.54.1 Chrome/87.0.4280.141 Electron/11.3.0 Safari/537.36" etag="xsRlx3yDGs5JRY2FX5rQ" version="14.4.4" type="embed">
    <diagram id="I0kLtuCq7wafPAWgQC_6" name="ページ1">
        <mxGraphModel dx="1736" dy="602" grid="1" gridSize="10" guides="1" tooltips="1" connect="1" arrows="1" fold="1" page="1" pageScale="1" pageWidth="827" pageHeight="1169" math="0" shadow="0">
            <root>
                <mxCell id="0"/>
                <mxCell id="1" parent="0"/>
                <mxCell id="HWHSqS2P6HCf4RbeMcaz-14" value="Local Dev" style="fillColor=#fff2cc;strokeColor=#d6b656;dashed=0;verticalAlign=top;fontStyle=0;" parent="1" vertex="1">
                    <mxGeometry x="-30" y="150" width="650" height="290" as="geometry"/>
                </mxCell>
                <mxCell id="HWHSqS2P6HCf4RbeMcaz-11" value="" style="fillColor=none;strokeColor=#5A6C86;dashed=1;verticalAlign=top;fontStyle=0;fontColor=#5A6C86;" parent="1" vertex="1">
                    <mxGeometry x="140" y="190" width="110" height="240" as="geometry"/>
                </mxCell>
                <mxCell id="ekPZyuRq7W89Y46g-SNz-10" style="edgeStyle=orthogonalEdgeStyle;rounded=0;orthogonalLoop=1;jettySize=auto;html=1;" parent="1" target="ekPZyuRq7W89Y46g-SNz-7" edge="1">
                    <mxGeometry relative="1" as="geometry">
                        <mxPoint x="250" y="304" as="sourcePoint"/>
                    </mxGeometry>
                </mxCell>
                <mxCell id="-kEWRbQdguksYZ6EH8o2-5" value="" style="shape=image;verticalLabelPosition=bottom;verticalAlign=top;imageAspect=0;image=data:image/png,iVBORw0KGgoAAAANSUhEUgAABuwAAALoCAIAAAAcCkQ/AAAKN2lDQ1BzUkdCIElFQzYxOTY2LTIuMQAAeJydlndUU9kWh8+9N71QkhCKlNBraFICSA29SJEuKjEJEErAkAAiNkRUcERRkaYIMijggKNDkbEiioUBUbHrBBlE1HFwFBuWSWStGd+8ee/Nm98f935rn73P3Wfvfda6AJD8gwXCTFgJgAyhWBTh58WIjYtnYAcBDPAAA2wA4HCzs0IW+EYCmQJ82IxsmRP4F726DiD5+yrTP4zBAP+flLlZIjEAUJiM5/L42VwZF8k4PVecJbdPyZi2NE3OMErOIlmCMlaTc/IsW3z2mWUPOfMyhDwZy3PO4mXw5Nwn4405Er6MkWAZF+cI+LkyviZjg3RJhkDGb+SxGXxONgAoktwu5nNTZGwtY5IoMoIt43kA4EjJX/DSL1jMzxPLD8XOzFouEiSniBkmXFOGjZMTi+HPz03ni8XMMA43jSPiMdiZGVkc4XIAZs/8WRR5bRmyIjvYODk4MG0tbb4o1H9d/JuS93aWXoR/7hlEH/jD9ld+mQ0AsKZltdn6h21pFQBd6wFQu/2HzWAvAIqyvnUOfXEeunxeUsTiLGcrq9zcXEsBn2spL+jv+p8Of0NffM9Svt3v5WF485M4knQxQ143bmZ6pkTEyM7icPkM5p+H+B8H/nUeFhH8JL6IL5RFRMumTCBMlrVbyBOIBZlChkD4n5r4D8P+pNm5lona+BHQllgCpSEaQH4eACgqESAJe2Qr0O99C8ZHA/nNi9GZmJ37z4L+fVe4TP7IFiR/jmNHRDK4ElHO7Jr8WgI0IABFQAPqQBvoAxPABLbAEbgAD+ADAkEoiARxYDHgghSQAUQgFxSAtaAYlIKtYCeoBnWgETSDNnAYdIFj4DQ4By6By2AE3AFSMA6egCnwCsxAEISFyBAVUod0IEPIHLKFWJAb5AMFQxFQHJQIJUNCSAIVQOugUqgcqobqoWboW+godBq6AA1Dt6BRaBL6FXoHIzAJpsFasBFsBbNgTzgIjoQXwcnwMjgfLoK3wJVwA3wQ7oRPw5fgEVgKP4GnEYAQETqiizARFsJGQpF4JAkRIauQEqQCaUDakB6kH7mKSJGnyFsUBkVFMVBMlAvKHxWF4qKWoVahNqOqUQdQnag+1FXUKGoK9RFNRmuizdHO6AB0LDoZnYsuRlegm9Ad6LPoEfQ4+hUGg6FjjDGOGH9MHCYVswKzGbMb0445hRnGjGGmsVisOtYc64oNxXKwYmwxtgp7EHsSewU7jn2DI+J0cLY4X1w8TogrxFXgWnAncFdwE7gZvBLeEO+MD8Xz8MvxZfhGfA9+CD+OnyEoE4wJroRIQiphLaGS0EY4S7hLeEEkEvWITsRwooC4hlhJPEQ8TxwlviVRSGYkNimBJCFtIe0nnSLdIr0gk8lGZA9yPFlM3kJuJp8h3ye/UaAqWCoEKPAUVivUKHQqXFF4pohXNFT0VFysmK9YoXhEcUjxqRJeyUiJrcRRWqVUo3RU6YbStDJV2UY5VDlDebNyi/IF5UcULMWI4kPhUYoo+yhnKGNUhKpPZVO51HXURupZ6jgNQzOmBdBSaaW0b2iDtCkVioqdSrRKnkqNynEVKR2hG9ED6On0Mvph+nX6O1UtVU9Vvuom1TbVK6qv1eaoeajx1UrU2tVG1N6pM9R91NPUt6l3qd/TQGmYaYRr5Grs0Tir8XQObY7LHO6ckjmH59zWhDXNNCM0V2ju0xzQnNbS1vLTytKq0jqj9VSbru2hnaq9Q/uE9qQOVcdNR6CzQ+ekzmOGCsOTkc6oZPQxpnQ1df11Jbr1uoO6M3rGelF6hXrtevf0Cfos/ST9Hfq9+lMGOgYhBgUGrQa3DfGGLMMUw12G/YavjYyNYow2GHUZPTJWMw4wzjduNb5rQjZxN1lm0mByzRRjyjJNM91tetkMNrM3SzGrMRsyh80dzAXmu82HLdAWThZCiwaLG0wS05OZw2xljlrSLYMtCy27LJ9ZGVjFW22z6rf6aG1vnW7daH3HhmITaFNo02Pzq62ZLde2xvbaXPJc37mr53bPfW5nbse322N3055qH2K/wb7X/oODo4PIoc1h0tHAMdGx1vEGi8YKY21mnXdCO3k5rXY65vTW2cFZ7HzY+RcXpkuaS4vLo3nG8/jzGueNueq5clzrXaVuDLdEt71uUnddd457g/sDD30PnkeTx4SnqWeq50HPZ17WXiKvDq/XbGf2SvYpb8Tbz7vEe9CH4hPlU+1z31fPN9m31XfKz95vhd8pf7R/kP82/xsBWgHcgOaAqUDHwJWBfUGkoAVB1UEPgs2CRcE9IXBIYMj2kLvzDecL53eFgtCA0O2h98KMw5aFfR+OCQ8Lrwl/GGETURDRv4C6YMmClgWvIr0iyyLvRJlESaJ6oxWjE6Kbo1/HeMeUx0hjrWJXxl6K04gTxHXHY+Oj45vipxf6LNy5cDzBPqE44foi40V5iy4s1licvvj4EsUlnCVHEtGJMYktie85oZwGzvTSgKW1S6e4bO4u7hOeB28Hb5Lvyi/nTyS5JpUnPUp2Td6ePJninlKR8lTAFlQLnqf6p9alvk4LTduf9ik9Jr09A5eRmHFUSBGmCfsytTPzMoezzLOKs6TLnJftXDYlChI1ZUPZi7K7xTTZz9SAxESyXjKa45ZTk/MmNzr3SJ5ynjBvYLnZ8k3LJ/J9879egVrBXdFboFuwtmB0pefK+lXQqqWrelfrry5aPb7Gb82BtYS1aWt/KLQuLC98uS5mXU+RVtGaorH1futbixWKRcU3NrhsqNuI2ijYOLhp7qaqTR9LeCUXS61LK0rfb+ZuvviVzVeVX33akrRlsMyhbM9WzFbh1uvb3LcdKFcuzy8f2x6yvXMHY0fJjpc7l+y8UGFXUbeLsEuyS1oZXNldZVC1tep9dUr1SI1XTXutZu2m2te7ebuv7PHY01anVVda926vYO/Ner/6zgajhop9mH05+x42Rjf2f836urlJo6m06cN+4X7pgYgDfc2Ozc0tmi1lrXCrpHXyYMLBy994f9Pdxmyrb6e3lx4ChySHHn+b+O31w0GHe4+wjrR9Z/hdbQe1o6QT6lzeOdWV0iXtjusePhp4tLfHpafje8vv9x/TPVZzXOV42QnCiaITn07mn5w+lXXq6enk02O9S3rvnIk9c60vvG/wbNDZ8+d8z53p9+w/ed71/LELzheOXmRd7LrkcKlzwH6g4wf7HzoGHQY7hxyHui87Xe4Znjd84or7ldNXva+euxZw7dLI/JHh61HXb95IuCG9ybv56Fb6ree3c27P3FlzF3235J7SvYr7mvcbfjT9sV3qID0+6j068GDBgztj3LEnP2X/9H686CH5YcWEzkTzI9tHxyZ9Jy8/Xvh4/EnWk5mnxT8r/1z7zOTZd794/DIwFTs1/lz0/NOvm1+ov9j/0u5l73TY9P1XGa9mXpe8UX9z4C3rbf+7mHcTM7nvse8rP5h+6PkY9PHup4xPn34D94Tz+49wZioAAAAJcEhZcwAALiMAAC4jAXilP3YAACAASURBVHic7N0JdFWFuejxG0YZBQERRRkca4tVS4vWOtWpXaKt1SdracURDZViFatiFa0WaSsok6h1QCYVBQQpraigWBTqgFpUsCiKgGMsM4EkJG/fsF6fl1vRwMneXw6/38rKClH292nCOWf/OTm7TkVFxX8BAHnnkUUr53y0LustgC19t3XDs/ZvnvUWAAA1TJ2sFwAAqsVbn294csnqrLcAttSgTq2sVwAAqHlETAAAAAAgNBETAAAAAAhNxAQAAAAAQhMxAQAAAIDQREwAAAAAIDQREwAAAAAITcQEAAAAAEITMQEAAACA0ERMAAAAACA0ERMAAAAACE3EBAAAAABCEzEBAAAAgNBETAAAAAAgNBETAAAAAAhNxAQAAAAAQhMxAQAAAIDQREwAAAAAIDQREwAAAAAITcQEAAAAAEITMQEAAACA0ERMAAAAACA0ERMAAAAACE3EBAAAAABCEzEBAAAAgNBETAAAAAAgNBETAAAAAAhNxAQAAAAAQhMxAQAAAIDQREwAAAAAIDQREwAAAAAITcQEAAAAAEITMQEAAACA0ERMAAAAACA0ERMAAAAACE3EBAAAAABCEzEBAAAAgNBETAAAAAAgNBETAAAAAAhNxAQAAAAAQhMxAQAAAIDQREwAAAAAIDQREwAAAAAITcQEAAAAAEITMQEAAACA0ERMAAAAACA0ERMAAAAACE3EBAAAAABCEzEBAAAAgNBETAAAAAAgNBETAAAAAAhNxAQAAAAAQhMxAQAAAIDQREwAAAAAIDQREwAAAAAITcQEAAAAAEITMQEAAACA0ERMAAAAACA0ERMAAAAACE3EBAAAAABCEzEBAAAAgNBETAAAAAAgNBETAAAAAAhNxAQAAAAAQhMxAQAAAIDQREwAAAAAIDQREwAAAAAITcQEgPx09gHNj92zcdZbAFtq3bBu1isAANQ8IiYA5Kd9m9VP3rLeAgAAIAdETAAAAAAgNBETAAAAAAhNxAQAAAAAQhMxAQAAAIDQREwAAAAAIDQREwAAAAAITcQEAAAAAEITMQEAAACA0ERMAAAAACA0ERMAAAAACE3EBAAAAABCEzEBAAAAgNBETAAAAAAgNBETAAAAAAhNxAQAAAAAQhMxAQAAAIDQREwAAAAAIDQREwAAAAAITcQEAAAAAEITMQEAAACA0ERMAAAAACA0ERMAAAAACE3EBAAAAABCEzEBAAAAgNBETAAAAAAgNBETAAAAAAhNxAQAAAAAQhMxAQAAAIDQREwAAAAAIDQREwAAAAAITcQEAAAAAEITMQEAAACA0ERMAAAAACA0ERMAAAAACE3EBAAAAABCEzEBAAAAgNBETAAAAAAgNBETAAAAAAhNxAQAAAAAQhMxAQAAAIDQREwAAAAAIDQREwAAAAAITcQEAAAAAEITMQEAAACA0ERMAAAAACA0ERMAAAAACE3EBAAAAABCEzEBAAAAgNBETADIT4Pmffr44lVZb5Ebfb+724/aNcl6i/9hVUn5hrLyrLcAttSgTq2m9WplvQUAkHsiJgDkpzUl5UXFZVlvkRslm8Llwj+8/MmUd1dmvQWwpf+zb/MbD9st6y0AgNwTMQEAAACA0ERMAAAAACA0ERMAAAAACE3EBAAAAABCEzEBAAAAgNBETAAAAAAgNBETAAAAAAhNxAQAAAAAQhMxAQAAAIDQREwAAAAAIDQREwAAAAAITcQEAAAAAEITMQEAAACA0ERMAAAAACA0ERMAAAAACE3EBAAAAABCEzEBAAAAgNBETAAAAAAgNBETAAAAAAhNxAQAAAAAQhMxAQAAAIDQREwAAAAAIDQREwAAAAAITcQEAAAAAEITMQEAAACA0ERMAAAAACA0ERMAAAAACE3EBAAAAABCEzEBAAAAgNBETAAAAAAgNBETAAAAAAhNxAQAAAAAQhMxAQAAAIDQREwAAAAAIDQREwAAAAAITcQEAAAAAEITMQEAAACA0ERMAAAAACA0ERMAAAAACE3EBAAAAABCEzEBAAAAgNBETAAAAAAgNBETAAAAAAhNxAQAAAAAQhMxAQAAAIDQREwAAAAAIDQREwAAAAAITcQEAAAAAEITMQEAAACA0ERMAAAAACA0ERMAAAAACE3EBAAAAABCEzEBAAAAgNBETAAAAAAgNBETAAAAAAhNxAQAAAAAQhMxAQAAAIDQREwAAAAAIDQREwAAAAAITcQEAAAAAEITMQEAAACA0ERMAAAAACA0ERMAAAAACE3EBAAAAABCEzEBAAAAgNBETAAAAAAgNBETAKDKWuxUe68m9bLeAnJjXVn558VlWW8BALA1IiYAQJX1OXTX5C3rLSA3pixede3zH2a9BQDA1oiYAAAAAEBoIiYAAAAAEJqICQAAAACEJmICAAAAAKGJmAAAAABAaCImAAAAABCaiAkAAAAAhCZiAgAAAAChiZgAAAAAQGgiJgAAAAAQmogJAAAAAIQmYgIAAAAAoYmYAAAAAEBoIiYAAAAAEJqICQAAAACEJmICAAAAAKGJmAAAAABAaCImAAAAABCaiAkAAAAAhCZiAgAAAAChiZgAAAAAQGgiJgAAAAAQmogJAAAAAIQmYgIAAAAAoYmYAAAAAEBoIiYAAAAAEJqICQAAAACEJmICAAAAAKGJmAAAAABAaCImAAAAABCaiAkAAAAAhCZiAgAAAAChiZgAAAAAQGgiJgAAAAAQmogJAAAAAIQmYgIAAAAAoYmYAAAAAEBoIiYAAAAAEJqICQAAAACEJmICAAAAAKGJmAAAAABAaCImAAAAABCaiAkAAAAAhCZiAgAAAAChiZgAAAAAQGgiJgAAAAAQmogJAAAAAIQmYgIAAAAAoYmYAEB0r35WXFBQkPUWkBt7Nq57cKsGWW8BAFDDiJgAQHSP/HNF8pb1FpAbP9m7mYgJAFBVIiYAAAAAEJqICQAAAACEJmICAAAAAKGJmAAAAABAaCImAAAAABCaiAkAAAAAhCZiAgAAAAChiZgAAAAAQGgiJgAAAAAQmogJAAAAAIQmYgIAAAAAoYmYAAAAAEBoIiYAAAAAEJqICQAAAACEJmICAAAAAKGJmAAAAABAaCImAAAAABCaiAkAAAAAhCZiAgAAAAChiZgAAAAAQGgiJgAAAAAQmogJAAAAAIQmYgIAAAAAoYmYAAAAAEBoIiYAAAAAEJqICQAAAACEJmICAAAAAKGJmAAAAABAaCImAAAAABCaiAkAAAAAhCZiAgAAAAChiZgAAAAAQGgiJgAAAAAQmogJAAAAAIQmYgIAAAAAoYmYAAAAAEBoIiYAAAAAEJqICQAAAACEJmICAAAAAKGJmAAAAABAaCImAAAAABCaiAkAAAAAhCZiAgAAAAChiZgAAAAAQGgiJgAAAAAQmogJAAAAAIQmYgIAAAAAoYmYAAAAAEBoIiYAAAAAEJqICQAAAACEJmICAAAAAKGJmAAAAABAaCImAAAAABCaiAkAAAAAhCZiAgAAAAChiZgAAAAAQGgiJgAAAAAQmogJAAAAAIQmYgIAAAAAoYmYAAAAAEBoIiYAAAAAEJqICQAAAACEJmICAAAAAKGJmAAAAABAaCImAAAAABCaiAkAAAAAhCZiAkB++s6uDSr+qyLrLYAtfbtVw6xXAACoeURMAMhPp3TcOXnLegugBji4VYN+XdpkvUVu7NOsXtYrAADVQsQEAIAdWrsm9ZK3rLcAANgaERMAAAAACE3EBAAAAABCEzEBAAAAgNBETAAAAAAgNBETAAAAAAhNxAQAAAAAQhMxAQAAAIDQREwAAAAAIDQREwAAAAAITcQEAAAAAEITMQEAAACA0ERMAAAAACA0ERMAAAAACE3EBAAAAABCEzEBAAAAgNBETAAAAAAgNBETAAAAAAhNxAQAAAAAQhMxAQAAAIDQREwAAAAAIDQREwAAAAAITcQEAAAAAEITMQEAAACA0ERMAAAAACA0ERMAAAAACE3EBAAAAABCEzEBAAAAgNBETAAAAAAgNBETAAAAAAhNxAQAAAAAQhMxAQAAAIDQREwAAAAAIDQREwAAAAAITcQEAAAAAEITMQEAAACA0ERMAAAAACA0ERMAAAAACE3EBAAAAABCEzEBAAAAgNBETAAAAAAgNBETAAAAAAhNxAQAAAAAQhMxAQAAAIDQREwAAAAAIDQREwAAAAAITcQEAAAAAEITMQEAAACA0ERMAAAAACA0ERMAoMru+EfRrGVrs94C2NLxezW5+Fstst4CAMg9ERMAoMqWry198/PirLcAtnTgLjtlvQIAUC1ETAAAAAAgNBETAAAAAAhNxAQAAAAAQhMxAQAAAIDQREwAAAAAIDQREwAAAAAITcQEAAAAAEITMQEAAACA0ERMAAAAACA0ERMAAAAACE3EBAAAAABCEzEBAAAAgNBETAAAAAAgNBETAAAAAAhNxAQAAAAAQhMxAQAAAIDQREwAAAAAIDQREwAAAAAITcQEAAAAAEITMQEAAACA0ERMAAAAACA0ERMAAAAACE3EBAAAAABCEzEBAAAAgNBETAAAAAAgNBETAAAAAAhNxAQAAAAAQhMxAQAAAIDQREwAAAAAIDQREwAAAAAITcQEAAAAAEITMQEAAACA0ERMAAAAACA0ERMAAAAACE3EBAAAAABCEzEBAAAAgNBETAAAAAAgNBETAAAAAAhNxAQAAAAAQhMxAQAAAIDQREwAAAAAIDQREwAAAAAITcQEAAAAAEITMQEAAACA0ERMAAAAACA0ERMAAAAACE3EBAAAAABCEzEBAAAAgNBETAAAAAAgNBETAAAAAAhNxAQAAAAAQhMxAQAAAIDQREwAAAAAIDQREwAAAAAITcQEAAAAAEITMQEAAACA0ERMAAAAACA0ERMAAAAACE3EBAAAAABCEzEBAAAAgNBETAAAAAAgNBETAAAAAAhNxAQAAAAAQhMxAQAAAIDQREwAAAAAIDQREwAAAAAITcQEAKiyyw5udcGBu2S9BbClnevXznoFAKBaiJgAAFXWumGd5C3rLQAAYEfhwTcAAAAAEJqICQAAAACEJmICAAAAAKGJmAAAAABAaCImAAAAABCaiAkAAAAAhCZiAgAAAAChiZgAAAAAQGgiJgAAAAAQmogJAAAAAIQmYgIAAAAAoYmYAAAAAEBoIiYAAAAAEJqICQAAAACEJmICAAAAAKGJmAAAAABAaCImAAAAABCaiAkAAAAAhCZiAgAAAAChiZgAAAAAQGgiJgAAAAAQmogJAAAAAIQmYgIAAAAAoYmYAAAAAEBoIiYAAAAAEJqICQAAAACEJmICAAAAAKGJmAAAAABAaCImAAAAABCaiAkAAAAAhCZiAgAAAAChiZgAAAAAQGgiJgAAAAAQmogJAAAAAIQmYgIAAAAAoYmYAAAAAEBoIiYAAAAAEJqICQAAAACEJmICAAAAAKGJmAAAAABAaCImAAAAABCaiAkAAAAAhCZiAgAAAAChiZgAAAAAQGgiJgAAAAAQmogJAAAAAIQmYgIAAAAAoYmYAAAAAEBoIiYAAAAAEJqICQAAAACEJmICAAAAAKGJmAAAAABAaCImAAAAABCaiAkAAAAAhCZiAgAAAAChiZgAAAAAQGgiJgAAAAAQmogJAAAAAIQmYgIAAAAAoYmYAAAAAEBoIiYAAAAAEJqICQAAAACEJmICAAAAAKGJmAAAAABAaCImAAAAABCaiAkAAAAAhCZiAgAAAAChiZgAAAAAQGgiJgAAAAAQmogJAAAAAIQmYgIAAAAAoYmYAAAAAEBoIiYAAAAAEJqICQAAAACEJmICAAAAAKGJmAAAAABAaCImAAAAABCaiAkAAAAAhCZiAgAAAAChiZgAAAAAQGgiJgAAAAAQmogJAAAAAIQmYgIAAAAAoYmYAAAAAEBoIiYAAAAAEJqICQAAAACEJmICAAAAAKGJmAAAAABAaCImAAAAABCaiAkAAAAAhCZiAgAAAAChiZgAAAAAQGgiJgAAAAAQmogJAAAAAIQmYgIAAAAAoYmYAAAAAEBoIiYAAAAAEJqICQAAAACEJmICAAAAAKGJmAAAAABAaCImAAAAABCaiAkAAAAAhCZiAgAAAAChiZgAAAAAQGgiJgAAAAAQmogJAAAAAIQmYgIAAAAAoYmYAAAAAEBoIiYAAAAAEJqICQAAAACEJmICAAAAAKGJmAAAAABAaCImAAAAABCaiAkAAAAAhCZiAgAAAAChiZgAAAAAQGgiJgAAAAAQmogJAAAAAIQmYgIAAAAAoYmYAAAAAEBoIiYAAAAAEJqICQAAAACEJmICAAAAAKGJmAAAAABAaCImAAAAABCaiAkAAAAAhCZiAgAAAAChiZgAAAAAQGgiJgAAAAAQmogJAAAAAIQmYgIAAAAAoYmYAAAAAEBoIiYAAAAAEJqICQAAAACEJmICAAAAAKGJmAAAAABAaCImAAAAABCaiAkAAAAAhCZiAgAAAAChiZgAAAAAQGgiJgAAAAAQmogJAAAAAIQmYgIAAAAAoYmYAAAAAEBoIiYAAAAAEJqICQAAAACEJmICAAAAAKGJmAAAAABAaCImAAAAABCaiAkAAAAAhCZiAgAAAAChiZgAAAAAQGgiJgAAAAAQmogJAAAAAIQmYgIAAAAAoYmYAAAAAEBoIiYAAAAAEJqICQAAAACEJmICAAAAAKGJmAAAAABAaCImAAAAABCaiAkAAAAAhBY0YhYVFX1WadWqVWsqbdy4sby8vLS0tKCgoG6lOnXq7LTTTk2bNm3cuHGTJk1atGjRunXr5IOsdwcAAMhbydnZsmXLli9f/vHHH3/00UfJWdvq/yf5R6WVysrKNm3aVLt27eSsLTl3q1evXnLWlpy77bzzzs2aNdtll13atGmze6U999yzUaNGWf83AVADZB8xKyoq3nnnnQULFvyz0nvvvZfcI27cuHHbjla/fv1WrVold4Tt27ffa6+9OnTosO+++yYfFxQU5HZtgHzy1ltv/f3vf6+mg3fu3LlTp07VdHAAoFol52uLFi167bXXkpO15IO33377008/zeHxkzO1Nm3aJGdt++yzzwEHHHDIIYd07Ngxh8cHIG9kEzHLy8vnz5///PPPz5079/XXX1+zZk2ujrxx48ZllebMmfPvTzZo0CC5OzzwwAOTe8Tvfve7e+65Z67GkZpVq1Y988wz1T3lpJNOSr5bqntKziWPKd9///3057Zr1y75M5X+XKrD7373u+QGuZoO/p3vfOfRRx+tpoMTU3JH/PLLL2e9RR6qU6dO165ds96iplq8ePE//vGPrLfIQ40aNTrhhBOy3oIcKysrmzdvXnK+lrxPztfWrl1bfbMqKio+rDRr1qzNn2natGnyILNz584/+MEPOnXqVKtWreqbTjSvvvrqkiVLqnVEmzZtunTpUq0jqKGSE6KPP/446y2qILl53PyE9+R93bp1k3vk5PazWaV69eplvV21SDVilpaWPvfcc9OnT58xY8aKFStSm1tcXPxqpXHjxiW/bNmy5fe+970jjzzy6KOP3m233VJbg+2xdOnSK664orqnzJ49u8ZFzGTniy66qKSkJOW5e+211/jx41MeSjV5++23q69gJl555ZU333zzm9/8ZvWNIJrki57CjfYOKHlsKmJus1mzZt18881Zb5GH2rZtK2Lmjc8+++zJJ59M/rDMmTNn3bp1Wa2xevXqWZUGDRqUnJAfccQRxx57bPJttvPOO2e1Eql56KGHJkyYUK0jjj/+eBGT/+iee+5J4blT6WjQoMFulVq3bt2mTZuOHTvuvffeyfvkRjXr1bZLShHzjTfeGD9+/LRp01auXJnOxK0oKir6S6Xk4/322+9HlQ444ICs94Iqe+211woLC9MvmMmN4Lhx45Jbw5TnUk1Gjx5d3SNGjRr1xz/+sbqnAADb4NNPP03O1KZPn/7SSy9VVFRkvc7/sHr16r9WqlOnzuGHH/7jSmomwNYVFxe/V2mLz7ds2fJb3/rWQQcdlLw/+OCDk19mst42q96IWVZWNmXKlOT0eP78+dU6aJttfiHOoUOHdujQoWvXrj/72c/atWuX9VLwtSTfuueff/769etTntuqVatx48btscceKc+lmiTnBpMnT67uKVOnTu3bt2/z5s2rexAA8DUlJ2szZsx49NFHZ82atWnTpqzX+QrJtn+r9Nvf/vakk07q1q3b4YcfnvVSADVMUVHRs5U2/3Lvvfc+7LDDunTpkryvEUGzuiJmSUnJgw8+eM8993z00UfVNCK33nvvvWHDhg0fPjz54p1++uldu3atX79+1kvBl1q2bFn37t1XrVqV8tzmzZuPHTu2ffv2Kc+l+jzyyCPFxcXVPWXjxo3jx48vLCys7kEAwFf67LPPxowZk5yv/etf/8p6lypLHlQ8Xqlt27bnnntut27dGjdunPVSADXSu5XGjRtXUFBw8MEHH3fccccff/x+++2X9V5fKvcRs6KiYtKkSYMHD16+fHnOD17dkuXnVurfv39yd/jzn//c080IqKioKPnmzO11Ib+Opk2bjh49et999015LtUnudFLzmHSmTV27NgePXrUrl07nXEAwP+2YMGC++67b+rUqaWlpVnvsr2WLVuWnLUNGTIkOXE7//zzd99996w3AqipkhPDzdeSGThwYMeOHU899dTTTjst4GWxcxwxX3vttRtvvDEPrvy4cuXKu++++5577jnxxBMvvfRS16MgjtWrV3fv3v2DDz5IeW6jRo0eeOABfxbyzMyZM5cuXZrOrA8//PDpp58+6aST0hkHAHzRW2+9NXTo0Keeeiraq15up7Vr1953332jR48+88wze/bsKWUCbKfFixcPHjx4yJAhhxxySLdu3U499dQ4P6mcs4hZXFw8aNCgkSNH5tOdYnl5+RNPPDF9+vSjjz66V69ehx56aNYbsaPbsGHDBRdcsHDhwpTn7rTTTvfee+/BBx+c8lyqWwqX9PmiUaNGiZgAkLJFixYlZ2r5ly+/qLS0dNy4cY888siZZ57Zu3fvVq1aZb0RQM2W3GXMq9S/f/8zzjjj7LPP7tChQ9ZL5Shizp8//7LLLnv//fdzcrRokq/c5tc9/eEPf9inT59vfOMbWW/EDip5cNazZ8/kRiTlufXq1bvrrru6dOmS8lyq2+LFi2fPnp3mxLlz57799tv7779/mkMBYIdVVFQ0ZMiQhx9+OP51e3Jic8qcNGnSxZUaNGiQ9UYANd7q1avvv//+kSNHnnDCCYWFhdk+tykHEfOBBx4YMGBAHryoyleaOXPmM88807Vr16uuusprZZKyioqKPn36zJo1K+W5derUGT58+FFHHZXyXFIwevTo9J+RkQzt379/ykMBYEdTVlZ277333nHHHevWrct6l7QVFxdvTrfXXHPNT37yk6zXAcgHyZnjk5UOO+yw3r17J+8zWWO7ImZJScn111//6KOP5mqb+JIv29SpU5MvW2GlOK8LQN7r16/fn//855SH1qpV67bbbjv++ONTnksK1q5dO3HixPTnPvbYY1dffXXTpk3THw0AO4h58+Zde+21//znP7NeJEuffPLJ5ZdfPmHChJtvvrl9+/ZZrwOQJzZfDfvII4/s06fPQQcdlPL0bY+YyQnwxRdfnKyew21qio0bNw4ZMiS5R7zxxhuPO+64rNch/916663jxo1LeWhBQcHvf//7rl27pjyXdEycODGTp2Zs2LDhkUceueiii9IfDQB5L7lzHzBgwEMPPZTHL39ZJc8///yPfvSjX/7yl4WFhbVr1856HYA88be//W327Nk//vGP+/btm+ZPKm9jxFy5cmX37t3feOON3G5TsyxfvrxHjx4nn3zyDTfc0LJly6zXIW/de++9d955Z8pDCwoKbrrppjPOOCPluaRmzJgxGY6+8MILk++xrBYAgLw0b968K6644oMPPsh6kVhKSkoGDRo0Y8aM5H2Eq1IA5IeKioq//OUvM2fOLCwsvOSSS9L5SeVtiZgrV648++yzFyxYkPNtaqJp06bNnj37pptuOuWUU7LehTz06KOPDhgwIP25ffv2Tf6Ypz+XdDz33HOLFy/OavrSpUuTuzpPYweAXCkvLx8yZMiIESN2kAv4bIPXXnvt5JNPvu66684666ysdwHIHxs2bBg8ePDEiRNvueWWI444orrHVTlirl+//txzz1Uwv2jVqlWXXXbZjBkzbr755iZNmmS9Dvlj+vTpffv2Tf+ngX71q1/5ad/8NmrUqMwXEDEBICeKiop69+69Y77MV5UkZ9rXXXfdiy++mJxpN2zYMOt1APLH0qVLu3fvfuaZZ1577bXVmsWqFjE3bdrUq1ev+fPnV9M2Ndrjjz/+8ssvDx48uHPnzlnvQj544YUXLrvssvLy8pTnFhYWJo+DUx5KmpYsWfLss89mu8Pzzz+/ePHijh07ZrsGANR08+bNu/TSSz/55JOsF6kxkrO2N998884779xnn32y3gUgf1RUVIwfP37WrFm33357ly5dqmlK1SLmgAEDMj/1jezDDz8866yzrr766gsvvDDrXajZXn/99YsvvrikpCTlud27d7/qqqtSHkrKxowZk/mL/ScLjBo16re//W22awBAjTZx4sRrr722tLQ060VqmHffffe0004bOnTosccem/UuAHnl448/Pvvss3v16tW7d+9atWrl/PhViJhTpky5//77c75BnikrK+vfv/+rr746fPjwrHehplq0aNF55523fv36lOd269btxhtvTHkoKSsuLp4wYULWW/y3SZMm/frXv27cuHHWiwBAjTRw4MARI0ZkvUVNtW7duh49evzmN785//zzs94FIK+Ul5cPHTp07ty5w4cPz/lFsL9uxFy6dOn111+f29l5zGXv2GbLli0755xzVq1alfLcU0899ZZbbkl5KOl77LHHVq9enfUW/y05eZgwYcJ5552X9SIAi1W0agAAIABJREFUUMOUlpZeeeWVU6dOzXqRmi05zb755ps/+OCDfv36FRQUZL0OQF558cUXTz311Lvuuuuggw7K4WG/VsSsqKi4/PLL165dm8PBeezAAw/0koJsm6KionPOOefTTz9Nee6JJ544aNAgj952BJlf0ueLxowZI2ICQJWUlJT07NnzmWeeyXqRPJE8NFq5cuWtt95ap06Vr3kLwFZ8/PHH3bp1GzBgwE9/+tNcHfNr3VIn55nz5s3L1cj8Vr9+/dtvv71u3bpZL0LNs2bNmnPPPXfJkiUpzz3mmGOGDRtWu3btlOeSvjlz5ixatCjrLf6/995777nnnjvqqKOyXgQAaob169f36NEjuUPPepG8MmXKlORx+B133JGcymW9C0Be2bhxY58+fZYtW9arV6+cHPCrI+Znn31266235mTYjiD58uy7775Zb0HNs2HDhgsuuGDBggUpzz388MPvvPNO2X0HEeppmJslK4mYAPB1bH64+OKLL2a9SB6aOXNmYWHh3XffXa9evax3AcgrFRUVt912W1FR0Q033LD9P/351RHz1ltvXbdu3XaO2UF06dLFdcnZBqWlpT179nzllVdSnnvooYfec889/s55B7F8+fKnn3466y229Oyzzy5ZsqRdu3ZZLwIAoZWUlBQWFiqY1WfWrFm9evUaMWKEnysHyLnRo0evWLHitttu286fAf2KG+iFCxdOnDhxewbsOBo3bjxw4ECvKkhVVVRUXHnllcnDppTndurUaeTIkQ0bNkx5LlkZO3ZseXl51ltsKfn+HzNmzHXXXZf1IgAQ16ZNm3r37v3cc89lvUiee/rppy+//PKhQ4c6pwPIuc3Xo9vOjvkVETO5BU/OMLf56DuUfv367bHHHllvQc2TfOekf3HJ/ffff9SoUU2aNEl5LlnZuHHj+PHjs97iP5swYcIVV1yhpwPAl7nhhhuefPLJrLfYIUybNm3XXXe9/vrrs14EIA9NnTq1oKDgtttuq1Wr1rYdYWsR85133pk+ffq2HXdHc+KJJ55xxhlZb0HNM3DgwHHjxqU8tGPHjmPGjGnWrFnKc8nQlClTVq5cmfUW/9nq1asnT5581llnZb0IAET0pz/96cEHH8x6ix3IyJEj99hjjwsuuCDrRQDy0OOPP96wYcNbbrll23771iLmqFGjPA3z62jRokX//v2z3oKa59577x0xYkTKQ9u2bTt27NiWLVumPJdsjR49OusVtia5uxExAeB/e+KJJ/7whz9kvcUOJzm523PPPU844YSsFwHIQw8//HCrVq0uv/zybfi9Xxox165dO2nSpO3YKpdq167dqFGjunXrJh+UlpaWlJSsX78+TmC95ZZbWrRokfUW1DATJkwYMGBAykPbtGnz4IMP7rbbbinPJVsvvfTSW2+9lfUWW7No0aI5c+YcfvjhWS8CAIEk949XXnllnLOeHUfy/7xPnz6TJ0/u2LFj1rsA5KFhw4a1bt16G57I8qUR84knniguLt6+rbZR06ZNO3fufMghh+y3337t27ffddddk89s8eLKmzZtWrlyZVFR0dJK77zzzsKFCxcsWLBhw4aUtz3jjDP8HR1V9eSTT15zzTUpPyRt2bLlmDFj2rZtm+ZQIgj+NMzNRo0aJWICwL+tWbPmkksuWb9+fdaLVEGDBg2aN2++884716tXb/N1G5KztpKSklWrVn3++ecbN27MesEqWLt2bfL/f/LkyY0aNcp6F4A8dMMNN3To0KGq54BfGjGnTJmy3StVTf369U855ZTTTz+9c+fOX3mtouRfaFFp//33//cny8rK3nzzzZdffnn27Nlz585N4W5yjz326NevX3VPIc+88MILvXv3Tvk60c2aNRszZoy/TN4BffLJJzXi1Y2ffvrp5cuXuzwaAGx25ZVXvv/++1lvsTVt27b99re/vX+ldu3aJXfiW+99K1asWLZs2QcffLBo0aKFCxfOmzevqKgotW23wbvvvnvNNdcMGzYs60UA8tCmTZt69eo1ZcqUKj3R6j9HzDVr1sydOzdHi32NJerU6d69+y9+8YtddtllO4/z7UoXXnjhhg0bZs2a9de//nXGjBnr1q3L1apfVFBQMHDgwMaNG1fHwclXr7/++iWXXFJSUpLm0KZNm44ePfqLxZ8dx7hx48rKyrLe4quVl5ePHTv26quvznoRaoxatWodc8wxWW+Rtp122inrFdia+vXrH3HEEVlvkTYvtF0dkvvEp556Kust/oPmzZsfffTRRx111Pe///1dd921qr830alTp39/5v333589e/bMmTPnzJkT83ma06ZNS+5rTj/99KwXAfLE7rvvfsABB+TqaMk51OZXXFy3bt3q1atXrVq1Zs2aXB08BStWrLj4/7Z353E1bf//wJ3mUkmFzJSuOcIVmTITkjkNhmTqUkSSMRLKmCGFNCnClT4lsyuEdM0ubmQsulQo0Xx+y+nz6+vjhspZa+9zzuv5hwep/Xo37bXX++y91rRpUVFR5Aqqgh9SfhMzPj6+uLhYfIV9T9OmTTdv3vzlYCYW5Cp/oMinT5/i4uIOHjyYlJQk3qd37e3tTUxMxHhAkHqPHj2aPHkypa76t6ipqe3Zs6dNmzYsQ4EnyHi2b98+rquoqMjIyDlz5lR8AAMZR35Udu/ezXUVAP9DV1cXP5bw81JSUqq8bSsl5JQ7aNCgESNGmJqaKih8b2/YSmkiYmtrS2bdJ0+e/P333xMTE/m2BqiHh8evv/7aqFEjrgsBAGnQo0cPqntjfPr0KT09/cmTJ2Qo+fvvv2/duvX48WO+nVe/9ODBA09Pz1WrVlXw/csfgS5duiS+kr6nc+fOO3fu1NTUpBehqqo6SoR8/0JDQ6OiosSybqahoaGrq+vPHwdkR1pa2oQJE969e8cylFxx7tq1q0OHDixDgT+OHj2amZnJdRUVRX47oqOjx44dy3UhAAAAnCkqKnJ2dma/0P+31K5de/LkyWR0rlmzJr0UDQ2N0inbo0ePyJTt4MGD/LkxMzc318XFhZT01SYNAAA8pKqq2lSkT58+pW/JyclJTEy8fPnymTNnnj9/zm155YqIiOjRo8fAgQMr8s7lNzGTkpLEWlL5jI2N9+zZo6amxiCLaN68uZeX17x580JFfqaXpKiouGnTJiUlJTGWB9ItIyPDzs4uPT2dZSj5EQ0ICMBmKbIsJCSE6xIqh5yc0cQEAABZRi7e7t27x3UVn9WuXXv27NljxoxhOetp1qzZypUrnZycAgMDyWUMT5q5169fDwsLmzBhAteFAABUmoaGRj+RpUuX3r9/PzY2NioqinFr4ofc3NyMjY0rskpJOU3MnJycx48fU6jqf+jo6OzYsYNZB7OMtrb2nDlzpk2bRqbKu3fvzsrKqsJByLDaqlUrsdcG0or8Tk2aNInx0uzy8vJbtmzp2bMny1DglZs3b96+fZvrKiqHTNuSkpJ+/fVXrgsBAADgAJmFbdu2jesqPt/I89tvv9nb23O1Dq+uri6Z0JLr540bNx46dIgPD0KuW7euf//+devW5boQAICqaykyf/78+Pj40NBQ8icfTrBEdnb2kiVLdu7c+cP3LKeJ+eDBAwafhru7e2WXghYjNTW1GTNmTJgwgXzb/P39yder4h9rbGxMPpZebSBl8vLyHBwcGL+iLhAINmzYMGDAAJahwDcSdxtmKVI2mpgAACCbyBSJ88eoyQXksmXL6tWrx20ZRJ06dby9va2trZcuXXr37l1ui8nNzfXw8AgICOC2DACAnycQCMxEkpOT/fz8YmNjS0pKuC6q2unTp2NiYoYNG/b9dyuniUk+DTol/Z+mTZuOGDGCdsoPlbYyybjo7+8fFBRUkSsGVVXVDRs2yMvLMygPpEBRUZGjoyOb9RnKkFPS2rVrLSwsWIYC32RkZMTFxXFdRVWcOHEiPT1dT0+P60IAAACYOnLkCOOLxq/UqFFjxYoVfLuGbNeuXVRU1K5du3x9fbnt8J46dSohIaFbt24c1gAAIEa//PLL5s2bZ86cuXbt2vj4eK7LqUbGoJ49e5LB6DvvU04T89mzZ9RK+q8xY8bwZ11kTU3NBQsW2NjYkG8bmfN//y7URYsWNWnShFVpINnIz9K8efPOnTvHOHf58uXkV4xxKPBNREREYWEh11VURXFxcXh4OPnd4boQAAAAdvLy8nx8fDgswNjYeOvWrXy4AfPf5OXlZ8yYYWZmNnv27JSUFA4r8fT0PHr0KO5oAQBp0rx586CgoDNnznh4eKSlpXFYSVZW1qZNm0gZ33mfcpqYqamptCr6/3i4Tl/9+vXJsG1ra7t8+fJv3Yvaq1cvGxsbxoWB5Fq2bFlMTAzjUDc3Nyw6DkVFRREREVxXUXX79+8nsxRsngYAALLD39+fw20WrKysVqxYoaioyFUBFdGiRYvo6OgFCxZw+KwJmSdGRkZaW1tzVQAAACV9+/bt2rXrmjVryESSw4Uyw8PDx48f37x582+9QzlNzNevX9MsqZqcnFyzZs2oRlSZiYnJ0aNHQ0NDN27cmJub++V/1ahRw9vbm6vCQOJs2LCB/PoxDnV2dp4+fTrjUOCh48ePUz2Ta2lpvXv3jt7xMzMzY2NjR44cSS8CAACAPzIyMiqymwENAoFg8eLF9vb2nKRXlpqa2rZt27Zs2eLr68vVHJukjx49Gi+1AoD0IedYT09PMzOz+fPnv3//npMaiouLSQ179+791juU08SkOjWtJtrfnc8nfXl5+cmTJw8aNGj58uWnT58uezv5OnK4ExFIlsDAwO3btzMOnTp1qrOzM+NQ4Kfg4GCqxyczh2nTplFdlyo0NBRNTAAAkBE7duzIy8tjn0smPt7e3hI34Do5OdWrV8/d3Z3Mddmnv379Ojw8nEwY2UcDADDQt2/f2NjY6dOnM96duMwlEVNT03L/t5wmJu2GK587mGXq1q27c+dO8p3z8PDIysoaNmzY0KFDuS4KJMOhQ4dWr17NONTOzo5cyTEOBX66e/fu9evX6R3fyMioR48e5ubmUVFR9FJu37598+bN9u3b04sAAADgg/T0dE4WgZGTk9u0aZOEznFGjx6tpaX122+/cbICuL+///jx41VUVNhHAwAwUL9+/cjIyFmzZnG128+GDRsq0cSkvenbp0+fqB5fjMig3rVr140bNy5YsIDrWkAynDx50t3dnfHjLeQybsWKFSwTgc9CQ0OpHt/W1rb0T6pNTCIkJARNTAAAkHp+fn7sN90WCARr166V0A5mqX79+m3btu23334rKipiHP3mzZsDBw5gGXoAkGLVq1ffvXv3vHnz/vOf/7BPv3HjxtmzZ/v06fPv/yqniVlQUEC1mtzcXBIhEfdjEjo6Ol5eXlxXAZLh8uXLzs7OjB9sGTZsGLkGZZkIfPb27Vuq20lpamqWTniMjY1btmx5//59ellxcXGLFy/W1dWlFwEAAMCtrKysgwcPss+dO3fu6NGj2eeKV//+/cllsKurK/v1Mffs2WNraysnJ8c4FwCAGXl5+Y0bNyoqKv7+++/s0/38/CraxKTdgiFjzJMnT76z2RCAJLp9+zbtVQL/bcCAAeS0gusnKLN//36qP4RkwlP28JSNjc2SJUvoZRUWFkZERDg5OdGLAAAA4FZYWBj72zBHjBgxa9YsxqGUjBw58vXr1z4+Poxznz9/furUqYEDBzLOBQBgSU5Oztvb+8OHDydOnGAcfV2kQ4cOX729nCamgoIC7T7mtWvX0MQEafLo0aPJkyd/taM9bb169dqyZYu8vDzLUOAzcur+zj5uP08gEFhbW5f909LScu3atWRIo5cYERHh6OhIRiV6EQAAAFzJy8sLCwtjHNq6dWv2q7dTNWPGjOTk5CNHjjDO3bNnD5qYACD15OTkfH19yTSQ6r4L5dq5c6e/v/9XbyxnZqioqEj79cAzZ858ORMGkGhpaWkTJkx4+/Yty9AuXbrs2LFDUpZlADZOnTr16tUrescnP3X6+vpl/1RTU7O0tKTaNn39+vXx48clesUuAACAb4mNjc3KymKZqK6u7ufnp6yszDKUgbVr1yYnJzPeSDcpKSklJcXAwIBlKAAAe0pKSgEBAcOHD3/58iXLXDK9TUtLq1+//pdvLKeJyaAtEh8f/+LFi4YNG9IOAqAtIyPDzs4uPT2dZaixsfHu3buxJSJ8hfaWPjY2Nl+9xdrammoTkwgODkYTEwAApNK+ffsYJ65cuVIqp2BkArtlyxYLC4uPHz+yzI2MjFy0aBHLRAAATujo6Gzbtm3s2LEs91ITCoUHDhyYO3ful28sp4mpqalJ+yXBkpKS9evX+/r6Uk0BoC0nJ2fSpElPnz5lGdq6devg4GA1NTWWocB/f//995UrV+gdv1atWgMGDPjqjS1atOjYseO1a9fo5V6/fv3u3btt2rShFwEAAMBecnLyjRs3WCb279/f0tKSZSJL+vr6ixYtorpa978dPnzY1dVVUVGRZSgAACfat28/f/58xrsKHzhwwMnJ6cs19MpvYjIoJSYmpnv37mPGjGGQBUBDfn6+g4MD4+dWDA0NQ0NDNTQ0WIaCRKB9G+a4cePKXZvS1taWahOzmuhTY79gPwAAAFWRkZEs48jVo6enJ8tE9qytrY8ePXr58mVmiVlZWfHx8f369WOWCADAIQcHh1OnTtGe/X3pn3/+IafZL7cpL2dGqqury6aaRYsWKSsrW1hYsIkDEKOioiJHR8ekpCSWoU2bNg0PD69ZsybLUJAI2dnZUVFR9I4vJyc3fvz4cv9r8ODBZFJE9f79mJgYd3d3/OQDAIDUEAqFsbGxLBOdnZ1r167NMpETq1atIlcmBQUFzBLj4uLQxAQAGVG6Wbm5uTnL0yyZDP6giVm3bl02pRQXF8+dOzclJeWru0MBeI5cd86fP/+PP/5gGdqgQYO9e/cye40BJMuBAwfy8vLoHZ8MG98aGpSUlMaMGRMQEEAvPT8/f//+/TNnzqQXAQAAwNLVq1ffvHnDLM7AwGDChAnM4jjUtGnTKVOm7Nixg1ni6dOnyWQem20CgIzQ19efOnXq9u3bmSWeOXPmy9NsOU3MevXqMatGKBRu3br1/Pnza9asadGiBbNcgJ/h4eHxn//8h2VinTp1wsPDmb3AAJKlpKSE9rPktra23/lfa2vrnTt3kvM5vQL27t07bdo0vNwFAADS4ejRoyzj5s2bV+6aMFJpxowZ+/bte/fuHZu4Dx8+kMksbsYEANnh6Oh44MABZi/FkdNsfHx8//79S/9ZzmBmYGDAppQyt27dGjp0qKWlpZOTU6NGjRinA1TKpk2bwsLCWCbq6OiEh4dL5VaSIBZ//PFHamoqveOTn70ePXp8/x169uxJhhZ6Nbx69erUqVODBg2iFwEAAMDMyZMnmWW1bt1apgZQDQ2NmTNnrlmzhlniuXPn0MQEANmhqqrq7OzMciM1Mmh+r4nZrFkzZqWUKSkpOXz48JEjRwYOHGhvb9+xY0f2NQD8UFBQ0NatW1km1qhRIywsTF9fn2UoSJaQkBCqxx8/frxAIPj++1hbW1NtYlYTbe8jU3MwAACQVvfv33/9+jWzOEdHR2ZZPGFra+vv7//27Vs2cefPn2cTBADAE2PHjt2xY0daWhqbuC9Ps+U0MZs0aVK9evXc3Fw21XyppKTkmIiBgcGoUaNGjBhRp04d9mUAlOvw4cOrVq1imaiurh4SEoKVFuA7Hj9+nJCQQO/4SkpKZIj64bv17du3bt26r169olfJlStXHjx4gF8HAACQdLRf9vsSmdnJ4EuAqqqqEydO3Lx5M5u41NTUJ0+eNG3alE0cAADnFBQUpk2btnz5cjZxb968uX//fsuWLauV28SUk5MzMjK6fPkym2rKlZKS4uPjs27duo4dO5qbm5OhV09Pj8N6AE6dOuXm5kZ11b+vkMuvPXv2kF9GZokgiUJCQqj+WJLTr7a29g/fjQwcVlZWmzZtolcJERYW5uXlRTUCAACANpY37tnZ2f3wcQqpZGNj4+fnx2z/3ISEBDQxAUCmjBkzZsOGDdnZ2WziyND5zSYmYWJiwm0TsxSZmf8p4unp2apVq759+/bu3dvIyEg2R2LgUGJiopOTU3FxMbNEZWXl3bt3d+rUiVkiSKIPHz4cPnyYasT3t/T5kpWV1datW4uKiugVExUV5ebmpqmpSS8CAACAqoKCghs3brDJUlFRGT16NJssvtHR0Rk8eHB0dDSbuGvXrlX8kgkAQAqQIWbs2LG7d+9mE5eUlDR9+vRq32pi9uzZk9nt9xUhFAr/EtmyZYu2tjYpz8zMjPyppaXFdWkg/e7cuTN16tT8/HxmiYqKin5+fl27dmWWCBLq0KFDVJf++OWXXyreSa9Vq1b//v2PHTtGr568vLzIyEjy+0gvAgAAgCoyo2F2VUnGZQ0NDTZZPERm18yamNevX2cTBADAH1ZWVsyamGWv/5XfxDQyMtLR0cnMzGRTTaVkZWUdEZGTk2vbtm2PHj169uxpbGwsLy/PdWkghVJSUiZNmvThwwdmieQn2dfXt3fv3swSQXKFhYVRPX5l7ykg70+1iVlN9ClPmTKFnP+ppgAAAFDCsts1cuRIZlk81KVLFz09vfT0dAZZL168yMjI0NXVZZAFAMAT+vr67dq1u3XrFoOst2/flq4+XH4Tk8wPhwwZEhoayqCUKispKbklsm3bNg0Nja5du3bv3r1bt25YjgTEJS0tzc7OjtnOhoRAIFi/fr0Mrr8OVXD+/HlyHqd3fDU1NUtLy0p9CDkPk5Hs8ePHlEqqJlo7/+zZs/369aMXAQAAQA+zJqampiaZGbHJ4idyXU2mtIGBgWzi7ty5g7sQAEDWDBs2jE0Tk7h58+Y3m5jEiBEjeN7E/FJOTs5JEfL3evXqkQG7R48e3bt3x/PmUGWZmZkTJkxg8+JtKXKl5eXlNXz4cGaJINGCg4OpHt/S0lJdXb2yH2VjY+Pp6UmjnjJkbEITEwAAJNT9+/fZBJmZmSkofHOuJyPIBQOzJmZycjKamAAga/r3779q1So2WX///Xe1bz1OTrRr187IyOj27dtsqhGjly9fHhQpfd68V69eZAgnnwseP4SKy8nJmThxItXb3P5tyZIlVlZWLBNBcj179iw+Pp5qhI2NTRU+atSoUT4+PlRX+0pISHj8+LG+vj69CAAAABry8vKeP3/OJotMgtgE8VmnTp00NTXZbJ778OFDBikAALzSsGFDQ0NDNifA5OTkat9pYhIODg5OTk4MSqGk7HnzLVu21KxZs2/fvv369evZs6eKigrXpQGv5efnkx/+e/fusQx1dXWdPHkyy0SQaGFhYUKhkN7xjY2NW7ZsWYUPJFOFYcOGHTp0SOwllSGfeEhIyIoVK+hFgEQoKChYsGAB11VQMXv2bHJFyHUVUBVZWVnS+mPp5uamo6PDdRUS79GjR2SGwibL1NSUTRCfycvLm5iYnDp1ikFW6S1CAACyplu3bnxpYpqbm/v6+qakpDCohra3b98eElFRUenZs+eAAQNkfLc++JaioiJHR8ekpCSWoSRx5syZLBNBon38+PHgwYNUI6p2G2bZx1JtYhKHDx92dXWtwtPuIE2Ki4tp/6RxhfwSoYkpoT59+iStP5azZ89GE/PnlU7AGGjUqFGdOnXYZPFcly5d2DQxnz59yiAFAIBvyGmW9kJnpV69epWXl/e9JqacnByZJc6YMYNBNcyQz7l09UxlZeU+ffpYWFj07t1bSUmJ67qAF4RCIfmZ/+OPPxjnvn//nnEiSLSoqKicnBx6x9fS0ho6dGiVP7xdu3Zt2rS5e/euGEv6Sm5u7qFDhyZNmkQvAgAAQOxSU1PZBJGxmE0Q/7Vv355NELk4IZf0NWrUYBMHAMATzEYcoVD48uXLHyz2PGDAgG7duiUkJLCpiaX8/PxjIpqamubm5qNHj+7QoQPXRQHHPD09S7eHYiw8PJz8omFTcqgg2ruukfPhT760Y2Nj4+7uLq56yhUWFjZx4kSBQEA1BQAAQIzS0tLYBLVt25ZNEP+1atVKQUGhqKiIQRaZXaOJCQCypk6dOrVr1379+jWDrNTU1B/vWLdy5Upzc3OquzRwKzs7e7+IoaGhlZXVqFGjNDU1uS4KuMFJB7PUwoUL27Rp06BBA64KAElx6dIlqmuOCAQCa2vrnzyIhYXF6tWrqd4u+uTJkwsXLvTs2ZNeBAAAgHgxa2KSeQ2bIP5TVlZu3LgxmxXSyOy6akuKAwBItObNm7NpYv74TkyiadOm8+fP9/LyYlAQtx4+fOjp6enj4zN8+PApU6Zg7AeWsrOznZycDhw4oKDw499KkGW0b8Ps1q1bkyZNfvIgqqqqI0eODAkJEUdF3xQcHIwmJgAASJD09HQ2QQYGBmyCJAL5arBpYmZkZDBIAQDgG3KavXDhAoOg169fV6hdYm9vf/Hixfj4eNoF8UF+fv6BAwcOHjxoZmbm6OjYsWNHrisCWXHz5s1169bRfggXJFpaWtrp06epRvzMlj5fsra2pt3EJKPSs2fPGjduTDUFAABAXN6+fcsgRU5Orm7dugyCJEXTpk3ZBGGZewCQTcxmZOQ0W6EmpkAg2Lhxo6Wl5YsXL2jXxBNCofAPka5du86bNw/LZQIbu3fvJj9yZmZmXBcCPLV3796SkhJ6x69Tp06/fv3EcihDQ0MTE5PExESxHK1c5EQdFha2ZMkSehEAAADiQoYtNk2u2rVry8vLMwiSFMxauu/evWMTBADAKyxPsxV9cLVmzZp79uwZNWpUdnY21Zr45vLly6NHj+7bt6+7u7u+vj7X5YCUI1e38+fPP3r0aJ06dbiuBXgnPz9///79VCOsrKzEOO2xsbGh2sQkDh486OLioqamRjUFAADg5+Xk5FB9JbJMrVq1GKRIED09PTZBaGICgGxi1r6oRBOzmuh7j6BFAAAgAElEQVQp96CgIDs7u48fP9KriZ/OnDkTHx8/ceLEOXPmVK9enetyQJplZWWRH7Pw8HA5OTmuawF+iY6OpnoHh7y8vJWVlRgPOHDgQF1dXarrQ5EJYVRUlLgegQcAAKCH2b0g2CD7K1paWmyCPn36xCYIAIBXmI075DRbuS1EjI2NAwMDHRwccnNzKdXEW0VFReRzj4uL8/T07NOnD9flgDRLTEzcsmXLnDlzuC4E+IX2lj59+/YV72toioqKY8aM2bFjhxiP+W/ky4ImJgAA8F9BQQGbIA0NDTZBkkJTU5NNELNvMQAArzBrYpLTbKX3QTYxMQkPD7e3t8/KyqJRE8+9evXKwcGBTMuXLl2qrq7OdTkgtbZt29ZFhOtCgC+SkpLu3btHNcLW1lbsx7S2tvb39xcKhWI/cpmHDx9eunTJ1NSUXgQAAMDPKywsZBOkpKTEJkhSMFt2pqioiE0QAACvqKqqsgkiI2mlm5iEkZFRVFTU1KlTk5OTxV6TRDh48GBSUtL27dtbtmzJdS0gnUpKSpydnePi4nR0dLiuBXiB9k7fTZo06d69u9gPW79+fTMzsz/++EPsR/5SaGgompgAAMBzzJqYioqKbIIkhYJCVea8VcDsWwwAwCssT7NVTGrYsOHhw4cXL14cHR0t3pokxdOnT0eOHLl27drhw4dzXQtIpzdv3syfPz8oKIjrQoB76enpJ06coBphbW1N6ci2tra0m5inT59OS0urX78+1RQAAICfwew2PYFAwCZIUjCbXbPZuAkAgG+YnWaFQmHVk9TU1DZt2tS9e/eVK1fm5OSIsSxJkZ+f7+LikpKSQv7kuhaQTvHx8QEBAdOnT+e6EOBYeHh4cXExveMrKyuPHj2a0sF79erVoEGD1NRUSsevJpoz7N27183NjV4EAADAT5KXl2cThIeav0L1IupLuAcWAGQTy9Psz7ZLR40aZWpqunjx4nPnzomjJAkjFAq3bduWkZHh5eWF1zyBhg0bNnTu3NnY2JjrQoAzBQUF+/fvpxoxZMgQeht3ysnJWVlZrV+/ntLxS5EvkbOzs4qKCtUUAACAKmPW4cJDzV9h1tVFExMAZBPL06wY7vmsW7funj17jh8/vmrVqpcvX/78ASUOmTwXFBSsW7cOfUwQO3I6cHZ2jo2NZbavIvAN+e5nZmZSjaC9u/fYsWN9fX2pzqnev3//n//8hwTRiwAAAPgZzPbb+fDhA5sgSfHp0yc2QdhSCQBkU35+Ppsg8TQxSw0aNKh37967d+8OCAiQwYHz8OHDqqqqnp6eXBcCUig1NdXNzW3Hjh1cFwLcCA0NpXr8Vq1a0b7VV1dXd+DAgbGxsVRTQkJC0MQEAADeYnab3vv379kESYrs7Gw2QcrKymyCAAB4hdlpVkVFRZyrb5Kz9m+//WZjYxMQEEBm3cxe8uKJ8PDwevXqzZw5k+tCQAqdOHEiLCzMzs6O60KAtZs3b96+fZtqBL0tfb5EhgbaTcz79+9fvXq1c+fOVFMAAACqRl1dnU1QVlYWmyBJ8e7dOzZBNWrUYBMEAMArzF48I6dZ8W8hpKWl5ebmNn369JCQkNDQ0Ldv34o9grfWr1/fokWL3r17c10ISCEvL6+OHTu2atWK60KAKXIipXp8MqGytLSkGlHKxMTEwMAgJSWFagoZdNDEBAAAftLU1BQIBEKhkHZQeno67QjJ8s8//7AJorfCOAAAn71+/ZpNEJUmZilyBnd2dp45c2Z0dHR4eDjtO4l4glyUzJ0799ixY3Xr1uW6FpA2BQUFs2fPjomJUVNT47oWYCQjIyMuLo5qhKWlJbOfKFtb2xUrVlCNOHHiBJm56enpUU0BAACoAnl5eQ0NDQbP3OXn52dmZuro6NAOkhSvXr1iE4QmJgDIJpanWVpNzFJKSkpjRO7fv3/w4MGYmBja21NwjlyXzJs3Lzw8HJv8gNg9efJkyZIlGzdu5LoQYCQiIoL2BqO0t/T50siRI318fKiuNFJcXExOv+QkTC8CAACgymrUqMFm4bDHjx+jiVnm2bNnbIK0tbXZBAEA8EpaWhqbIDK00W1ilmnZsuWyZcsWL1588eLF6OjoU6dO5ebmsolm78qVK5GRkVZWVlwXAlLoyJEjpqamo0eP5roQoK6oqCgiIoJqRKdOnZo3b0414ksaGhoWFhbk9Eg1Zd++fbNnz8b2oAAAwEN6enovXrxgEPTo0aNff/2VQZBEoL2aTZn69euzCQIA4BVmp9l69eoxamKWkpeX7yWSn59/7ty5Y8eOnT17Viq3Ml+7du3gwYOxtDPQsHz5cmNjYwMDA64LAbrIGZL22iIsb8MsS6TdxMzKyoqNjR05ciTVFAAAgCogsy82Qffu3WMTxH+FhYWPHz9mk4UmJgDIpocPH7IJIqdZpk3MMsrKygNFCgoKLl26dObMmZMnT75584aTYmjIzs7etm3b4sWLuS4EqGvQoEFqairLxE+fPs2aNevIkSPk94hlLjBGe0sfbW3twYMHU434tzZt2rRr1+7WrVtUU8iXDk1MAADgIWZNTBnZkKAiHjx4QKacDILIlbmuri6DIAAAXsnJyXn69CmbLNZ3Yv6bkpKSmYinp+dff/115syZ+Ph4Mr8tKSnhtrCft3fv3mnTptWqVYvrQoCirl27BgYGOjo6njt3jmXu33//vXLlSi8vL5ahwNLdu3evX79ONaJ169bkfEs1olyGhoa0m5h37ty5efNm+/btqaYAAABUFrM79e7fv//p0ydVVVU2cXxG+6qjTKNGjdgEAQDwCpl8CYVCBkGamprUN/aplNYiTk5O79+/vyBy6dIlZuuDil1+fn5gYODChQu5LgRo6dChw65du1RUVNavX29ubk77yd+v7Nu3z9TUdMiQISxDgZnQ0FDaEaWnWdopXAkODt68eTPXVQAAAPyPZs2asQkqKipKSkrq2bMnmzg+u3z5MpugX375hU0QAACvJCYmsgkqPc3yqIlZpkaNGkNFyN+fP39OBh4yBl+5cuXly5dcl1Y5kZGRc+fOxTO/UsnIyCgoKEhNTa2a6LHcjRs32tnZsXn9ocyiRYvatm2LV32lz9u3b2NiYriuQrIdO3ZsyZIleKoLAAB4hWWfKyEhAU1McnFOZpFsslhulggAwB9kuGETVHqa5WMT80uNRMaNG0f+/uTJk8sily5dIpN8rkv7sffv35OJtKWlJdeFgJi1aNEiJCREQ0Oj7C2mpqYzZszYsWMHyzJycnKcnJwOHjyoqKjIMhdo279/f35+PtdVSLbCwsKIiAjyC8J1IQAAAP9HS0urVq1abHYCOH36tLu7O4MgPrtx4wazaSOamAAgg8g5ltmqHYaGhtX438T8UlMRa2troVB49+7d+Pj4ixcvXr9+vaioiOvSvikmJgZNTCljYGAQFhb2763n586de+XKFXKpxLKY27dve3t7L1myhGUoUFVcXLx3716uq5AG4eHhjo6OCgqSNMwBAIDUa9GiBZsm5pMnTx49esTsAXZ+OnXqFLOs1q1bM8sCAOCJM2fOkAksmywjI6NqktXELCMQCNqKzJo168OHDxcuXCDj0x9//PH+/XuuS/vaxYsXSYXq6upcFwLi0bhx4/DwcB0dnX//l4KCgq+v75AhQ3JycliWFBQU1LVr1759+7IMBXrI2ezVq1dcVyENyBTx2LFjw4YN47oQoEVRUVFaF55mtvUHiJ2mpqazszPXVVChpaXFdQlSon379szWpI6Ojp43bx6bLH46evQom6A6deow23oeAIA/YmNj2QQpKyu3atWqmoQ2Mb+krq4+WKS4uDgpKYkMVGTWmpWVxXVd/1VYWHjlypV+/fpxXQiIAZlVhoeH165d+1vv0KBBAy8vL8ZPsAqFQldX17i4OD09PZa5QElISAjXJUgP8sVEE1OKKSgoTJ48mesqAP6HhoYGfizh+4yNjZllRUdHu7i4CAQCZom8cvXq1dTUVDZZHTt2ZBMEAMAf6enpFy9eZJPVunVrJSWlalLQxCwjLy/fRWTFihWXLl06fPjw8ePH8/LyuK6rGikGTUwpUKdOnfDw8B++xDp06FDya3zgwAE2VZV69+6dk5PTvn37yG8By1wQuwcPHjDb3E0WXL9+/e7du23atOG6EAAAgP8yNjYWCARsdoNMTU29cOGCzG7vw/KCHE1MAJBB5DRbUlLCJqvsNCs9TcwycnJy3UVWrFgRExMTGhqanJzMYT2MF0kEGnR1dcPDwyu4D/jy5cuvXbuWkpJCu6ov/fnnn76+vi4uLixDQezI+YrrEqQN+ZL6+PhwXQUAAMB/1ahRo1mzZg8fPmQTR65gZbOJmZWVxexZ8mqiTT6ZZQEA8EFhYSEZYpjFde/evfQvUtjELKOhoWEtkpCQsGvXrvPnz3NSxv3798l3F/tHSy4tLa2wsDB9ff0Kvr+qquqWLVtGjBhRUFBAtbCvbN++vUuXLriEklzZ2dlHjhzhugppExMTs3DhQm1tba4LAQAA+K8ePXowa2KePn36yZMnTZs2ZRPHHxEREfn5+Wyy6tSpg63JAUDWREdHs9mnrppoQczOnTuX/l2am5hluoncvHlz3bp1ly9fZpxeUFDw/PlzAwMDxrkgFpqamqGhoZW9LmnZsqW7u/uKFSsoVVUuoVA4d+7cuLi4cvcdAv6LjIzkwwoYUoZMYMgXdubMmVwXAgAA8F89e/bcs2cPmyxyfRgQELB27Vo2cTxBLqiCg4OZxcnmva4AIMtKSkr8/PyYxXXu3FlZWbn07zLRxCzVvn378PDwEydOeHp6vnz5kmV0SkoKmpiSSE1NjVxiVm1BvYkTJ168ePHMmTNir+o73rx54+LiQi7aZHYFd8lFhoGwsDCuq5BOe/funTZtGlaMBQAAnjAxMSGTMWb3CR4+fNjR0bGCyyJJBzLpY7nRa+/evZllAQDwwe+///706VNmcX369Cn7uww1MUsNHDjQ1NR0yZIlMTExzEKZ7YsHYqSiohIYGNihQ4cqH2HdunWDBw/+559/xFjVD124cMHf3x/3nUmcs2fP4kRByatXr06dOjVo0CCuCwEAAPhMWVm5e/fuzF7qLioq2rhx4+bNm9nEcS43N3fHjh3M4lRVVc3MzJjFAQBw7tOnTxs2bGAWJxAIBg8eXPZPmWtiVhOtlenr69u4ceNt27axSUxPT2cTBOJCLi4DAgJMTEx+5iBaWlrketHGxobZjl2lyHUqqfxn2q/AHrb0oSokJARNTAAA4A9zc3OWz+vExMRMmjSpffv2zBI55O/vz/I2zL59+6qoqDCLAwDg3Pbt21+/fs0srlOnTrVr1y77pyw2MUu5uLjk5+fv2rWLQVZGRgaDFBAXBQWFrVu39ujR4+cPZWJi4ujoyKxdXqq4uNjJyeno0aM1atRgmQtVlpKSkpCQwHUV0iwxMfHBgwctWrTguhAAAIDP+vXrp6SkxGwTSKFQuHz58iNHjkj9ikMvXrzYvXs3y8QhQ4awjAMA4BaZurJpo5UxNzf/8p+y28QkFi5c+Oeff964cYN2UHZ2Nu0IEBd5eXlfX19yZSmuAzo7O1++fPnatWviOmBFvHz50s3Nzd/fn2UoVFloaCiZXXBdhZQjX+TVq1dzXQUAAMBnGhoaPXr0YHkz5p07d4KCguzt7ZklcmLZsmXMFhslatSogQUxAUB2FBcXL1iwoLCwkFmikpKShYXFl2+R6SamQCBYtGjRmDFjaAd9+PCBdgSIBfmRWL9+/ZcLLvw8eXn5zZs3DxkyhHEv++TJk8HBwZMmTWIZClVAzg+HDx/mugrpd+TIkYULF2pqanJdCAAAwGdkDsJ4B0hyldu7d++mTZuyDGXp999/j4+PZ5k4YsQIMsFmmQgAwCE/Pz8GdwF+aeDAgTVr1vzyLTLdxCQ6duzYokWLBw8eUE1h2aiGn7Fy5crhw4eL/bD169dfs2bNb7/9JvYjf9/atWs7depUtd3VgZlDhw7l5uZyXYX0y8vLi4yMnDp1KteFAAAAfNanTx9dXV2Wq06RoXD27NmHDx+Wyr5bWlqap6cn41ArKyvGiQAAXLly5Yqvry/j0HHjxn31lqo3MW/dulWzZs1GjRr9XEncIxcQaGJCKXrPgwwePHj8+PH79u2jdPxyFRQUODk5xcTEVK9enWUuVJxQKMSWPsyEhYVNmTJFTk6O60IAAAA+L8I+atSogIAAlqH37t1btWrVypUrWYYyUFxc7OLiwvixpw4dOvzyyy8sEwEAuPLy5UsnJyfGWxbr6+ubmpp+9cYqNjHT0tIcHBwKCwt9fX179er107VxSUb26QPOLV269OrVqykpKSxDnz59umjRIvYvmEAFnT9/nnyPuK5CVqSmpp49e1aMK94CAAD8DCsrq507dzJeF3vv3r1t27ZlsKAWS97e3klJSYxDpX6BUQCAUrm5uQ4ODuw3rC73NFuVJib5BKZMmZKZmVl6UGdn51mzZknuvS2NGzemHaGoqEg7AvhPRUVl69atI0aMYLncOBETE9OtW7exY8eyDIUKCgkJ4boE2UK+4GhiAgAAT5BpSP/+/U+ePMk4d+nSpQ0bNuzSpQvjXEqio6MZ70hOkC/goEGDGIcCALBXUFAwffp02o8v/5u2tvaoUaP+/fZKNzFLSkqcnZ2Tk5NL/ykUCjdv3nz16tVNmzbVqlXrZ8vkAoN9HtDEhFItWrRYvHjxsmXLGOd6eHgYGxsbGhoyzoXve/bsGePl5+HSpUspKSkGBgZcFwIAAPCZg4MD+yZm6Yx0//79LVu2ZBwtdomJiW5ubuxzsUANAMiCwsLC2bNnkzkU++gJEyYoKyv/++2VbmJ6e3ufPXv2qzeST8nc3HzdunVmZmZVq49DDDqMampqtCNAUtja2l68eJHx1WpeXt6sWbOio6NVVFRY5sL3hYWFMX6CDMgXPCQkRPrWAgMAAAnVqVMnY2Njxpu9Ejk5OXZ2dhERERK9quNff/01ffr0goICxrm6urp4yAkApF5+fv7MmTPPnTvHPlpTU3Py5Mnl/lflmpiHDh3atWtXuf+VmZk5ZcoUGxubRYsWSVaj5OPHj7QjtLS0aEeABPH29r5z586rV69Yhj58+HDFihVr1qxhGQrfQc48Bw8e5LoKWRQVFeXq6qqhocF1IQAAAJ85OTl9a6pGVVZWlrW1dVhYmITej/ngwQM7OzvGm/mUIrN6yZrwAgBU1tu3b6dOnXr9+nVO0kn0t+ZrlWhiXr16dfHixd95B6FQuHfv3oSEBB8fn44dO1auRu68fv2adgSamPClGjVqbNq0iVw1Mt7bKzIy0tTUdNiwYSxD4VuioqJycnK4rkIW5ebmHjp0iJPpIgAAwL/16tWLk5sxq4n6mKWbC5mYmLBP/xnky2Vvb//+/Xv20XXq1LGxsWGfCwDAzP379x0dHZ89e8ZJura29qRJk771vxVtYr548WLmzJmFhYU/fM8nT56MHTvWzs5uwYIFEvEYNYMFSvX09GhHgGTp3Lnz7Nmz2W8avnjxYiMjIwabWcEPBQcHc12C7AoLCyPjokAg4LoQAACAz+bOnTthwgROonNyciZOnOjl5VXu/gn8dOLECRcXl0+fPnGSTq7hlZSUOIkGAGAgMjLSw8OD8XbEX3J2dq5evfq3/rdCTcwPHz44ODi8ffu2gpFCoTA0NPT06dNLly4dOHBgBT+KK+fPn6cdUb9+fdoRIHFK18dNSkpiGUp+l0nuoUOHcO3FrdLtZbiuQnY9ffqUnPl79erFdSEAAACfde/evVu3bgkJCZykFxQUuLq63rt3b+HChTzfj5RMM/38/DZu3MjVquKGhobjxo3jJBoAgLaMjIzFixefOnWKwxqaN29ubW39nXf4cROzpKTEycnp4cOHlc1++fLlzJkzzczMli1b1qRJk8p+OBtZWVkMdgdu1KgR7QiQOHJycps3bzY3N2f8IMzdu3e9vb2XLl3KMhS+EhISwnUJso58C9DEBAAA/liyZMmQIUMYrzX0paCgoOvXr2/ZsqVhw4Zc1fB9ZOI2b948BnO37yDfJnl5eQ4LAACggYw+ERER69ev52Sh4S8tX778+6fZHzcxV69e/TO7EZGPTUhIsLOzmzVrFg+XhgwMDKR9l6xAIGjWrBnVCJBQdevW9fb2njFjBuPc4ODgrl279uvXj3EulEpLSztz5gzXVcg6MgV6+vQpb19gAwAAWdO8efPx48eHh4dzWMOtW7cGDx68cOFCW1tbDsso1/Hjx5cuXZqZmclhDX369OnRoweHBQAA0HD69Ol169ZV4c5FsbOwsOjSpcv33+cHTczIyMg9e/b8ZB2FhYXkIIcOHZo2bdqkSZP4s1Am+Sbt3r2bdkrjxo1VVVVpp4CEGjBggI2NDeMLVqFQ6OrqevTo0Xr16rHMhVJhYWEc3mcBpUp3oluyZAnXhQAAAPzX3LlzyeXZu3fvOKzh48ePy5Yti4qK8vT0bNWqFYeVlElNTSXFcPt4I0EmdB4eHtzWAAAgRmRCdPLkye3bt9+9e5frWj7T1tYmA9AP3+17TczExMSKHKKCsrOz169fHxQUNGPGDGtra877eu/fvyeVVGSrop9kZGREOwIk2pIlS5KSkpKTk1mGkp9/Z2fn/fv344kYxvLy8iIjI2mnLF68eMiQIbRT6CHj6LRp02inHDx40MXFhT+vqwEAgIwj8zdyWTh//nyuC/m897eFhcW4cePI5WLt2rW5KiMnJycgIIDBk3MVQa4ZGjRowHUVAABi8ObNm99//z0iIiI1NZXrWv6Ph4cHGQd/+G7fbGI+f/68gtuRV0pmZqaXl9eOHTvs7e3t7Ow0NDTEe/yKlzFx4sQnT54wyPr1118ZpIDkUlZW3rp1K7lSZHx9du3atY0bN7q6urIMhejoaNqroKqrq48fP16ie3N6enoGBga09z4iU6OoqCgbGxuqKQAAABU3cuTII0eOXLx4ketCPq+Ptm/fvtKBcurUqYxbme/evQsNDQ0ODub2vtQyRkZGkydP5roKAICfkpGRcfbs2aNHjyYkJPDt0UBzc/OhQ4dW5D3Lb2KSqd2UKVPojRlZWVnr16/fvn27paWlnZ1dixYtKAWV68aNG05OTmlpaWziOnfuzCYIJJehoeHSpUvZP9nq7+/ftWvX7t27M86VZeSKnHYEOa9KdAezlK2t7YoVK2inkNkRmpgAAMArq1evHjx4cG5uLteFfJaXlxcYGBgWFjZ8+HAya2vTpg3txPv370dERBw+fPjTp0+0sypIWVl53bp1cnJyXBcCAFBpGRkZt2/fTkxMvHz58l9//SUUCrmuqBwNGjRYs2ZNBd+5nCZm6XbktG+BIcjItE+kXbt2ZFwcOnSorq4u1cTs7OzNmzeTYbi4uJhqUJn69esbGhqyyQKJZm1tnZCQcOzYMZah5BTm4uISFxdH+1cPSl29epVcmtNOIT9LtCMYGDlypI+PD+0JDBnpLl26ZGpqSjUFAACg4shczsPDg1fPyhQUFBwUad26tYWFxZAhQ8S+rvrLly+PHj0aExPDk6XZvuTu7o4JHQDwVmFhYXFx8YcPH7JF/vnnn1evXj1//vzJkydk7vn69WuuC/wBeXl5X1/fij+lXU4T08vLKz4+XqxV/cAtkVWrVnXq1Km3yC+//CLeiLS0tHCRnJwc8R75+8jnwjIOJNqaNWtu377N7B7hUhkZGXPmzAkLCxMIBCxzZROD2zA7duzI+N52SsgwNmzYsAMHDtAOCgkJQRMTAAB4ZdSoUefPn4+JieG6kK/9JUIuWcnFhpmZWefOnTt06KCpqVm1o719+/bGjRtXr149d+4c49XhK458mhMmTOC6ChCz06dP6+vrc10FXbGxsTzZmwu+EinCdRU84u7ubmxsXPH3/7qJGRERERQUJNaSKqqkpOSqiLe3t5aWVqdOncig2Lp165YtW1btNrHi4uIHDx5cuHDh7Nmz165d4+S+WYneWwMYI5eAmzdvtrKyYnancKlLly75+fn99ttvLENlUHp6+okTJ2inSNPD0eRzYdDEPHPmTFpaWv369WkHAQAAVNyqVatu3rz54sULrgsp3wMRf39/gUDQoEGD5s2bN23alAym9erV0xZRV1dXVFSUl5cnl7WFhYU5OTnv37/PzMwkY25qauqjR4+Sk5NfvXrFzwcby+jp6a1bt47rKgAApNbIkSPt7e0r9SH/08S8cuWKh4eHOCuqqnfv3p0WKf0nGQgbN27cQIT8vaaImpqaooicnBwZGvPz87Ozs8kHkuGQDI0pKSn379/Py8vj8LMgozgWxIRK6dixo5OT06ZNmxjnbt682cTEpFOnToxzZUp4eDjt9rSWlpa5uTnVCJbaity5c4dqSklJSVhY2MKFC6mmAAAAVIqGhoa/v/+oUaO4nc78kFAofCHCdSHiR6aZfn5+Ojo6XBcCACCd2rVrt3r16sp+1P81MZ89e+bo6FhUVCTWqsQjS+TGjRtcF1I5Y8aMwSO6UFm//fbb5cuXr1y5wjK0uLjYyckpLi5OS0uLZa7sKCgo2LdvH+0Ucs5RUlKincKSjY0Ng/ZiZGTknDlzVFRUaAcBAABUXMuWLcnszsXFhetCZNSyZcvat2/PdRUAANKpUaNGu3btqsLs9b9NzJycHAcHB3rbkcsgRUVF6dheAxiTk5PbuHGjubk549/H9PR0V1dXch5hGSo7YmNjs7KyqEYIBILx48dTjWBv2LBhXl5etNcyfv/+fXR09Lhx46imAAAAVJalpeVff/0VGBjIdSEyx0aE6yoAAKSTjo5OSEhI1daN/NzELC4unjVrFoPtyGWKhYVFrVq1uK4CJJKenp63t/eMGTMYrxN05syZoKCgyZMnswyVEeQcTTuiW7duTZo0oZ3CmKqq6siRIxl89UgEmpgAAMBDixYtevny5bFjx7guRIaYmTID6TcAAA/ZSURBVJnxZI01AADpo6GhERQU1Lhx46p9+Ocm5qpVqy5cuCDWqmSdvLw8tkmBn9G/f387OzsGm1l/Ze3atR07djQyMmKcK91u3rxJe2HHatK1pc+XrK2tGTQxHzx4cPXqVaxiDAAAfCMQCDZt2vTmzZs///yT61pkQuvWrbdt20Zmc1wXAgAghTQ0NMjkrk2bNlU+gkJERASD+aGsGTFihPTdEgWMLVq06OrVqw8ePGAZWlhY6OTkFBsbq66uzjJXugUHB9OOqF27dt++fWmncMLQ0LBz587kd4F2EBkK0cQEAAAeUlJS2r17t7W19b1797iuRcoZGBiQyzY1NTWuCwEAkEKlHcyfXG5YQU9Pj5ymP378KK6ygHw958+fz3UVIPHIBevWrVuHDRvGeFfK58+fu7u7k2iWoVIsIyODwSNgVlZWCgoKP34/yWRjY8OgiXny5Mn09HQyJtIOAgAAqCxNTc3Q0NDx48c/fPiQ61qkVoMGDcLCwrAdOQAADdra2kFBQW3btv3J4yj06dPnwIED9vb2r1+/FktlMGvWrNq1a3NdBUgDAwOD5cuXu7u7M849evSoqamp9O0Sw4mIiIjCwkKqEXJyctK9nuPAgQPJmEd7Z6Ti4uK9e/fiJSgAAOAnMhSGh4dbWVk9fvyY61qkUN26dcmXF69lAgDQ0KBBg5CQkKZNm/78oT7fudOqVasjR47Y29szfnBVKrVs2dLBwYHrKkB6jBs3LiEhITY2lnHuypUrO3To0Lx5c8a5UqawsJBcENNO6du3L7nypp3CISUlpbFjx/r7+9MO2r9/v5OTE4mjHQQAAFAFurq6ZKiaMGECZm3i1ahRI3LBVr9+fa4LAQCQQq1atQoKChLXxtf/ffxQT0/v4MGDbm5ucXFxYjmubFJUVPTx8ZHihzqBE15eXjdv3kxNTWUZmp+fP2vWrJiYGBUVFZa5Uub48eNv3ryhnWJtbU07gnPjx48PCAgQCoVUU7KyssjP/KhRo6imAAAAVFlpH3Py5Mk3btzguhYpYWBgEB4ejgfpAABoGDx48Pr161VVVcV1wP9rt1WvXn3btm27du3y8fEpLi4WV4BMmTdvXuvWrbmuAqSNhoaGr6/v2LFjGf9ipqSkLF++3Nvbm2WolGGwpU+DBg169uxJO4VzDRs2JJ9mfHw87aDQ0FA0MQEAgM80NTX37t07a9asP/74g+taJF6HDh3I/LdmzZpcFwIAIG0EAsHcuXPJaCXew359z+DUqVONjIycnJwY3D0kZXr37j1t2jSuqwDpZGxsTH7/169fzzj34MGDpqamw4cPZ5wrHe7evcvgLglra2syPNBO4QPymTJoYt65c4d818hvHO0gAACAKlNVVd21a9fq1av37NnDdS0SbMiQIRs2bMAyMgAAYqerq7t+/Xoad9uU8+CziYlJXFycm5vb2bNnxZ4nrQwMDDZv3sx1FSDNZs6cmZCQcPnyZca5S5YsadeuXZMmTRjnSoGQkBDaEYqKimPGjKGdwhN9+vTR09NLT0+nHUS+cWhiAgAAz8nJyZGLNDIH8fDwoL2FoPQRCAQzZsxwdXXluhAAACnUrVu3TZs26erq0jh4+as36ujo7N69OzQ0dM2aNfn5+TSCpUmtWrUCAwM1NDS4LgSkGbnYIieCwYMHv337lmVubm7urFmzDh8+jJepKyUrK4vBdkyDBg0ip2vaKTwhLy9vZWXF4OWiY8eOLV68WFwrTwMAANAzfvz45s2bk0s1Bi/ySQ0ya/Px8Rk4cCDXhQAASBtlZeV58+ZNmTKF3sOC39uCZsKECaampm5ublg3+js0NTVDQkIaNWrEdSEg/WrXrr1u3bqpU6fS3t7kK/fu3Vu9erWHhwfLUEm3f/9+Bq8AycKWPl8aN27c1q1baS8OW1hYuG/fPicnJ6opAAAAYtGhQ4fY2FhnZ+eEhASua5EALVq08PPzwzNGAABiR8YjHx8ffX19qik/2Ee7WbNmhw4dCgkJ2bBhQ25uLtVSJJGWllZoaCgZC7kuBGRFnz59Jk2aFBQUxDg3LCzM1NR0wIABjHMlVHFxcXh4OO0UAwMDExMT2im8UqdOnX79+p04cYJ2EPn2zZw5U1FRkXYQAADAz9PW1ibztZ07d27evLmgoIDrcnhKIBBMnDjRzc1NWVmZ61oAAKSKpqbmnDlzyDmWwW4NP2hiVhOd7idNmjRo0KDly5efOnWKdkESpHbt2sHBwehgAmPk2isxMfHevXssQ4VC4YIFC1q3bl2/fn2WuRLq5MmTr169op1iY2NDO4KHyGfNoIn55s2b48ePDxs2jHYQAACAWMjJyc2YMcPMzGzevHn379/nuhzeIRM3Hx8fGltMAADIMoFAMHbsWFdXV21tbTaJP25iltLT0wsICLhw4cKqVasePnxItSaJ0KJFi8DAwLp163JdCMgcJSWlLVu2WFhYfPz4kWVudna2k5NTZGSkgkJFzxsyKzQ0lHaEiorKqFGjaKfwULdu3Ro3bvzs2TPaQcHBwWhiAgCAZCEzlCNHjvj5+e3YsQO3ZJYiE2xyybRo0SItLS2uawEAkCql60+2bduWZWjlmhE9evSIi4vbt2/fpk2bGO8uwitDhgxZu3Zt9erVuS4EZJS+vr6Hh8eCBQsY5964cWPjxo3scyXLgwcPEhMTaacMGzZMNjcTI1OR8ePHkzMw7SDy03737t02bdrQDgIAABAjRUVFZ2dncp2wZMmSK1eucF0Ox8g1s5eXl6wtvwMAQFvbtm0XLFjQrVs39tGVvqNKXl7e1tbW0tIyODg4MDDw/fv3NMriLWVl5UWLFtnZ2XFdCMi60aNHX7hwISYmhnFuQEBAly5d8DDOdzC4DbOarD5LXmrMmDEbN25kcINJSEjIunXraKcAAACInb6+fkRERHR0NBnIXr58yXU5HFBXV3d0dLS3t1dSUuK6FgAA6dGhQwdydu3Tpw9XBVTxsVAyKsyaNWvSpEl7RLKzs8VbFj8ZGRlt2LDBwMCA60IAPvPy8rp58+aLFy9YhgqFwnnz5sXFxdWqVYtlrqR4//79kSNHaKe0bduWnI5op/BWzZo1Bw8eTCZmtINiY2Pd3d2ZLe8CAAAgXsOHDycjJpms+fn5ffjwgetyGJGTkxs/fvycOXN0dHS4rgUAQEoIBIKePXvOmDGD83vbf2ptO3V1dScnJwcHhwMHDgQFBTFuprBEPlMXF5cJEyaQQZHrWgD+i/xY+vr6jh07tqioiGVuZmams7Pz3r178evwb+RkmJeXRzvF2tqadgTP2djYMGhi5ufn79+/39HRkXYQAAAAJUpKSmTOSS4XAwICyMXbp0+fuK6IIjLHHjp06OzZs5s1a8Z1LQAAUkJDQ2PUqFG2trb6+vpc1/KZGDboUFNTmzRp0oQJE06cOBESEpKUlCQUCn/+sDwhLy9PRv05c+bgvjPgofbt27u4uPj4+DDOvXLlyrZt25ycnBjn8lxJSUlYWBjtFDKKWFhY0E7huU6dOv3yyy/Jycm0g8h8b/r06WQgoB0EAABAj7a2tru7+7Rp03bu3CmVrUw5ObkhQ4agfQkAIC4CgaBLly6Wlpbk7KqmpsZ1Of9HbLsMk5FjsMjjx49/F3n9+rW4Ds4J8hmVvpSH58eBz6ZPn37p0qWLFy8yzt2yZQs5qXXu3JlxLp+dPXs2NTWVdsqIESNUVVVpp/CfjY3N8uXLaaekp6efPHmSDG20gwAAAGjT0dFxd3d3dHQMDw8PDQ2V9MlaKXV19bFjx06cOLFhw4Zc1wIAIPEEAkGbNm0GDRo0fPjwevXqcV1OOcTWxCyjr6/v6urq4uJy/vz5o0ePnj59WuJWzFRWVh45cuSUKVN4crsswHeQs8yGDRvMzc0zMzNZ5paUlDg7O8fFxdWsWZNlLp+FhIQwSJHlLX2+NGLECG9v748fP9IOItM8NDEBAEBq1KhRw9HRcerUqbGxseHh4devX+e6oioyMDCwsrIaO3ashoYG17UAAEg2FRWVX3/9tW/fvv37969bty7X5XyP+JuYpeTl5XuLFBYWJiQkxMXFnT17Nisri1KcuJCxcPTo0WQsRF8GJEitWrXWr19vb2/PeCWHf/75Z/78+YGBgSxDeSslJeXSpUu0U8jQYmhoSDtFIqirq1tYWOzfv592UGJi4oMHD1q0aEE7CAAAgBlFRcURIo8ePYqMjIyKiuL/TK2UmprakCFDxo0b16FDB65rAQCQYOR0amRkZGJi0rVrV2NjYzIucF1RhdBqYpYhXwgzEaFQePv27T9E7t69y6t1M+vVqzd48GAyHLZv357rWgCqolevXvb29uz7ieTXeffu3Q4ODoxzeSgkJITBaQ23YX6JfDUYNDGrib65a9asYRAEAADAWLNmzRYvXuzm5nb58uXjx4+fOHGCn91MdXX1Pn36kCkbuehVUVHhuhwAAMlTq1YtAwMDQ0NDIyOjdu3a6evrS+JWvdSbmGUEAkE7kTlz5uTk5Fy7di0pKSkxMfHu3bsFBQXMyiijoKDQtm1bMgr27t2b/IV9AQDitWDBgtJfKMa569at+/XXX8mvNuNcXiHntKioKNop2tragwYNop0iQVq3bk1+8G7dukU7KDo6euHChTVq1KAdBAAAwAkyM+oh4unp+eeff168ePHChQt37twpKSnhsCoyf2zevHm3bt26d+/etWtXJSUlDosBAOA5OTk5dXV1TU1NMm3R0tIik8d69erVFmnYsKG+vj75X65rFAN2TcwvaWholN6eSf5eWFiYnJx8+/bteyIpKSn01tAk37w2Ih1FeLXFEnxfq1atGLQqJPq3WlFR8dChQ/n5+eyjcU1JTiYMniWXl5fHl/or+/fvZ/MyGMaLyjI3N+/Tpw/XVQD8Dxsbm9GjR1ONEAgEVI8PQBuZA3cWcXFxIZOyxMTEmzdv3rhxg0zWGKxDXU20OUHbtm2NjY3btWtHytDV1WUQCryycuXKpUuXcl2FxKtevTrXJUikbdu2FRUVcV1F5SgqKpJ5ooKCgoxchHDTxPwS+Yq3Fil7S2Zm5pMnT54+ffry5ct//vnnlUhWVhYZRyvYoFFXV69ZsyYZ8xo0aFCvXr2GDRs2a9bM0NAQK11KLnJFhUW7f0hJhOsqZBEZNvDzyQllEa6rgHIoinBdBcD/wCgJUCmampr9RaqJdnRMSUlJTk5+JPL48eO0tLSfv/WkevXqZLKmr69PZmql8zWCTMXFUT5IKhURrqsAGaWqqsp1CfADfBwhdEQ6der07/8qKCh49+5dbm5uoUhRUVFxcXFp15n8SUZBNTU1DQ0NXKECAAAAAACIhZycXGmH8cs3kklZWlpaenr6O5Hs7OycnJx8kdLJmlAoJPOy0pe1VFRUNP+/mjVr1qlTp379+ngNGAAAKuX/AXYXV89W33dTAAAAAElFTkSuQmCC;" parent="1" vertex="1">
                    <mxGeometry x="147" y="230" width="100" height="50" as="geometry"/>
                </mxCell>
                <mxCell id="HWHSqS2P6HCf4RbeMcaz-17" style="edgeStyle=orthogonalEdgeStyle;rounded=0;orthogonalLoop=1;jettySize=auto;html=1;entryX=0.5;entryY=0;entryDx=0;entryDy=0;fontColor=#007FFF;endArrow=classic;endFill=1;startArrow=classic;startFill=1;" parent="1" target="ekPZyuRq7W89Y46g-SNz-2" edge="1">
                    <mxGeometry relative="1" as="geometry">
                        <mxPoint x="55" y="140" as="sourcePoint"/>
                    </mxGeometry>
                </mxCell>
                <mxCell id="-kEWRbQdguksYZ6EH8o2-9" value="" style="shape=image;verticalLabelPosition=bottom;verticalAlign=top;imageAspect=0;aspect=fixed;image=data:image/svg+xml,PHN2ZyB4bWxucz0iaHR0cDovL3d3dy53My5vcmcvMjAwMC9zdmciIHJvbGU9ImltZyIgdmlld0JveD0iLTUuMzUgLTQuMzUgMzY3LjIwIDQ2MC4yMCI+PHN0eWxlPnN2ZyB7ZW5hYmxlLWJhY2tncm91bmQ6bmV3IDAgMCAzNTcgNDUzfTwvc3R5bGU+PHN0eWxlPi5zdDV7ZmlsbDojZmZmfTwvc3R5bGU+PGVsbGlwc2UgaWQ9Ik92YWwtOC1Db3B5LTEwIiBjeD0iMTc5LjUyNCIgY3k9IjQzOC4xMTgiIGZpbGw9IiNlNGU0ZTQiIHJ4PSI3OC4zMyIgcnk9IjkuMzYxIi8+PHBhdGggaWQ9IkNvbWJpbmVkLVNoYXBlLUNvcHktMTMiIGQ9Ik03MC4wODIgMjc0LjEyNmwtMTcuMDctMjIuNzE1IDMuNzE3LTIuNzUzTDcxLjg3IDI2OC42MmwxLjY1Mi01LjIzLTE0LjQ1NC0xOS4xMzYgMy43MTctMi43NTMgMTIuMzkgMTYuNTIgMS42NTEtNS4yMzItMTEuODM5LTE1LjU1NiAzLjcxNy0yLjc1MyA5Ljc3NCAxMi45NCA2Ljg4My0yMS44ODhTNjIuNTEgMTg2Ljg0OCA1Ny44MyAxNzcuNDg3Yy03LjcxLTE1Ljk3LTU1LjIwMy0yLjQ3OC01My45NjQgMjYuNDMgMS4yNCAyOC40OTcgNTkuMTk1IDkzLjA2IDU5LjE5NSA5My4wNmw3LjAyLTIyLjg1MXoiLz48cGF0aCBpZD0iQ29tYmluZWQtU2hhcGUtQ29weS0xNCIgZD0iTTI4Ny4wMzggMjYwLjA4NGwxNy4wNy0yMi43MTQtMy43MTYtMi43NTMtMTUuMTQzIDE5Ljk2LTEuNjUyLTUuMjMgMTQuNDU0LTE5LjEzNi0zLjcxNy0yLjc1My0xMi4zOSAxNi41Mi0xLjY1MS01LjIzMSAxMS44MzktMTUuNTU2LTMuNzE3LTIuNzU0LTkuNzc0IDEyLjk0LTYuODgzLTIxLjg4OHMyMi44NTItMzguNjgzIDI3LjUzMi00OC4wNDRjNy43MS0xNS45NjkgNTUuMjAzLTIuNDc4IDUzLjk2NCAyNi40MzFzLTU5LjE5NSA5My4wNi01OS4xOTUgOTMuMDZsLTcuMDItMjIuODUyeiIvPjxnIGlkPSJHcm91cC0xMi1Db3B5LTgiIHRyYW5zZm9ybT0idHJhbnNsYXRlKDYwIDE2NCkiPjxwYXRoIGlkPSJMaW5lLUNvcHktMTgiIGQ9Ik03Ni4yOTggMjI3LjcyNmMtMS41MTUgMC0yLjc1NCAxLjM3Ny0yLjc1NCAyLjg5MWwxLjEwMiAzMi42MjZjMCAxLjUxNCAxLjM3NiAyLjc1MyAyLjg5IDIuNzUzbDEzLjA3OS0uNDEzYzEuNTE0IDAgMi43NTMtMS4zNzYgMi43NTMtMi44OWwtMS4xMDItMzIuNjI3YzAtMS41MTQtMS4zNzYtMi43NTMtMi44OS0yLjc1M2wtMTMuMDc4LjQxM3oiLz48cGF0aCBpZD0iUmVjdGFuZ2xlLTctQ29weS0xNSIgZD0iTTU3LjU3NSAyNjcuNjQ4YzAtMi44OSAyLjM0LTUuMjMgNS4yMzItNS4yM2gyNC43NzljMi44OSAwIDUuMjMxIDIuMzQgNS4yMzEgNC40MDR2LTQuNDA1YzAgMi40NzgtMi4zNCA0LjgxOC01LjA5MyA1LjIzMWwtMTIuNjY1IDIuMDY1LTEyLjI1MiAyLjg5MWMtMi43NTQuNjg4LTUuMDk0LTEuMTAxLTUuMDk0LTMuOTkydi0uOTY0aC0uMTM4eiIvPjwvZz48ZyBpZD0iR3JvdXAtMTItQ29weS05IiB0cmFuc2Zvcm09Im1hdHJpeCgtMSAwIDAgMSAxMTUgMTY0KSI+PHBhdGggaWQ9IkxpbmUtQ29weS0xOF8xXyIgZD0iTS0xMTIuMjkzIDIyNy43MjZjLTEuNTE0IDAtMi43NTMgMS4zNzctMi43NTMgMi44OTFsMS4xMDEgMzIuNjI2YzAgMS41MTQgMS4zNzcgMi43NTMgMi44OTEgMi43NTNsMTMuMDc4LS40MTNjMS41MTUgMCAyLjc1NC0xLjM3NiAyLjc1NC0yLjg5bC0xLjEwMi0zMi42MjdjMC0xLjUxNC0xLjM3Ni0yLjc1My0yLjg5LTIuNzUzbC0xMy4wNzkuNDEzeiIvPjxwYXRoIGlkPSJSZWN0YW5nbGUtNy1Db3B5LTE1XzFfIiBkPSJNLTEzMS4xNTIgMjY3LjY0OGMwLTIuODkgMi4zNC01LjIzIDUuMjMtNS4yM2gyNC43OGMyLjg5MSAwIDUuMjMxIDIuMzQgNS4yMzEgNC40MDR2LTQuNDA1YzAgMi40NzgtMi4zNCA0LjgxOC01LjA5MyA1LjIzMWwtMTIuNjY1IDIuMDY1LTEyLjI1MiAyLjg5MWMtMi43NTMuNjg4LTUuMDk0LTEuMTAxLTUuMDk0LTMuOTkydi0uOTY0aC0uMTM3eiIvPjwvZz48cGF0aCBpZD0iUmVjdGFuZ2xlLTItQ29weS0xNiIgZD0iTTUzLjAxMiAxMzAuNDA2QzQ0Ljc1MiA2MS4wMjQgOTQuNzIzIDQuNzIgMTY0LjY1NiA0LjcyaDI3LjM5NWM2OS45MzMgMCAxMTkuOTA0IDU2LjMwNCAxMTEuNjQ0IDEyNS42ODZsLTI1Ljc0MiAyMTUuOTkzYy0zLjMwNCAyOC4yMi0yOS4wNDcgNTEuMDczLTU3LjU0MyA1MS4wNzNoLTg0LjI1Yy0yOC4zNTkgMC01NC4xMDEtMjIuODUyLTU3LjU0My01MS4wNzNMNTMuMDEyIDEzMC40MDZ6Ii8+PHBhdGggaWQ9IkxpbmUtQ29weS0zIiBmaWxsPSJub25lIiBzdHJva2U9IiM0YTRhNGEiIHN0cm9rZS1saW5lY2FwPSJzcXVhcmUiIHN0cm9rZS13aWR0aD0iMTIiIGQ9Ik0xODAuNjI1IDQ3Ljk0NlYxNC4wODEiLz48ZyBpZD0iR3JvdXAtMi1Db3B5IiB0cmFuc2Zvcm09InRyYW5zbGF0ZSgwIDIzKSI+PHJhZGlhbEdyYWRpZW50IGlkPSJTaGFwZV8xXyIgY3g9Ii03NTcuMDE2IiBjeT0iNTU3LjIzOSIgcj0iMy43MjMiIGdyYWRpZW50VHJhbnNmb3JtPSJtYXRyaXgoLTM4LjcyODcgNDUuMDk5OSAtNDUuMSAtMzguNzI4NiAtNDAwNi44NTQgNTU3OTIuOTU3KSIgZ3JhZGllbnRVbml0cz0idXNlclNwYWNlT25Vc2UiPjxzdG9wIG9mZnNldD0iMCIgc3RvcC1jb2xvcj0iIzdmN2Y3ZiIvPjxzdG9wIG9mZnNldD0iMSIvPjwvcmFkaWFsR3JhZGllbnQ+PHBhdGggaWQ9IlNoYXBlIiBmaWxsPSJ1cmwoI1NoYXBlXzFfKSIgc3Ryb2tlPSIjMDAwIiBzdHJva2Utd2lkdGg9IjIiIGQ9Ik03My4xMSA0NC43N2MtMjAuNjQ5IDAtMzcuNDQ0IDE2Ljc5NC0zNy40NDQgMzcuNDQ0djY4LjQxOGMwIDIwLjY1IDE2LjY1NyAzNS4zOCAzNy4xNyAzMi45MDFsODguNTE2LTEwLjg3NWMxMC4xODctMS4yMzkgMjYuODQ0LTEuMjM5IDM3LjE3IDBsODguNTE2IDEwLjg3NWMyMC41MTIgMi40NzggMzcuMTctMTIuMjUyIDM3LjE3LTMyLjl2LTY4LjQyYzAtMjAuNjQ5LTE2Ljc5Ni0zNy40NDQtMzcuNDQ1LTM3LjQ0NEg3My4xMXoiLz48ZWxsaXBzZSBpZD0iT3ZhbC05IiBjeD0iNjAuOTk2IiBjeT0iNzIuNDQiIGZpbGw9IiM4MGZmMDAiIHJ4PSI2LjYwOCIgcnk9IjYuNzQ1Ii8+PC9nPjxwYXRoIGlkPSJSZWN0YW5nbGUtMi1Db3B5LTE3IiBmaWxsPSIjY2YwMDE5IiBkPSJNNzAuNzcgMjkyLjcxczMyLjM1IDI1LjQ2OCA5Ni41MDIgMjEuMmM2NC4wMTMtNC40MDUgMTE5LjYyOS0zNS42NTQgMTE5LjYyOS0zNS42NTRzNy40MzMgMzMuODY1IDUuMjMgNTQuNjUyYy0yLjIwMiAyMC43ODctNS43ODEgMjQuNTA0LTUuNzgxIDI0LjUwNC01LjA5NCAxMy4yMTUtMTkuODI0IDI4LjYzNC0zMi43NjQgMzQuNDE1bC0xLjM3Ni41NTEtMTAuMDUgMjAuMjM2Yy0xLjEwMSAyLjM0LTQuMTMgMy45OTMtNi43NDUgMy41OGwtMjguMzU5LTMuNThjLTIuNjE1LS4yNzUtNS42NDQtMi40NzctNi44ODMtNC42OGwtMy4zMDQtNS45MmMtMS4yMzktMi4yMDItNC40MDUtMy45OTItNy4wMi0zLjk5MmgtMTMuNzY3Yy0yLjYxNSAwLTUuOTIgMS42NTItNy41NzEgMy43MTdsLTUuMjMyIDYuNjA4Yy0xLjY1MSAyLjA2NS00Ljk1NSAzLjk5Mi03LjU3MSA0LjQwNWwtMjMuNDAzIDMuMzA0Yy0yLjYxNS40MTMtNS41MDYtMS4yMzktNi42MDctMy41OGwtNi4wNTgtMTIuNjY0Yy0xLjEtMi4zNC0zLjk5Mi00Ljk1Ni02LjQ3LTUuNzgybC0xMi4yNTItNC40MDVjLTkuNzc0LTMuNTgtMjAuNzg3LTE0LjE4LTI0LjUwNC0yMy42NzhsLTEuMzc2LTMuNDQyYy01LjIzMS0xMy4yMTUtOC4yNi0zNS4zOC02LjYwOC00OS40MmwyLjM0LTIwLjM3NXoiLz48cGF0aCBpZD0iU1ItNzEtQ29weS0xMSIgZD0iTTIxNS4xNzggMzI2LjNsLS40MTMtMS41MTRjLS40MTMtMS41MTUtLjI3NS0yLjc1NC40MTMtMy43MTcuNjg5LS45NjQgMS42NTItMS43OSAzLjAyOS0yLjIwMy41NS0uMjc1IDEuMjM5LS40MTMgMS43OS0uNTUgMi4yMDItLjU1MSA0LjEzLS44MjYgNS43ODEtLjY4OWwuOTY0IDMuNThjLTEuNTE0LjI3NS0zLjQ0Mi42ODgtNS43ODIgMS4yMzgtLjY4OC4xMzgtMS4xMDEuNDEzLTEuMzc2LjU1MS0uMjc2LjEzOC0uMjc2LjU1LS4xMzguOTY0bC4xMzguMjc1Yy4xMzcuNDEzLjI3NS42ODguNTUuODI2cy42ODguMTM4IDEuMjQgMGwyLjIwMi0uNTVjMS45MjctLjU1MSAzLjQ0MSAwIDQuNTQzIDEuMzc2LjU1LjY4OC45NjMgMS41MTQgMS4yMzkgMi40NzhsLjI3NS44MjZjLjk2NCAzLjU4LS4xMzggNS43ODItMy40NDIgNi42MDgtMi4zNC42ODgtMy44NTQuOTYzLTQuNTQzIDEuMTAxcy0xLjc5LjEzOC0zLjAyOCAwbC0uOTY0LTMuNThhNDcuMTA5IDQ3LjEwOSAwIDAgMCA2LjE5NS0xLjM3NmMuNTUtLjEzOC44MjYtLjI3NS45NjQtLjU1LjEzNy0uMjc2LjI3NS0uNTUxLjEzNy0uODI2bC0uMTM3LS40MTNjLS4xMzgtLjQxMy0uMjc2LS41NTEtLjQxMy0uNjg5LS4yNzYtLjEzNy0uNTUxLS4xMzctMS4xMDIgMGwtMi4yMDIuNTVhNC41OTYgNC41OTYgMCAwIDEtMi4zNC4xMzljLS42ODktLjEzOC0xLjI0LS4yNzYtMS42NTItLjY4OWE0LjE4OSA0LjE4OSAwIDAgMS0xLjEwMi0xLjEwMWMtLjI3NS0uNTUtLjY4OC0xLjI0LS44MjYtMi4wNjV6bTE3LjM0NiA3LjU3MWwtNC42OC0xNy40ODMgNy44NDYtMi4wNjVjMS42NTItLjQxMyAzLjE2Ni0uNDEzIDQuMjY4LjI3NiAxLjEuNjg4IDIuMDY1IDEuOTI3IDIuNjE1IDMuOTkyLjU1IDEuOTI3LjU1IDMuNDQxLjI3NiA0LjI2N2E3Ljg5NCA3Ljg5NCAwIDAgMC0uNTUxLjk2NGMtLjEzOC4yNzUtLjQxMy40MTMtLjgyNi42ODhsNC44MTggNS43ODItNS4yMzEgMS4zNzctMy44NTUtNS41MDdoLTEuNTE0bDEuNzkgNi40Ny00Ljk1NiAxLjI0em0yLjA2NS0xMS4xNWwyLjYxNS0uNjg5Yy41NTEtLjEzNy44MjYtLjQxMy45NjQtLjY4OC4xMzgtLjI3NSAwLS44MjYtLjEzOC0xLjM3Ny0uMTM3LS42ODgtLjQxMy0xLjEtLjY4OC0xLjIzOC0uMjc1LS4yNzYtLjY4OC0uMjc2LTEuMTAxLS4xMzhsLTIuNjE2LjY4OC45NjQgMy40NDJ6bTEwLjg3NSAyLjM0bC0uOTY0LTMuNzE3IDcuNDM0LTIuMDY1Ljk2NCAzLjcxNy03LjQzNCAyLjA2NXptNi4wNTctMTAuNDYybC0xLjEwMS00LjEzIDExLjQyNi0zLjAyOSAxLjY1MiAxLjUxNC0xLjIzOSAxNy4wNy00Ljk1NiAxLjM3NyAxLjEwMS0xNC41OTItNi44ODMgMS43OXptMTkuODI0LTkuNzc0bDQuNjggMTcuNDgzLTQuNjggMS4yMzktMy40NDItMTMuMDc4LTIuNjE1IDEuMjM5LS44MjYtMi44OTEgMi4zNC0yLjc1MyA0LjU0My0xLjI0eiIgY2xhc3M9InN0NSIvPjxwYXRoIGlkPSJSZWN0YW5nbGUtNC1Db3B5LTciIGZpbGw9IiNmNWE2MjMiIGQ9Ik0xNzUuMjU2IDIwNC4zM2MxLjc5LTEuNzg5IDQuODE4LTEuNzg5IDYuNjA4IDBsMjMuMTI3IDIzLjEyOGMxLjc5IDEuNzkgMi40NzggNS4yMzEgMS4zNzcgNy41NzJsLTI0LjUwNCA1Mi40NWMtMS4xMDEgMi4zNC0yLjg5MSAyLjM0LTQuMTMgMGwtMjYuODQ0LTUyLjQ1Yy0xLjI0LTIuMzQtLjY4OC01LjY0NSAxLjEwMS03LjQzNGwyMy4yNjUtMjMuMjY1eiIvPjxwYXRoIGQ9Ik02NC44NSAxMjYuMjc2aC02LjQ3di00LjQwNWgxOC4wMzR2NC40MDVoLTYuMzMydjE4Ljg2SDY0Ljg1di0xOC44NnptMTUuMTQ0LTQuNDA2aDE0LjU5MnY0LjQwNmgtOS4zNjF2NC42OGg3Ljk4NHY0LjQwNmgtNy45ODR2NS4zNjloOS42MzZ2NC40MDVINzkuOTk0VjEyMS44N3ptMTkuNTQ4IDBoNS4yM3YxOC44Nmg5LjIyNHY0LjQwNkg5OS41NDJWMTIxLjg3em0xOC4zMDggMGgxNC41OTN2NC40MDZoLTkuMzYxdjQuNjhoNy45ODR2NC40MDZoLTcuOTg0djUuMzY5aDkuNjM2djQuNDA1aC0xNC44NjdWMTIxLjg3em0xOS41NDkgMGg4LjUzNWM1LjA5MyAwIDkuMDg2IDEuNzkgOS4wODYgNy40MzUgMCA1LjUwNi00LjEzIDcuODQ2LTkuMDg2IDcuODQ2aC0zLjMwNHY3Ljg0N2gtNS4yM3YtMjMuMTI3em04LjEyMiAxMS4xNTJjMi44OSAwIDQuMjY4LTEuMjQgNC4yNjgtMy43MTcgMC0yLjQ3OC0xLjUxNS0zLjMwNC00LjI2OC0zLjMwNGgtMi44OXY3LjAyaDIuODl6bTI2LjAxOSAxMi4xMTRsLTQuNDA2LTguMzk4aC0yLjg5djguMzk4aC01LjIzMlYxMjEuODdoOC4zOTdjNC45NTYgMCA4Ljk0OCAxLjY1MiA4Ljk0OCA3LjI5NiAwIDMuNDQyLTEuNjUxIDUuNjQ0LTQuMTMgNi43NDZsNS4yMzIgOS4zNmgtNS45MnYtLjEzN3ptLTcuMjk3LTEyLjUyN2gyLjYxNmMyLjc1MyAwIDQuMjY3LTEuMjQgNC4yNjctMy40NDIgMC0yLjM0LTEuNTE0LTMuMDI5LTQuMjY3LTMuMDI5aC0yLjYxNnY2LjQ3ek0xODAuOSAxMjEuODdoMTQuNTkzdjQuNDA2aC05LjM2MXY0LjY4aDcuOTg0djQuNDA2aC03Ljk4NHY1LjM2OWg5LjYzNnY0LjQwNWgtMTUuMDA1VjEyMS44N2guMTM3em0yMC45MjUgMTYuNzk2YzEuNjUyIDEuMzc2IDMuNzE3IDIuNDc4IDUuNjQ0IDIuNDc4IDIuMjAzIDAgMy4zMDQtLjgyNiAzLjMwNC0yLjIwMyAwLTEuNTE0LTEuMzc3LTEuOTI3LTMuMzA0LTIuNzUzbC0zLjAyOC0xLjI0Yy0yLjQ3OC0uOTYzLTQuNjgtMy4wMjgtNC42OC02LjMzMiAwLTMuODU0IDMuNDQtNi44ODMgOC4yNTktNi44ODMgMi42MTUgMCA1LjUwNiAxLjEwMiA3LjQzNCAzLjAyOWwtMi42MTYgMy4zMDRjLTEuNTE0LTEuMjQtMy4wMjktMS43OS00LjgxOC0xLjc5LTEuNzkgMC0yLjg5MS44MjYtMi44OTEgMi4wNjUgMCAxLjM3NyAxLjUxNCAxLjkyNyAzLjU4IDIuNzUzbDMuMDI4IDEuMjRjMi43NTMgMS4xIDQuNTQzIDMuMDI4IDQuNTQzIDYuMzMyIDAgMy44NTQtMy4xNjcgNy4xNTgtOC42NzMgNy4xNThhMTMuMTUzIDEzLjE1MyAwIDAgMS04LjY3My0zLjMwNGwyLjg5MS0zLjg1NHptMTguMzA5LTE2Ljc5NmgxNC41OTJ2NC40MDZoLTkuMzZ2NC42OGg3Ljk4NHY0LjQwNmgtNy45ODV2NS4zNjloOS42Mzd2NC40MDVoLTE1LjAwNVYxMjEuODdoLjEzN3ptMTkuNDExIDBoNS4zNjhsNi4wNTggMTEuNTY1IDIuMzQgNS4wOTNoLjEzOGMtLjI3Ni0yLjQ3OC0uNjg5LTUuNzgyLS42ODktOC41MzV2LTguMjZoNC45NTZ2MjMuMjY1aC01LjM2OWwtNi4wNTctMTEuNTYzLTIuMzQtNS4wOTRoLS4xMzhjLjI3NSAyLjYxNi42ODggNS42NDQuNjg4IDguMzk3djguMjZoLTUuMDkzdi0yMy4xMjdoLjEzOHptMzMuNTg5LS40MTJjMi44OTEgMCA1LjM3IDEuMzc3IDYuODgzIDMuMDI5bC0yLjg5IDMuMzAzYy0xLjI0LTEuMS0yLjM0LTEuNzktMy45OTMtMS43OS0zLjMwNCAwLTUuNzgyIDIuNzU0LTUuNzgyIDcuNDM1IDAgNC44MTggMi4yMDMgNy41NzEgNS42NDUgNy41NzEgMS45MjcgMCAzLjMwNC0uODI2IDQuNDA1LTIuMDY1bDIuODkgMy4xNjZjLTEuOTI2IDIuMjAzLTQuNTQyIDMuNDQyLTcuNDMzIDMuNDQyLTYuMDU3IDAtMTEuMDEzLTQuMTMtMTEuMDEzLTExLjk3Ny4yNzUtNy41NzEgNS4zNjktMTIuMTE0IDExLjI4OC0xMi4xMTR6bTEwLjczOC40MTJoMTQuNTkydjQuNDA2aC05LjM2djQuNjhoNy45ODR2NC40MDZoLTcuOTg1djUuMzY5aDkuNjM3djQuNDA1aC0xNS4wMDZWMTIxLjg3aC4xMzh6IiBjbGFzcz0ic3Q1Ii8+PC9zdmc+" parent="1" vertex="1">
                    <mxGeometry x="167.08" y="320" width="55.84" height="70" as="geometry"/>
                </mxCell>
                <mxCell id="ekPZyuRq7W89Y46g-SNz-6" style="edgeStyle=orthogonalEdgeStyle;rounded=0;orthogonalLoop=1;jettySize=auto;html=1;entryX=0;entryY=0.476;entryDx=0;entryDy=0;entryPerimeter=0;" parent="1" source="ekPZyuRq7W89Y46g-SNz-2" target="HWHSqS2P6HCf4RbeMcaz-11" edge="1">
                    <mxGeometry relative="1" as="geometry"/>
                </mxCell>
                <mxCell id="ekPZyuRq7W89Y46g-SNz-2" value="source&lt;br&gt;code" style="rounded=1;whiteSpace=wrap;html=1;strokeColor=#7EA6E0;strokeWidth=2;fontColor=#007FFF;fontStyle=1" parent="1" vertex="1">
                    <mxGeometry x="10" y="273.75" width="90" height="60.75" as="geometry"/>
                </mxCell>
                <mxCell id="ekPZyuRq7W89Y46g-SNz-4" style="edgeStyle=orthogonalEdgeStyle;rounded=0;orthogonalLoop=1;jettySize=auto;html=1;entryX=0;entryY=0.5;entryDx=0;entryDy=0;exitX=0.9;exitY=0.5;exitDx=0;exitDy=0;exitPerimeter=0;" parent="1" source="HWHSqS2P6HCf4RbeMcaz-8" target="ekPZyuRq7W89Y46g-SNz-2" edge="1">
                    <mxGeometry relative="1" as="geometry">
                        <mxPoint x="-60" y="304.5" as="sourcePoint"/>
                    </mxGeometry>
                </mxCell>
                <mxCell id="ekPZyuRq7W89Y46g-SNz-9" value="" style="group" parent="1" vertex="1" connectable="0">
                    <mxGeometry x="300" y="190" width="100" height="227.5" as="geometry"/>
                </mxCell>
                <mxCell id="ekPZyuRq7W89Y46g-SNz-7" value="" style="fillColor=none;strokeColor=#5A6C86;dashed=1;verticalAlign=top;fontStyle=0;fontColor=#5A6C86;" parent="ekPZyuRq7W89Y46g-SNz-9" vertex="1">
                    <mxGeometry width="100" height="227.50000000000003" as="geometry"/>
                </mxCell>
                <mxCell id="-kEWRbQdguksYZ6EH8o2-7" value="" style="shape=image;verticalLabelPosition=bottom;verticalAlign=top;imageAspect=0;image=data:image/svg+xml,PHN2ZyB4bWxucz0iaHR0cDovL3d3dy53My5vcmcvMjAwMC9zdmciIHJvbGU9ImltZyIgdmlld0JveD0iLTYuNDkgLTYuNzQgMzE2LjQ5IDM2My43NCI+PG1hc2sgaWQ9ImEiIGZpbGw9IiNmZmYiPjxwYXRoIGZpbGwtcnVsZT0iZXZlbm9kZCIgZD0iTTAgMGgzMTMuMzAzMTZ2MTU5Ljg2NDg3SDB6Ii8+PC9tYXNrPjxtYXNrIGlkPSJiIiBmaWxsPSIjZmZmIj48cGF0aCBmaWxsLXJ1bGU9ImV2ZW5vZGQiIGQ9Ik0wIDBoMzEzLjMwMzE2djE1OS44NjQ4N0gweiIvPjwvbWFzaz48ZyBmaWxsPSJub25lIiBmaWxsLXJ1bGU9ImV2ZW5vZGQiPjxwYXRoIGZpbGw9IiMwZjE2ODkiIGQ9Ik0uNjc4NTcgMTM4aDE5Ljc4NTg0djI2Ljc4OWgyMy45MDM3VjEzOGgxOS43ODU4M3Y3NS4yNUg0NC4zNjgxMXYtMjguNjk1MzNIMjAuNDY0NFYyMTMuMjVILjY3ODU3em04Ni4xNzM4NCA3NS4yNVYxMzhoNDYuODAzMDV2MTYuMzU0MzNoLTI3LjAxNzIxVjE2Ni41OTVoMjMuOTAzN3YxNi42NTUzM2gtMjMuOTAzN3YxMy44NDZoMjcuMDE3MlYyMTMuMjV6bTY4LjQ5NzE2IDBWMTM4aDE5Ljc4NTg0djU1LjM4NGgyNy4xMTc2NHYxOS44NjZ6TTIzMi44ODU5NCAxMzhsMzAuNzMzMzMgMjcuODkyNjdMMjk0LjI1MjE3IDEzOGg4LjkzODc3djc1LjI1aC0xOS44ODYyN3YtMzguNjI4MzNsLTE5LjY4NTQgMTcuOTU5NjYtMTkuNzg1ODMtMTcuODU5MzN2MzguNTI4aC0xOS44ODYyOFYxMzh6Ii8+PGcgZmlsbD0iIzBmMTY4OSIgbWFzaz0idXJsKCNhKSIgdHJhbnNmb3JtPSJtYXRyaXgoMSAwIDAgLTEgLjk1OCA0MDQpIj48cGF0aCBkPSJNMjIzLjY1MTE2IDE0My4zNzY0M2M1LjY4MTg5IDMuOTc4NSAxOC43ODIyLTQuOTI3MjggMjkuMjYwMzQtMTkuODkxNjNzMTQuMzY2MjktMzAuMzIwNTcgOC42ODQ0LTM0LjI5OTA3Yy01LjY4MTktMy45Nzg1LTE4Ljc4MjIgNC45MjcyOC0yOS4yNjAzNSAxOS44OTE2M3MtMTQuMzY2MjkgMzAuMzIwNTctOC42ODQ0IDM0LjI5OTA3eiIvPjxwYXRoIGQ9Ik04OC4yNzc0OSAxNDMuMzc2MTJjLTUuNjgxOSAzLjk3ODUtMTguNzgyMi00LjkyNzI5LTI5LjI2MDM1LTE5Ljg5MTY0cy0xNC4zNjYyOC0zMC4zMjA1Ni04LjY4NDM5LTM0LjI5OTA3IDE4Ljc4MjIgNC45MjcyOSAyOS4yNjAzNSAxOS44OTE2NCAxNC4zNjYyOCAzMC4zMjA1NiA4LjY4NDM5IDM0LjI5OTA3eiIvPjxwYXRoIGQ9Ik0xNTUuODk2MTkgMTE5Ljk0NTI3Yy02LjkzNjMyIDAtMTIuNTU5My0xNC44MDkyMi0xMi41NTkzLTMzLjA3NzMyczUuNjIyOTgtMzMuMDc3MzIgMTIuNTU5My0zMy4wNzczMmM2LjkzNjMgMCAxMi41NTkzIDE0LjgwOTIyIDEyLjU1OTMgMzMuMDc3MzJzLTUuNjIzIDMzLjA3NzMyLTEyLjU1OTMgMzMuMDc3MzJ6Ii8+PC9nPjxwYXRoIHN0cm9rZT0iIzBmMTY4OSIgc3Ryb2tlLXdpZHRoPSIyMCIgZD0iTTI1MS40NjcgMTczLjA5OTg1Yy0yMC4yMzAwNy0zMy42MDk5Ny01Ni44ODk1Ni01Ni4wNjc5LTk4Ljc1NTc3LTU2LjA2NzktNDAuNzIwOCAwLTc2LjUxNTg4IDIxLjI0NTktOTcuMDU4NyA1My4zMzQ1OG0yLjE5ODExIDEyOS4xNjk1M2MyMC44NDAzIDMwLjIzMjcgNTUuNTU1OSA1MC4wMjY2IDk0Ljg2MDU5IDUwLjAyNjYgMzkuMzc2MSAwIDc0LjE0NjQyLTE5Ljg2NTkgOTQuOTc0MDUtNTAuMTkxNSIgbWFzaz0idXJsKCNhKSIgdHJhbnNmb3JtPSJtYXRyaXgoMSAwIDAgLTEgLjk1OCA0MDQpIi8+PGc+PGcgZmlsbD0iIzBmMTY4OSIgbWFzaz0idXJsKCNiKSIgdHJhbnNmb3JtPSJ0cmFuc2xhdGUoLjk1OCAtNTEpIj48cGF0aCBkPSJNMjIzLjY1MDk3IDE0MC45MTcwNGM1LjY4MTg5IDMuOTc4NSAxOC43ODIyLTQuOTI3MjggMjkuMjYwMzQtMTkuODkxNjNzMTQuMzY2MjktMzAuMzIwNTcgOC42ODQ0LTM0LjI5OTA3Yy01LjY4MTktMy45Nzg1LTE4Ljc4MjIgNC45MjcyOC0yOS4yNjAzNSAxOS44OTE2M3MtMTQuMzY2MjkgMzAuMzIwNTctOC42ODQ0IDM0LjI5OTA3eiIvPjxwYXRoIGQ9Ik04OC4yNzc2OCAxNDAuOTE2NzNjLTUuNjgxOSAzLjk3ODUtMTguNzgyMi00LjkyNzI5LTI5LjI2MDM1LTE5Ljg5MTY0cy0xNC4zNjYyOC0zMC4zMjA1Ni04LjY4NDM5LTM0LjI5OTA3IDE4Ljc4MjIgNC45MjcyOCAyOS4yNjAzNSAxOS44OTE2MyAxNC4zNjYyOCAzMC4zMjA1NyA4LjY4NDQgMzQuMjk5MDh6Ii8+PHBhdGggZD0iTTE1NS44OTYxOSAxMTcuNDg2MjdjLTYuOTM2MzIgMC0xMi41NTkzLTE0LjgwOTIyLTEyLjU1OTMtMzMuMDc3MzJzNS42MjI5OC0zMy4wNzczMiAxMi41NTkzLTMzLjA3NzMyYzYuOTM2MyAwIDEyLjU1OTMgMTQuODA5MjIgMTIuNTU5MyAzMy4wNzczMnMtNS42MjMgMzMuMDc3MzItMTIuNTU5MyAzMy4wNzczMnoiLz48L2c+PHBhdGggc3Ryb2tlPSIjMGYxNjg5IiBzdHJva2Utd2lkdGg9IjIwIiBkPSJNMjUxLjQ2NyAxNzAuNjQwMzljLTIwLjIzMDA3LTMzLjYwOTk3LTU2Ljg4OTU2LTU2LjA2NzktOTguNzU1NzctNTYuMDY3OS00MC43MjA4IDAtNzYuNTE1ODggMjEuMjQ1OS05Ny4wNTg3IDUzLjMzNDU4bTIuMTk4MTEgMTI5LjE2OTUzYzIwLjg0MDMgMzAuMjMyNyA1NS41NTU5IDUwLjAyNjYgOTQuODYwNTkgNTAuMDI2NiAzOS4zNzYxIDAgNzQuMTQ2NDItMTkuODY1OSA5NC45NzQwNS01MC4xOTE1IiBtYXNrPSJ1cmwoI2IpIiB0cmFuc2Zvcm09InRyYW5zbGF0ZSguOTU4IC01MSkiLz48L2c+PC9nPjwvc3ZnPg==" parent="ekPZyuRq7W89Y46g-SNz-9" vertex="1">
                    <mxGeometry x="20" y="23.333333333333336" width="60" height="70" as="geometry"/>
                </mxCell>
                <mxCell id="ekPZyuRq7W89Y46g-SNz-1" value="" style="shape=image;verticalLabelPosition=bottom;verticalAlign=top;imageAspect=0;image=data:image/png,iVBORw0KGgoAAAANSUhEUgAAAJYAAACWCAIAAACzY+a1AAAKt0lEQVR42uydeXAUVRrA+5orc5J7ckIggDKB7BICCgi6KBSsJ1K7Kmw80LXUwqMs9iy3ai9rS11Lq9ZVSwrECxQMoBJBEEFlPSB3yL2JMQfJZO6Znul7axeXZSPJdOeYfs18v/8Y3stM96/7ve/dlCRJGKBlCLgFoBAAhQAoBIWAtqHkJ5UwjI5yvkDUG4gxLA+RLI5jOoq0Ww2pdpPNosdxHHWFZ93hzh6fx0+DvBFYUvRzZqTlO23qPEly2oWCIHb3BRrahsDWGBTm2EtmZ1IUgWJdOOiJtHV7QNLY9J4NdvX5UQxneF7sGQgyrACS4pRVotT+jTfxNyq+wiEv7QvEwJAcWFYYHA4jpzAUZliOBz0yCYZZUZTQUshwAoSg8mE4XhBFaNprHAkDhQAoBIWAhqCmrpHEMHyCYzMU8AcZt4/WUeT5T0gSNxl0JiOlGYWRKDfspQMhRkzKQNYbiPqDUZIcWbxlpKbMKkxNd6SQJI60Ql8g1jsYEgQRyrcRuL20PxjLy7YtmJuFrkKPP9o3GErCwlMmHC929folDCspzvj+a6p+OMOw/IA7DP7i0ns26PbRyEWkkiR5/TGeh/IzPjwvNrUPI6eQ5cQwzYIemYQiTCjCoqVQFCUOXkElxBgesYIUk0ToC1fYbkYunAHUAhSCQkBtKHW/XpSkS6wpyfEiwwlUvIuKxjiGFQx6UsMKwzTb0x8M0owoXFIKSZLQ6Qgci9MRuu9om9FA5WVZr7+6eP6crIm4VEEhw/Kt3d6BoTAEsU3t7kOf/dNVnHHH9a5rlkzXhkKG5Rva3MP+KCxN/Z/IjuFntn+J4/hViwpIAkc6nOF5sasv4PbR4O//WtWSNOyjn9v51eBwBPWI1O2ju3r94OyiDLjDf3vzlAYUgqoxOP51jzcQRVchywnQFR6nQcIJHd/40FXI8SKMJsYlEGKQLkiB+KEN4nUhMBWAQlAIgEIAFIJCABQCoBAAhaAQAIUAKARAISgEQCEACgFQCAoBzUJp9Hc7MywFMjZSFiWsumlggov5rGb9ZUXpCnbexrEYI9S1DILCUSEJfN3K4ns3lMZNKYjS2vt2+YPj3081zWF64sHlSxbkys8SY/iDxztBYRxkzgeX/sO4vyUn0/L7LSsun5khP0sgxLx2oGHv4RYoSCeHuCuMxsBhNT5+95KS2ZkKHiwMe3VffeWRVjrKgUKVsVkMT/9iVclsBe9fjOVfeaf2jfcaIZxRn1SH6cHbyxT5wzBs25663QfPQESqPilG3WMVi69dOkNRrpd21+zcVw+NCvXR68if3VSyrCxffhaGFd7/pP3tqjPQLkSgrUISy36YX3HTfELJOs0j/+h64c3TKq74AYX/vREUcdfNC+66ZYF8f+EIu7vqzMtv16j7y6GD7TvuuN61fvVc+fu9hmnunUPNb33QpP7DB/IwDLuqrOCe9aWKtp3Ye6j5zfebJnE3PFA4fq5bWvSb+5fK98dywp5DzS+8dRqR35/sBemikpxf/fxKo0HBo7znUPOLu2oQqsWT2d+a5TMfqShPMepkpqdjXOVHrc+/9jVagVjS+rtmyfSKm+dPsxllpud48d3DLTv3NyAXSyenv6x085ZNi5wZFvlZTtb07tzfMI618KBw8ilzObduvkK+v2iMP3Cs7a/bv0S0RZts/lzFGZtvLS3Mscv1x/D7jrbuqKxHt1MiqfwZDdSjdy6eN0vBEMQHn7S/Wlk/kXF/UDhpOGzGp7f+yFUs1x8viAePdzy17QvErytZ2oUUSfzpkZXy/WEYVnWiE9n6L+newvRpKY9UlJe5nDLTMyxf9Wnnky+d1MbTecn7S7WbfrL28pXlhTLTC4L43rH2bXvqNFPAXNr+JEnadGPJqitm6Ci5VcbAcGTn/oZx7EgIdeHUPKEUsW7FLEVDENlp5vKSHA1dI4wXXsT6LdfNnT09FRRqmLkz0jbdWAIKNQxB4NctLbpt3TyCwEGhhtl4g6vAaQeF2m5NPvnY1ZYUPSjUMDPyHDetmm0yUKBQq+A4du+GH6y6cgYo1DBGA7XpxhKXkvVNoHDKae3yfPhpp/z0edm2+zaUGvQUKESC/qHwK+/UPv/a1/KnUJAEXj4/Z83yIlCoPh5/9JfPfHziVI/HH31xd3WE5mRXivhDG8vmz8kEhSr7e+L5461dnnP//PBE58naXvnZbWbDrasvo0gCFKrDoCfy+F+OnGocOP8JHeO2v1un6ICdqxcXPrRxEShUgc5vfc+9+tWZzuERn/f0B3bur+cFuSfy63Xk2hUz5xVngMKE0t0XeGrbF0e/6P7+f3G8ePjzroPHO+T/NbvF8Nv7l2Wlm0FhghBF6dfPHqs5c3a0BJIk/X1X9fkKUg5F+Y6t91wBChOlUJLc3jiHJvoC0ZffrokyvPw/u6Q0d83ymXodCQqnHPzfzYE4aSQJ++z0t5+d/lb+2XwUSdyzvrS4MBUUIsQLb5xqbHPLT1+QY9u8odRmMYBCVOh3h3dVNSkqTstczo03uEAhQpys7n1dydozvY68bd28hbKnp4LCKSfK8K/sqW1REp3qdeTvHlhemGsHhQjx7I4vFW2CkJlm3qJqlw0oHElt8+D+o20Kgl4cW7Ywf8Oay0AhQlSd6KhvHVKU5adrL89Ot4BCVOjo8e2orFO0F21etu2hjWUmIwUKUeHz6t7KI62iEovXLJ6+ZvlMUIgQ2/fW9w4E5acnSXzLpvLEd9mAwlEZ8kb++OLnLCfIz5JipB6uKFe0kQYonFrqWgb3fNjMKbG4yOXcvKHUmMC5UoSM1qsWFhZMGTv21de2KItOVywqXJ3AuVLxFTpsRoMheTeJCoSYHZV1wz5afharWf/g7WVF+dNQUZhqN9kR6I9XkcY29+sHGhUdd2G3Gh64bWFixjHkFKRkQY5dR5EaFTCRoyrOEWP594619/QHFOVaUpq7buWsBFygrBLSmWkRBKm25aw4scOPJgsJw/qHQtWjT6c4D8eJMZaf+DeGaXbr00cfrVisV7Lmu7wkp/Kj1hjDq6+QwPF8p5XlhLZuj6Ige4oQRanqRGfVic5Efml3X+DhPx9GsJiRG6fgOD6rcJoz0+L2Rjz+KMMKF9YNYZp1e2meF8d+dQgch4aKagrPYTbpzLmO6bmOEZ/7gjFRFBl2rBfU44+ebiLhjkPTHgCFoBAAhQCSCnEcok2NK9TrSDPym3uAwrEw6qk0hwnupoYVEgRekGOTv2EkgGI4YzbpXbMzCQJqxEQzmQOBBU4bQeCNbUNjd9MA6CrEcTwvy6qjiL7BkD8YY1jhwhlgCG40AAovbjE73ZKZag7TbCjCXtjx3TcYMurhrD3kFZ6PbmwWw4gxa5LEFW2wnKQ+SFy1cCYuaY4Uu9UIksZmHLP6E6fQZKSKC6eBpDGwWQzT8+zoKsQw7Nori6AHYDRIkrjz5vnyz8NUR+GcotS715eCrYtSXDjtxyuLUQlnRkNHkbeunhtj+G17a+koB9q+c0ARC+Zk/eHhFXbreCYt4oqWYE0KDMt/8lXPgY/bOnt8gTCDyKy4xIPjuNmky82yXlVWsHbFrJzMca7EUEHhOQIh5lTTQE9/AIWj4VXBoKdys6wL52VnpZsnMlSnmkJg0lrhcAtAIQAKAVAICgFQCIBCYCL8KwAA///mLRRGve0AWAAAAABJRU5ErkJggg==" parent="ekPZyuRq7W89Y46g-SNz-9" vertex="1">
                    <mxGeometry x="20" y="129.5" width="60" height="70" as="geometry"/>
                </mxCell>
                <mxCell id="ekPZyuRq7W89Y46g-SNz-13" style="edgeStyle=orthogonalEdgeStyle;rounded=0;orthogonalLoop=1;jettySize=auto;html=1;entryX=0;entryY=0.5;entryDx=0;entryDy=0;" parent="1" source="ekPZyuRq7W89Y46g-SNz-7" target="ekPZyuRq7W89Y46g-SNz-11" edge="1">
                    <mxGeometry relative="1" as="geometry"/>
                </mxCell>
                <mxCell id="HWHSqS2P6HCf4RbeMcaz-8" value="" style="shape=actor;whiteSpace=wrap;html=1;strokeColor=#7EA6E0;strokeWidth=2;fontColor=#007FFF;" parent="1" vertex="1">
                    <mxGeometry x="-95" y="273.75" width="40" height="60" as="geometry"/>
                </mxCell>
                <mxCell id="HWHSqS2P6HCf4RbeMcaz-9" value="Developer" style="text;html=1;align=center;verticalAlign=middle;resizable=0;points=[];autosize=1;fontColor=#007FFF;" parent="1" vertex="1">
                    <mxGeometry x="-110" y="333.75" width="70" height="20" as="geometry"/>
                </mxCell>
                <mxCell id="HWHSqS2P6HCf4RbeMcaz-21" value="" style="group" parent="1" vertex="1" connectable="0">
                    <mxGeometry x="-30" y="50" width="200" height="90" as="geometry"/>
                </mxCell>
                <mxCell id="HWHSqS2P6HCf4RbeMcaz-19" value="" style="fillColor=none;strokeColor=#5A6C86;dashed=1;verticalAlign=top;fontStyle=0;fontColor=#5A6C86;" parent="HWHSqS2P6HCf4RbeMcaz-21" vertex="1">
                    <mxGeometry width="200" height="90" as="geometry"/>
                </mxCell>
                <mxCell id="-kEWRbQdguksYZ6EH8o2-6" value="App Source Code" style="verticalLabelPosition=bottom;html=1;verticalAlign=top;align=center;strokeColor=none;fillColor=#00BEF2;shape=mxgraph.azure.github_code;pointerEvents=1;" parent="HWHSqS2P6HCf4RbeMcaz-21" vertex="1">
                    <mxGeometry x="30" y="10" width="50" height="50" as="geometry"/>
                </mxCell>
                <mxCell id="HWHSqS2P6HCf4RbeMcaz-18" value="App Manifest" style="verticalLabelPosition=bottom;html=1;verticalAlign=top;align=center;strokeColor=none;fillColor=#00BEF2;shape=mxgraph.azure.github_code;pointerEvents=1;" parent="HWHSqS2P6HCf4RbeMcaz-21" vertex="1">
                    <mxGeometry x="127" y="10" width="50" height="50" as="geometry"/>
                </mxCell>
                <mxCell id="ekPZyuRq7W89Y46g-SNz-11" value="" style="fillColor=#EFF0F3;dashed=0;verticalAlign=top;fontStyle=0;fontColor=#232F3D;" parent="1" vertex="1">
                    <mxGeometry x="460" y="190" width="130" height="228.5" as="geometry"/>
                </mxCell>
                <mxCell id="-kEWRbQdguksYZ6EH8o2-2" value="（Minikube）" style="shape=image;verticalLabelPosition=bottom;verticalAlign=top;imageAspect=0;image=data:image/svg+xml,PHN2ZyB4bWxucz0iaHR0cDovL3d3dy53My5vcmcvMjAwMC9zdmciIHJvbGU9ImltZyIgdmlld0JveD0iMC4wMyAtOC45NiAzNjIuMTggMjgyLjQzIj48ZGVmcz48c3R5bGU+LmNscy0xe2ZpbGw6I2ZmZn0uY2xzLTJ7ZmlsbDojMzI2Y2U1fTwvc3R5bGU+PC9kZWZzPjxnIGlkPSJpdHMtcHJvbm91bmNlZCI+PGcgaWQ9Imt5b29iLWN1dHRsZSI+PHBhdGggaWQ9Imtra2tra2siIGQ9Ik0xNi44NDEgMjQzLjU4NmMuOTUyLTEuMDcgMS45MDQtMi4xNDEgMi45NzQtMy4yMTJxMS40OTMtMS42NiAyLjk3NS0zLjMzYy45NTEtMS4xOTEgMS45MDMtMi4yNjIgMi43MzctMy4yMTRzMS42NjUtMS45MDMgMi4yNi0yLjYxN2gxMS41NGMtMi4yNiAyLjYxNy00LjUyMiA1LjIzNS02Ljc4MSA3LjYxNHEtMy4yMTMgMy41Ny03LjEzOCA3LjQ5NWE0OC4wNTIgNDguMDUyIDAgMCAxIDQuMDQ1IDQuMjg0YzEuNDI3IDEuNjY1IDIuNzM2IDMuMzMgNC4wNDUgNC45OTVhNTAuODA3IDUwLjgwNyAwIDAgMSAzLjU2OCA1LjIzNmMxLjA3IDEuNzg0IDIuMDI0IDMuMzMgMi43MzcgNC43NTlIMjguNjJjLS43MTUtMS4xOS0xLjU0Ny0yLjM4LTIuMzgtMy42OWE0My4zMiA0My4zMiAwIDAgMC0yLjg1Ni00LjE2MiAzNC4yMSAzNC4yMSAwIDAgMC0zLjIxMS00LjA0NSAyMC40NDIgMjAuNDQyIDAgMCAwLTMuMjEzLTMuMjEzdjE0Ljk5SDcuMjA1di00OS4xMzRsOS43NTUtMS41NDd2MjguNzkxIi8+PHBhdGggaWQ9InV1dXV1dXUiIGQ9Ik03My43MDkgMjY0LjQwNmE0Ni4yOTQgNDYuMjk0IDAgMCAxLTYuNDI0IDEuMzA5IDQ1Ljk4NiA0NS45ODYgMCAwIDEtOC4yMS41OTQgMTkuMTcgMTkuMTcgMCAwIDEtNy4zNzUtMS4xODkgMTAuOTI4IDEwLjkyOCAwIDAgMS02LjktOC4zMjggMjcuOTc3IDI3Ljk3NyAwIDAgMS0uNzE1LTYuNDI1di0xOS4xNTRoOS43NTd2MTcuOTY1YzAgMy4wOTMuMzU3IDUuMzU0IDEuMTkgNi43ODJzMi4zNzggMi4xNDEgNC42MzkgMi4xNDFhMTUuMTY5IDE1LjE2OSAwIDAgMCAyLjI2LS4xMTljLjgzMy0uMTE5IDEuNDI5LS4xMTkgMi4xNDItLjIzOHYtMjYuNTNoOS43NTVsLS4xMTkgMzMuMTkyIi8+PHBhdGggaWQ9ImJiYmJiYmIiIGQ9Ik0xMDUgMjQ4LjEwN2MwLTYuMzA1LTIuMjYyLTkuMzk4LTYuOTAyLTkuMzk4YTEyLjcwNiAxMi43MDYgMCAwIDAtMi45NzQuMzU2IDguOTkgOC45OSAwIDAgMC0yLjM3OS45NTJ2MTcuNzI3Yy40NzUuMTE5IDEuMDcuMTE5IDEuNzg0LjIzOC43MTQgMCAxLjU0Ni4xMiAyLjM4LjEyYTcuMzY2IDcuMzY2IDAgMCAwIDYuMDY4LTIuNzM4IDEyLjIgMTIuMiAwIDAgMCAyLjAyMi03LjI1N205Ljg3NC4yMzhhMjEuNTQzIDIxLjU0MyAwIDAgMS0xLjE5IDcuNDk2IDE1LjMxMyAxNS4zMTMgMCAwIDEtMy40NSA1LjcxIDE4LjI5NyAxOC4yOTcgMCAwIDEtNS41OTEgMy42ODggMjEuNzc0IDIxLjc3NCAwIDAgMS03LjYxNSAxLjE5Yy0xLjE4OSAwLTIuMzc5LS4xMi0zLjY4OC0uMjM4cy0yLjQ5Ny0uMjM4LTMuODA2LS4zNThjLTEuMTktLjExOC0yLjM4LS4zNTYtMy41Ny0uNTk1YTE1LjAzNyAxNS4wMzcgMCAwIDEtMi45NzQtLjgzMlYyMTYuMzRsOS43NTYtMS41NDZ2MTcuMTMyYTE2LjYxNyAxNi42MTcgMCAwIDEgMy40NS0xLjA3IDE5LjY5MSAxOS42OTEgMCAwIDEgMy44MDctLjM1NyAxNS4wNzQgMTUuMDc0IDAgMCAxIDYuNDI0IDEuMzA4IDEyLjg4NCAxMi44ODQgMCAwIDEgNC43NiAzLjU3IDE0LjM0OCAxNC4zNDggMCAwIDEgMi44NTUgNS43MSAzMy43ODUgMzMuNzg1IDAgMCAxIC44MzIgNy4yNTciLz48cGF0aCBpZD0iZWVlZWVlZTAiIGQ9Ik0xMjAuNzA0IDI0OC43MDJhMjAuMzAzIDIwLjMwMyAwIDAgMSAxLjQyNy03Ljk3IDE4LjIwNiAxOC4yMDYgMCAwIDEgMy42ODktNS43MTIgMTMuODY2IDEzLjg2NiAwIDAgMSA1LjIzMy0zLjQ1IDE1LjkgMTUuOSAwIDAgMSA2LjE4Ny0xLjE5IDE1LjIyNyAxNS4yMjcgMCAwIDEgMTEuNTQgNC41MjFjMi44NTUgMi45NzQgNC4yODIgNy4zNzggNC4yODIgMTMuMDg3YTEwLjg4NyAxMC44ODcgMCAwIDEtLjExOCAxLjkwNGMwIC41OTUtLjExOSAxLjE4OS0uMTE5IDEuNzg0aC0yMi4xM2E2LjUyMiA2LjUyMiAwIDAgMCAyLjg1NiA0Ljc1OSAxMS4zMiAxMS4zMiAwIDAgMCA2LjY2MiAxLjc4NCAyNS4yMTIgMjUuMjEyIDAgMCAwIDUuMjM1LS40NzUgMjEuMzQyIDIxLjM0MiAwIDAgMCA0LjI4My0xLjE5bDEuMzA4IDcuOTdjLS40NzYuMjM5LTEuMTkuNDc3LTIuMTQuODMzYTExLjk5NCAxMS45OTQgMCAwIDEtMi45NzYuNTk2IDI2Ljg1NSAyNi44NTUgMCAwIDEtMy40NS40NzVjLTEuMTkuMTItMi40OTcuMjM4LTMuNjg4LjIzOGEyMC45MiAyMC45MiAwIDAgMS04LjA5LTEuNDI3IDE3LjUxNyAxNy41MTcgMCAwIDEtNS43MS0zLjY4OCAxNy4xNzIgMTcuMTcyIDAgMCAxLTMuMzMtNS43MSAyNy45NDQgMjcuOTQ0IDAgMCAxLS45NTQtNy4xMzltMjIuOTYyLTMuODA3YTcuNjkyIDcuNjkyIDAgMCAwLS40NzYtMi4zOCA3LjIzMiA3LjIzMiAwIDAgMC0xLjA3LTIuMTQxIDUuNjg0IDUuNjg0IDAgMCAwLTQuNzYtMi4xNDIgNy4xODggNy4xODggMCAwIDAtMi44NTUuNTk1IDQuNzMyIDQuNzMyIDAgMCAwLTEuOTAzIDEuNDI4IDYuMjQgNi4yNCAwIDAgMC0xLjE5IDIuMTQyIDE3LjM5NiAxNy4zOTYgMCAwIDAtLjU5NSAyLjM4aDEyLjg1Ii8+PHBhdGggaWQ9InJycnJycnIiIGQ9Ik0xODEuMjYgMjM5Ljc4YTE3Ljg3NSAxNy44NzUgMCAwIDAtMy4wOTQtLjU5NiAxOS42ODggMTkuNjg4IDAgMCAwLTMuODA3LS4zNTcgMjAuOTc3IDIwLjk3NyAwIDAgMC0yLjI2LjIzOCAxOC42ODcgMTguNjg3IDAgMCAwLTEuOTA0LjM1N3YyNi4yOTNoLTkuNzU2di0zMi43MTdhNTAuNjA2IDUwLjYwNiAwIDAgMSA2LjE4Ni0xLjY2NiAzMy40NjggMzMuNDY4IDAgMCAxIDcuOTcxLS44MzIgMTEuNTggMTEuNTggMCAwIDEgMS45MDQuMTE4IDE2LjI1NiAxNi4yNTYgMCAwIDEgMi4yNi4yMzhjLjcxNS4xMiAxLjQyOC4yMzggMi4yNjEuMzU3LjcxMy4xMiAxLjQyOC4zNTggMS45MDMuNDc2bC0xLjY2NSA4LjA5Ii8+PHBhdGggaWQ9Im5ubm5ubm4iIGQ9Ik0xODguMTYgMjMyLjQwM2E1Ny41MjQgNTcuNTI0IDAgMCAxIDE0LjYzMy0xLjkwMyAxOC4xNDcgMTguMTQ3IDAgMCAxIDcuMjU3IDEuMTg5IDEwLjE5MSAxMC4xOTEgMCAwIDEgNC42NCAzLjIxMiAxMy44OTcgMTMuODk3IDAgMCAxIDIuMzggNC45OTcgMjYuNTQgMjYuNTQgMCAwIDEgLjcxMyA2LjQyNHYxOS4zOTNoLTkuNzU2di0xOC4yMDFjMC0zLjA5NC0uMzU2LTUuMzU0LTEuMTktNi42NjNzLTIuMzc5LTEuOTA0LTQuNjQtMS45MDRhMTUuMTcgMTUuMTcgMCAwIDAtMi4yNi4xMiAxMS43ODcgMTEuNzg3IDAgMCAwLTIuMTQuMjM3djI2LjUzMWgtOS42Mzh2LTMzLjQzIi8+PHBhdGggaWQ9ImVlZWVlZWUxIiBkPSJNMjI1LjA0IDI0OC43MDJhMjAuMzAxIDIwLjMwMSAwIDAgMSAxLjQyNy03Ljk3IDE4LjIwNiAxOC4yMDYgMCAwIDEgMy42OS01LjcxMiAxMy44NjYgMTMuODY2IDAgMCAxIDUuMjM0LTMuNDUgMTUuOSAxNS45IDAgMCAxIDYuMTg3LTEuMTkgMTUuMjI3IDE1LjIyNyAwIDAgMSAxMS41NCA0LjUyMWMyLjg1NCAyLjk3NCA0LjI4MiA3LjM3OCA0LjI4MiAxMy4wODdhMTAuODg0IDEwLjg4NCAwIDAgMS0uMTE5IDEuOTA0YzAgLjU5NS0uMTIgMS4xODktLjEyIDEuNzg0aC0yMi4xMjdhNi41MjIgNi41MjIgMCAwIDAgMi44NTYgNC43NTkgMTEuMzIgMTEuMzIgMCAwIDAgNi42NiAxLjc4NCAyNS4yMTMgMjUuMjEzIDAgMCAwIDUuMjM3LS40NzUgMjEuMzQgMjEuMzQgMCAwIDAgNC4yODItMS4xOWwxLjMwOSA3Ljk3Yy0uNDc2LjIzOS0xLjE5LjQ3Ny0yLjE0Mi44MzNhMTEuOTkyIDExLjk5MiAwIDAgMS0yLjk3NC41OTYgMjYuODYgMjYuODYgMCAwIDEtMy40NS40NzVjLTEuMTkuMTItMi40OTkuMjM4LTMuNjg4LjIzOGEyMC45MiAyMC45MiAwIDAgMS04LjA5LTEuNDI3IDE3LjUxNiAxNy41MTYgMCAwIDEtNS43MS0zLjY4OCAxNy4xNzIgMTcuMTcyIDAgMCAxLTMuMzMyLTUuNzEgMjcuOTM4IDI3LjkzOCAwIDAgMS0uOTUyLTcuMTM5bTIyLjk2MS0zLjgwN2E3LjY5MyA3LjY5MyAwIDAgMC0uNDc1LTIuMzggNy4yMzMgNy4yMzMgMCAwIDAtMS4wNzEtMi4xNDEgNS42ODQgNS42ODQgMCAwIDAtNC43Ni0yLjE0MiA3LjE4OCA3LjE4OCAwIDAgMC0yLjg1NS41OTUgNC43MzIgNC43MzIgMCAwIDAtMS45MDMgMS40MjggNi4yNCA2LjI0IDAgMCAwLTEuMTkgMi4xNDIgMTcuMzg4IDE3LjM4OCAwIDAgMC0uNTk0IDIuMzhoMTIuODQ4Ii8+PHBhdGggaWQ9InR0dHR0dHQiIGQ9Ik0yNjQuNjU3IDIyMi42NDdsOS43NTYtMS41NDZ2MTAuMTEyaDExLjY2djguMDloLTExLjY2djEyLjEzNWE5LjU2NiA5LjU2NiAwIDAgMCAxLjA3IDQuODc4Yy43MTUgMS4xOSAyLjI2MSAxLjc4NSA0LjQwMyAxLjc4NWEyOS4xNjcgMjkuMTY3IDAgMCAwIDMuMjEyLS4yMzggMTkuMzQ0IDE5LjM0NCAwIDAgMCAzLjA5My0uODMzbDEuNDI3IDcuNjE0YTE4Ljk0OCAxOC45NDggMCAwIDEtMy45MjYgMS4xOSAyMi44NzIgMjIuODcyIDAgMCAxLTUuMzU0LjQ3NSAxOC4xOCAxOC4xOCAwIDAgMS02LjY2LTEuMDcgMTEuMDEgMTEuMDEgMCAwIDEtNC4xNjUtMi45NzUgMTEuODA0IDExLjgwNCAwIDAgMS0yLjI2MS00Ljc1OCAzMC44MzQgMzAuODM0IDAgMCAxLS41OTQtNi4wNjh2LTI4Ljc5MSIvPjxwYXRoIGlkPSJlZWVlZWVlMiIgZD0iTTI5MS4wNjkgMjQ4LjcwMmEyMC4zIDIwLjMgMCAwIDEgMS40MjgtNy45NyAxOC4yMDYgMTguMjA2IDAgMCAxIDMuNjg4LTUuNzEyIDEzLjg2NiAxMy44NjYgMCAwIDEgNS4yMzQtMy40NSAxNS45IDE1LjkgMCAwIDEgNi4xODctMS4xOSAxNS4yMjcgMTUuMjI3IDAgMCAxIDExLjU0IDQuNTIxYzIuODU2IDIuOTc0IDQuMjgzIDcuMzc4IDQuMjgzIDEzLjA4N2ExMC44ODUgMTAuODg1IDAgMCAxLS4xMiAxLjkwNGMwIC41OTUtLjExOSAxLjE4OS0uMTE5IDEuNzg0aC0yMi4xMjhhNi41MjIgNi41MjIgMCAwIDAgMi44NTYgNC43NTkgMTEuMzIgMTEuMzIgMCAwIDAgNi42NjEgMS43ODQgMjUuMjEzIDI1LjIxMyAwIDAgMCA1LjIzNi0uNDc1IDIxLjM0IDIxLjM0IDAgMCAwIDQuMjgyLTEuMTlsMS4zMSA3Ljk3Yy0uNDc2LjIzOS0xLjE5LjQ3Ny0yLjE0My44MzNhMTEuOTkyIDExLjk5MiAwIDAgMS0yLjk3NC41OTYgMjYuODU2IDI2Ljg1NiAwIDAgMS0zLjQ1LjQ3NWMtMS4xOS4xMi0yLjQ5Ny4yMzgtMy42ODguMjM4YTIwLjkyIDIwLjkyIDAgMCAxLTguMDktMS40MjcgMTcuNTE2IDE3LjUxNiAwIDAgMS01LjcxLTMuNjg4IDE3LjE3MiAxNy4xNzIgMCAwIDEtMy4zMy01LjcxIDIzLjUyNSAyMy41MjUgMCAwIDEtLjk1My03LjEzOW0yMi44NDMtMy44MDdhNy42OTIgNy42OTIgMCAwIDAtLjQ3Ny0yLjM4IDcuMjMyIDcuMjMyIDAgMCAwLTEuMDctMi4xNDEgNS42ODQgNS42ODQgMCAwIDAtNC43NTktMi4xNDIgNy4xODggNy4xODggMCAwIDAtMi44NTYuNTk1IDQuNzMyIDQuNzMyIDAgMCAwLTEuOTA0IDEuNDI4IDYuMjQgNi4yNCAwIDAgMC0xLjE4OCAyLjE0MiAxNy4zOTEgMTcuMzkxIDAgMCAwLS41OTYgMi4zOGgxMi44NSIvPjxwYXRoIGlkPSJzc3Nzc3NzIiBkPSJNMzQwLjY4IDI1OC41NzZhOS43NzYgOS43NzYgMCAwIDAgMy44MDctLjQ3NSAyLjA4NCAyLjA4NCAwIDAgMCAxLjA3LTIuMDIzYzAtLjgzMy0uNDc1LTEuNDI3LTEuNDI3LTIuMDIyYTIyLjU2NyAyMi41NjcgMCAwIDAtNC40MDMtMi4wMjNjLTEuNTQ2LS41OTUtMi45NzQtMS4xOS00LjE2Mi0xLjc4NWExMS44OTQgMTEuODk0IDAgMCAxLTMuMDk1LTIuMTQxIDkuMzA0IDkuMzA0IDAgMCAxLTIuMDIyLTMuMDk0IDExLjUyNiAxMS41MjYgMCAwIDEtLjcxNC00LjI4MiA5LjA1MiA5LjA1MiAwIDAgMSAzLjU2OS03LjYxNGMyLjM4LTEuOTA0IDUuNzExLTIuODU2IDkuODc1LTIuODU2YTMzLjg0MiAzMy44NDIgMCAwIDEgNi4wNjguNTk1IDIxLjk5NyAyMS45OTcgMCAwIDEgNC41MiAxLjE5MWwtMS42NjUgNy42MTRjLTEuMTktLjM1OC0yLjM4LS43MTUtMy42OS0xLjA3MWExNi42NDUgMTYuNjQ1IDAgMCAwLTQuNC0uNDc3Yy0zLjA5NCAwLTQuNTIyLjgzMy00LjUyMiAyLjQ5OGEzLjQ3NCAzLjQ3NCAwIDAgMCAuMjM4IDEuMDcyIDEuOTk4IDEuOTk4IDAgMCAwIC44MzMuOTUyYy4zNTcuMjM4Ljk1Mi41OTQgMS41NDcuOTUxLjcxNC4zNTcgMS41NDYuNTk1IDIuNjE3IDEuMDcxYTM5LjI0MyAzOS4yNDMgMCAwIDEgNS4zNTQgMi4zNzkgOC44ODIgOC44ODIgMCAwIDEgMy4yMTMgMi40OTkgNi4yMTQgNi4yMTQgMCAwIDEgMS42NjUgMi45NzQgMTIuMzQ2IDEyLjM0NiAwIDAgMSAuNDc2IDMuODA3IDguODY4IDguODY4IDAgMCAxLTMuODA4IDcuNzM0Yy0yLjQ5OCAxLjc4NC02LjA2NyAyLjYxNi0xMC44MjYgMi42MTZhMjcuNTAyIDI3LjUwMiAwIDAgMS03LjYxMy0uODMyIDIxLjcxNyAyMS43MTcgMCAwIDEtNC4xNjQtMS4zMWwxLjY2NS03Ljk3YTM2LjM2IDM2LjM2IDAgMCAwIDUuMTE2IDEuNTQ2IDIxLjg5NCAyMS44OTQgMCAwIDAgNC44NzcuNDc2Ii8+PC9nPjwvZz48cGF0aCBkPSJNNzYuNTIzIDEyNi45OTJoMTAuNjE5djguNDMyaC0xMC42MnoiIGNsYXNzPSJjbHMtMSIvPjxwYXRoIGQ9Ik0yMDAuNjg4IDEyMC4wNDdhMy41OSAzLjU5IDAgMCAwLS44NTUtLjA2NSAzLjY4NSAzLjY4NSAwIDAgMC0xLjQyNS4zNyAzLjcyNSAzLjcyNSAwIDAgMC0xLjgwMyA0LjgyNWwtLjAyNi4wMzcgOC41MjggMjAuNjAzYTQzLjUzIDQzLjUzIDAgMCAwIDE3LjU5NS0yMi4xMDJsLTIxLjk3Ni0zLjcxNHptLTM0LjE5NCAyLjkyYTMuNzIgMy43MiAwIDAgMC0zLjU2OC0yLjg5NCAzLjY1NiAzLjY1NiAwIDAgMC0uNzMzLjA2NWwtLjAzNy0uMDQ1LTIxLjc4NSAzLjY5OGE0My42OTUgNDMuNjk1IDAgMCAwIDE3LjU0IDIxLjk0Nmw4LjQ0Mi0yMC4zOTktLjA2Ni0uMDhhMy42ODMgMy42ODMgMCAwIDAgLjIwNy0yLjI5MXptMTguMjQ1IDhhMy43MTggMy43MTggMCAwIDAtNi41NTcuMDA4aC0uMDE4bC0xMC43MTMgMTkuMzcyYTQzLjYzNyA0My42MzcgMCAwIDAgMjMuODE1IDEuMjI1cTIuMTk3LS41IDQuMjkyLTEuMTk5bC0xMC43MzgtMTkuNDA3em0zMy45MTQtNDVMMjAyLjE3IDEwMC43MmwuMDA5LjA0N2EzLjcyNSAzLjcyNSAwIDAgMCAxLjQ2IDYuMzk1bC4wMi4wODkgMjEuMzUgNi4xNWE0NC4yNzggNDQuMjc4IDAgMCAwLTYuMzU2LTI3LjQzMnpNMTg4LjAzIDg3LjYyYTMuNzI1IDMuNzI1IDAgMCAwIDUuOTEzIDIuODRsLjA2NS4wMjggMTguMDM2LTEyLjc4OWE0My44NSA0My44NSAwIDAgMC0yNS4yODctMTIuMTlsMS4yNTMgMjIuMTA1em0tMTkuMSAyLjkyMmEzLjcyIDMuNzIgMCAwIDAgNS45MDQtMi44NWwuMDkyLS4wNDQgMS4yNTMtMjIuMTM5YTQ0LjY4IDQ0LjY4IDAgMCAwLTQuNTAxLjc3NSA0My40NjcgNDMuNDY3IDAgMCAwLTIwLjkzNyAxMS40MDlsMTguMTU0IDEyLjg2OXptLTkuNjc4IDE2LjcyOGEzLjcyIDMuNzIgMCAwIDAgMS40NjItNi4zOTZsLjAxOC0uMDg3LTE2LjU3NC0xNC44MjVhNDMuNDU0IDQzLjQ1NCAwIDAgMC02LjE2OCAyNy41MTFsMjEuMjQ1LTYuMTN6bTE2LjA5OCA2LjUxMmw2LjExNCAyLjk0IDYuMDk2LTIuOTMzIDEuNTE0LTYuNTgyLTQuMjE5LTUuMjc2aC02Ljc5bC00LjIzMSA1LjI2OHoiIGNsYXNzPSJjbHMtMiIvPjxwYXRoIGQ9Ik0yODIuNTM4IDEyNi43NDhsLTE3LjQyMi03NS42NzVBMTMuNjAyIDEzLjYwMiAwIDAgMCAyNTcuODIzIDQyTDE4Ny4zMDIgOC4zM2ExMy41ODkgMTMuNTg5IDAgMCAwLTExLjcwNSAwTDEwNS4wOSA0Mi4wMThhMTMuNTk4IDEzLjU5OCAwIDAgMC03LjI5NSA5LjA3MmwtMTcuMzk0IDc1LjY3M2ExMy4zMTUgMTMuMzE1IDAgMCAwLS4wMDQgNS44MSAxMy41MDUgMTMuNTA1IDAgMCAwIC40OTEgMS43MTggMTMuMTAxIDEzLjEwMSAwIDAgMCAxLjM0MyAyLjcyNmMuMjM5LjM2NS40OTEuNzIuNzY1IDEuMDY0bDQ4LjgwNCA2MC42NzhjLjIxMy4yNjQuNDQ4LjUwNS42ODEuNzVhMTMuNDIzIDEzLjQyMyAwIDAgMCAyLjU3NCAyLjEzMyAxMy45MjQgMTMuOTI0IDAgMCAwIDMuODU3IDEuNjc3IDEzLjI5OCAxMy4yOTggMCAwIDAgMy40My40NzNoLjc1OWw3Ny41MDQtLjAxOGExMi45OTYgMTIuOTk2IDAgMCAwIDEuNDEtLjA4MyAxMy40NyAxMy40NyAwIDAgMCAxLjk4OS0uMzc4IDEzLjg3IDEzLjg3IDAgMCAwIDEuMzgxLS40NDJjLjM1My0uMTM1LjcwNS0uMjcgMS4wNDUtLjQzM2ExMy45NDEgMTMuOTQxIDAgMCAwIDEuNDc5LS44MjIgMTMuMzA0IDEzLjMwNCAwIDAgMCAzLjIzNy0yLjg2NWwxLjQ4OC0xLjg1IDQ3LjI5OS01OC44NGExMy4xODUgMTMuMTg1IDAgMCAwIDIuMTA4LTMuNzg1IDEzLjY3IDEzLjY3IDAgMCAwIC41LTEuNzI0IDEzLjI4MiAxMy4yODIgMCAwIDAtLjAwNC01LjgwOXptLTczLjE0NyAyOS40MzJhMTQuNTE1IDE0LjUxNSAwIDAgMCAuNzAzIDEuNzAzIDMuMzE0IDMuMzE0IDAgMCAwLS4zMjcgMi40OSAzOS4zNzMgMzkuMzczIDAgMCAwIDMuNzQyIDYuNyAzNS4wNjUgMzUuMDY1IDAgMCAxIDIuMjYzIDMuMzY0Yy4xNy4zMTUuMzkyLjgwMy41NTMgMS4xMzZhNC4yNCA0LjI0IDAgMSAxLTcuNjMgMy42MDdjLS4xNjEtLjMzLS4zODUtLjc3LS41MjItMS4wODJhMzUuMjc1IDM1LjI3NSAwIDAgMS0xLjIyNS0zLjg2OCAzOS4zMDUgMzkuMzA1IDAgMCAwLTIuODk2LTcuMDk3IDMuMzM1IDMuMzM1IDAgMCAwLTIuMTU0LTEuMzA3Yy0uMTM1LS4yMzMtLjYzNS0xLjE0OS0uOTAzLTEuNjIzYTU0LjYxNyA1NC42MTcgMCAwIDEtMzguOTQ4LS4xbC0uOTU1IDEuNzMxYTMuNDI5IDMuNDI5IDAgMCAwLTEuODE5Ljg4NiAyOS41MTggMjkuNTE4IDAgMCAwLTMuMjY4IDcuNTgyIDM0Ljg5OCAzNC44OTggMCAwIDEtMS4yMTggMy44NjhjLS4xMzUuMzEtLjM2MS43NDQtLjUyMiAxLjA3M3YuMDA5bC0uMDA3LjAwOGE0LjIzOCA0LjIzOCAwIDEgMS03LjYxOS0zLjYxNmMuMTU5LS4zMzUuMzcyLS44Mi41NC0xLjEzNWEzNS4xNzggMzUuMTc4IDAgMCAxIDIuMjYyLTMuMzczIDQxLjIyNyA0MS4yMjcgMCAwIDAgMy44Mi02Ljg2NiA0LjE4OCA0LjE4OCAwIDAgMC0uMzc2LTIuMzg3bC43NjgtMS44NGE1NC45MjIgNTQuOTIyIDAgMCAxLTI0LjMzOC0zMC4zODdsLTEuODM5LjMxM2E0LjY4IDQuNjggMCAwIDAtMi40MjgtLjg1NSAzOS41MjUgMzkuNTI1IDAgMCAwLTcuMzU2IDIuMTY1IDM1LjU4NSAzNS41ODUgMCAwIDEtMy43ODcgMS40NWMtLjMwNS4wODQtLjc0NS4xNjgtMS4wOTMuMjQ0LS4wMjguMDEtLjA1Mi4wMjItLjA4LjAyOWEuNjAzLjYwMyAwIDAgMS0uMDY1LjAwNiA0LjIzNiA0LjIzNiAwIDEgMS0xLjg3NC04LjIyNGwuMDYxLS4wMTUuMDM3LS4wMWMuMzUzLS4wODMuODA1LS4yIDEuMTI3LS4yNjJhMzUuMjY4IDM1LjI2OCAwIDAgMSA0LjA1LS4zMjYgMzkuMzkgMzkuMzkgMCAwIDAgNy41NjQtMS4yNDIgNS44MzUgNS44MzUgMCAwIDAgMS44MTQtMS44M2wxLjc2Ny0uNTE2YTU0LjYxMyA1NC42MTMgMCAwIDEgOC42MTMtMzguMDczbC0xLjM1My0xLjIwNmE0LjY4OCA0LjY4OCAwIDAgMC0uODQ4LTIuNDM2IDM5LjM2NiAzOS4zNjYgMCAwIDAtNi4yNzctNC40MSAzNS4yNTEgMzUuMjUxIDAgMCAxLTMuNDk5LTIuMDQ2Yy0uMjU2LS4xOTEtLjU5Ni0uNDc4LS44NzQtLjcwNGwtLjA2My0uMDQ0YTQuNDczIDQuNDczIDAgMCAxLTEuMDM4LTYuMjIyIDQuMDY2IDQuMDY2IDAgMCAxIDMuMzYzLTEuNDg4IDUuMDMgNS4wMyAwIDAgMSAyLjk0MiAxLjExYy4yODcuMjI1LjY4LjUyNi45MzUuNzQ1YTM1LjI1MyAzNS4yNTMgMCAwIDEgMi43OCAyLjk1IDM5LjM4NCAzOS4zODQgMCAwIDAgNS42OSA1LjE0MiAzLjMzMyAzLjMzMyAwIDAgMCAyLjUwNy4yNDNxLjc1NC41NSAxLjUyMiAxLjA4MmE1NC4yODkgNTQuMjg5IDAgMCAxIDI3LjU3Ny0xNS43NTQgNTUuMDUyIDU1LjA1MiAwIDAgMSA3LjYzLTEuMTczbC4xLTEuNzg0YTQuNjAxIDQuNjAxIDAgMCAwIDEuMzctMi4xODQgMzkuNDc2IDM5LjQ3NiAwIDAgMC0uNDctNy42NTQgMzUuNDY4IDM1LjQ2OCAwIDAgMS0uNTc2LTQuMDE0Yy0uMDExLS4zMDcuMDA2LS43MzEuMDEtMS4wODEgMC0uMDQtLjAxLS4wNzktLjAxLS4xMThhNC4yNDIgNC4yNDIgMCAxIDEgOC40NDEtLjAwNGMwIC4zNy4wMjIuODYxLjAwOSAxLjJhMzUuMTExIDM1LjExMSAwIDAgMS0uNTc5IDQuMDEzIDM5LjUzMyAzOS41MzMgMCAwIDAtLjQ3OCA3LjY1NiAzLjM0NCAzLjM0NCAwIDAgMCAxLjM3OSAyLjExYy4wMTUuMzA1LjA2NSAxLjMyMy4xMDIgMS44ODRBNTUuMzA5IDU1LjMwOSAwIDAgMSAyMjEuMTUgNzEuMjVsMS42MDYtMS4xNDdhNC42OSA0LjY5IDAgMCAwIDIuNTYtLjI3OCAzOS41MyAzOS41MyAwIDAgMCA1LjY5LTUuMTQ4IDM1LjAwNCAzNS4wMDQgMCAwIDEgMi43ODctMi45NWMuMjU5LS4yMjIuNjUtLjUyLjkzNi0uNzQ2YTQuMjQyIDQuMjQyIDAgMSAxIDUuMjU4IDYuNTk4Yy0uMjgzLjIyOS0uNjU3LjU0OC0uOTI5Ljc1YTM1LjA5NiAzNS4wOTYgMCAwIDEtMy41MDcgMi4wNDYgMzkuNDk1IDM5LjQ5NSAwIDAgMC02LjI3NyA0LjQxIDMuMzM3IDMuMzM3IDAgMCAwLS43OTIgMi4zOWMtLjIzNS4yMTYtMS4wNi45NDctMS40OTcgMS4zNDNhNTQuODM3IDU0LjgzNyAwIDAgMSA4Ljc5MiAzNy45ODNsMS43MDQuNDk2YTQuNzQ1IDQuNzQ1IDAgMCAwIDEuODIgMS44MzEgMzkuNDY0IDM5LjQ2NCAwIDAgMCA3LjU2OCAxLjI0NSAzNS42NCAzNS42NCAwIDAgMSA0LjA0Ni4zMjRjLjM1NS4wNjUuODY4LjIwNyAxLjIzLjI5YTQuMjM2IDQuMjM2IDAgMSAxLTEuODc4IDguMjIzbC0uMDYxLS4wMDhjLS4wMjgtLjAwNy0uMDU0LS4wMjItLjA4My0uMDI5LS4zNDgtLjA3Ni0uNzg1LS4xNTItMS4wOS0uMjMyYTM1LjE0IDM1LjE0IDAgMCAxLTMuNzg1LTEuNDYyIDM5LjQ3NyAzOS40NzcgMCAwIDAtNy4zNjMtMi4xNjUgMy4zMzcgMy4zMzcgMCAwIDAtMi4zNjIuODc3cS0uOS0uMTcxLTEuODA0LS4zMTZhNTQuOTIgNTQuOTIgMCAwIDEtMjQuMzI4IDMwLjYwNXoiIGNsYXNzPSJjbHMtMiIvPjxwYXRoIGQ9Ik0yOTEuNzM3IDEyOC42ODlMMjcyLjczIDQ2LjEyOGExNC44MzggMTQuODM4IDAgMCAwLTcuOTU4LTkuOUwxODcuODM3LS41MDJhMTQuODI1IDE0LjgyNSAwIDAgMC0xMi43NzEgMEw5OC4xMzggMzYuMjVhMTQuODM4IDE0LjgzOCAwIDAgMC03Ljk2MSA5Ljg5NUw3MS4yMDMgMTI4LjcxYTE0LjY2OCAxNC42NjggMCAwIDAgMS45OTUgMTEuMTg1Yy4yNjEuNC41MzguNzg4LjgzOCAxLjE2Mmw1My4yNDYgNjYuMjA1YTE0Ljk4IDE0Ljk4IDAgMCAwIDExLjQ5OSA1LjQ4N2w4NS4zODctLjAyYTE0Ljk4NiAxNC45ODYgMCAwIDAgMTEuNS01LjQ4bDUzLjIyNy02Ni4yMTFhMTQuNzIgMTQuNzIgMCAwIDAgMi44NDItMTIuMzQ3em0tOS4xOTcgMy44NjZhMTMuNjc3IDEzLjY3NyAwIDAgMS0uNDk4IDEuNzIzIDEzLjE4NCAxMy4xODQgMCAwIDEtMi4xMSAzLjc4NWwtNDcuMjk5IDU4LjgzOC0xLjQ4NiAxLjg1MmExMy4zMDUgMTMuMzA1IDAgMCAxLTMuMjQgMi44NjUgMTMuOTQzIDEzLjk0MyAwIDAgMS0xLjQ3NC44MjJxLS41MTMuMjM3LTEuMDQ1LjQzMWExMy44NjUgMTMuODY1IDAgMCAxLTEuMzgzLjQ0NCAxMy40NzIgMTMuNDcyIDAgMCAxLTEuOTg5LjM3OSAxMi45ODggMTIuOTg4IDAgMCAxLTEuNDEuMDgybC03Ny41MDQuMDE4aC0uNzZhMTMuMjk4IDEzLjI5OCAwIDAgMS0zLjQyOS0uNDcyIDEzLjkyNCAxMy45MjQgMCAwIDEtMy44NTUtMS42NzggMTMuNDIzIDEzLjQyMyAwIDAgMS0yLjU3Ni0yLjEzMmMtLjIzMy0uMjQ2LS40NjgtLjQ4Ny0uNjgtLjc1bC00OC44MDUtNjAuNjc5cS0uNDA4LS41MTQtLjc2NS0xLjA2NmExMy4xMDIgMTMuMTAyIDAgMCAxLTEuMzQzLTIuNzI2IDEzLjUwNiAxMy41MDYgMCAwIDEtLjQ5MS0xLjcxOSAxMy4zMTUgMTMuMzE1IDAgMCAxIC4wMDQtNS44MDlsMTcuMzk0LTc1LjY3NWExMy41OTggMTMuNTk4IDAgMCAxIDcuMjk1LTkuMDdsNzAuNTA4LTMzLjY4NmExMy41OSAxMy41OSAwIDAgMSAxMS43MDUgMGw3MC41MTkgMzMuNjdhMTMuNjAyIDEzLjYwMiAwIDAgMSA3LjI5MyA5LjA3M2wxNy40MjIgNzUuNjc1YTEzLjI4MiAxMy4yODIgMCAwIDEgLjAwMiA1LjgwN3oiIGNsYXNzPSJjbHMtMSIvPjxwYXRoIGQ9Ik0yNTIuMTQ0IDEyMC42ODdjLS4zNi0uMDgzLS44NzQtLjIyNS0xLjIyNy0uMjlhMzUuNjM1IDM1LjYzNSAwIDAgMC00LjA0Ni0uMzI2IDM5LjQ2NCAzOS40NjQgMCAwIDEtNy41Ny0xLjI0MiA0Ljc0NSA0Ljc0NSAwIDAgMS0xLjgyLTEuODMybC0xLjcwNC0uNDk2YTU0LjgzNyA1NC44MzcgMCAwIDAtOC43OS0zNy45ODNjLjQzNi0uMzk2IDEuMjYyLTEuMTI3IDEuNDk1LTEuMzQyYTMuMzM4IDMuMzM4IDAgMCAxIC43OTItMi4zOSAzOS40OTUgMzkuNDk1IDAgMCAxIDYuMjc3LTQuNDEgMzUuMDk3IDM1LjA5NyAwIDAgMCAzLjUwNy0yLjA0NmMuMjcyLS4yMDIuNjQ0LS41MjIuOTI5LS43NWE0LjI0MiA0LjI0MiAwIDEgMC01LjI1Ni02LjZjLS4yODguMjI3LS42OC41MjUtLjkzNi43NDdhMzUuMDA3IDM1LjAwNyAwIDAgMC0yLjc4OSAyLjk1IDM5LjUzMiAzOS41MzIgMCAwIDEtNS42OSA1LjE0OCA0LjY5IDQuNjkgMCAwIDEtMi41Ni4yNzhsLTEuNjA2IDEuMTQ3YTU1LjMwOSA1NS4zMDkgMCAwIDAtMzUuMDMyLTE2LjkyN2MtLjAzOS0uNTYxLS4wODctMS41NzctLjEwMi0xLjg4NGEzLjM0NCAzLjM0NCAwIDAgMS0xLjM3Ny0yLjExIDM5LjUzNCAzOS41MzQgMCAwIDEgLjQ3OC03LjY1NiAzNS4xMTEgMzUuMTExIDAgMCAwIC41NzUtNC4wMTJjLjAxMy0uMzQtLjAwNy0uODM0LS4wMDctMS4yMDFhNC4yNDIgNC4yNDIgMCAxIDAtOC40NDEuMDA0YzAgLjA0LjAwOS4wNzguMDEuMTE4LS4wMDQuMzUtLjAyMS43NzQtLjAxIDEuMDhhMzUuNDc1IDM1LjQ3NSAwIDAgMCAuNTc2IDQuMDE1IDM5LjQ3NSAzOS40NzUgMCAwIDEgLjQ3IDcuNjU0IDQuNjAxIDQuNjAxIDAgMCAxLTEuMzcgMi4xODJsLS4xIDEuNzg2YTU1LjA1NSA1NS4wNTUgMCAwIDAtNy42MyAxLjE3MyA1NC4yODkgNTQuMjg5IDAgMCAwLTI3LjU3NCAxNS43NTRxLS43Ny0uNTMxLTEuNTI2LTEuMDgyYTMuMzMzIDMuMzMzIDAgMCAxLTIuNTA2LS4yNDMgMzkuMzgzIDM5LjM4MyAwIDAgMS01LjY5LTUuMTQxIDM1LjI1NSAzNS4yNTUgMCAwIDAtMi43NzctMi45NWMtLjI1Ny0uMjItLjY1LS41Mi0uOTM4LS43NDlhNS4wMyA1LjAzIDAgMCAwLTIuOTQyLTEuMTEgNC4wNjYgNC4wNjYgMCAwIDAtMy4zNjMgMS40ODkgNC40NzMgNC40NzMgMCAwIDAgMS4wMzggNi4yMjJsLjA2NS4wNDZjLjI3Ni4yMjYuNjE2LjUxNS44NzIuNzAyYTM1LjI1NyAzNS4yNTcgMCAwIDAgMy40OTkgMi4wNDggMzkuMzY3IDM5LjM2NyAwIDAgMSA2LjI3NiA0LjQxMiA0LjY5IDQuNjkgMCAwIDEgLjg0OSAyLjQzNGwxLjM1MSAxLjIwOGE1NC42MTMgNTQuNjEzIDAgMCAwLTguNjExIDM4LjA3M2wtMS43NjcuNTE0YTUuODM1IDUuODM1IDAgMCAxLTEuODE0IDEuODI3IDM5LjM5IDM5LjM5IDAgMCAxLTcuNTY1IDEuMjQ3IDM1LjI2NCAzNS4yNjQgMCAwIDAtNC4wNDkuMzI2Yy0uMzI0LjA2LS43NzQuMTc0LTEuMTI3LjI2MmwtLjAzNy4wMDgtLjA2LjAxOGE0LjIzNiA0LjIzNiAwIDEgMCAxLjg3NSA4LjIyNGwuMDYzLS4wMWMuMDI4LS4wMDYuMDUyLS4wMi4wOC0uMDI1LjM0OC0uMDc5Ljc4Ni0uMTYzIDEuMDkyLS4yNDZhMzUuNTg1IDM1LjU4NSAwIDAgMCAzLjc4Ni0xLjQ1MSAzOS41MjcgMzkuNTI3IDAgMCAxIDcuMzU4LTIuMTY1IDQuNjggNC42OCAwIDAgMSAyLjQyNi44NTdsMS44NC0uMzE1YTU0LjkyMiA1NC45MjIgMCAwIDAgMjQuMzQgMzAuMzg3bC0uNzY5IDEuODRhNC4xODggNC4xODggMCAwIDEgLjM3NyAyLjM4NyA0MS4yMjcgNDEuMjI3IDAgMCAxLTMuODIgNi44NjQgMzUuMTgzIDM1LjE4MyAwIDAgMC0yLjI2MyAzLjM3MmMtLjE2OC4zMTgtLjM4MS44MDUtLjU0MiAxLjEzOGE0LjIzOCA0LjIzOCAwIDEgMCA3LjYyMSAzLjYxNmwuMDA3LS4wMDh2LS4wMWMuMTYtLjMzLjM4Ny0uNzYzLjUyMi0xLjA3MmEzNC45IDM0LjkgMCAwIDAgMS4yMTgtMy44NjggMjkuNTE3IDI5LjUxNyAwIDAgMSAzLjI2OC03LjU4MiAzLjQzIDMuNDMgMCAwIDEgMS44MTktLjg4OGwuOTU3LTEuNzNhNTQuNjE3IDU0LjYxNyAwIDAgMCAzOC45NDYuMDk5Yy4yNjguNDc4Ljc2OCAxLjM5Mi45IDEuNjIzYTMuMzM1IDMuMzM1IDAgMCAxIDIuMTU1IDEuMzEgMzkuMzA2IDM5LjMwNiAwIDAgMSAyLjg5OCA3LjA5NiAzNS4yNzQgMzUuMjc0IDAgMCAwIDEuMjI1IDMuODY4Yy4xMzcuMzEyLjM2Ljc1MS41MjIgMS4wODJhNC4yNCA0LjI0IDAgMSAwIDcuNjMtMy42MDdjLS4xNjEtLjMzMy0uMzgzLS44Mi0uNTUtMS4xMzZhMzUuMDYyIDM1LjA2MiAwIDAgMC0yLjI2My0zLjM2NCAzOS4zNzMgMzkuMzczIDAgMCAxLTMuNzQyLTYuNyAzLjMxNCAzLjMxNCAwIDAgMSAuMzI0LTIuNDkgMTQuNTE1IDE0LjUxNSAwIDAgMS0uNzAzLTEuNzAzIDU0LjkyIDU0LjkyIDAgMCAwIDI0LjMyOC0zMC42MDVjLjU0Ni4wODcgMS40OTcuMjUzIDEuODA2LjMxNmEzLjMzNyAzLjMzNyAwIDAgMSAyLjM2LS44NzcgMzkuNDc3IDM5LjQ3NyAwIDAgMSA3LjM2IDIuMTY1IDM1LjEzNSAzNS4xMzUgMCAwIDAgMy43ODggMS40NjJjLjMwNS4wOC43NC4xNTYgMS4wOS4yMzMuMDI5LjAwOC4wNTUuMDIxLjA4My4wMjhsLjA2LjAwOWE0LjIzNiA0LjIzNiAwIDEgMCAxLjg3OC04LjIyNHptLTQwLjEtNDIuOTg3bC0xOC4wMzcgMTIuNzg3LS4wNjMtLjAyOWEzLjcyMyAzLjcyMyAwIDAgMS01LjkxMy0yLjgzOWwtLjAyLS4wMDktMS4yNTMtMjIuMTA0QTQzLjg1IDQzLjg1IDAgMCAxIDIxMi4wNDMgNzcuN3ptLTMzLjk3OCAyNC4yMjhoNi43ODhsNC4yMiA1LjI3Ni0xLjUxMyA2LjU4MS02LjA5NiAyLjkzMy02LjExNC0yLjk0LTEuNTE2LTYuNTgzek0xNzEuNjggNjYuMjhhNDQuNjc2IDQ0LjY3NiAwIDAgMSA0LjUwMy0uNzc0bC0xLjI1NSAyMi4xMzctLjA5Mi4wNDRhMy43MiAzLjcyIDAgMCAxLTUuOTA0IDIuODUybC0uMDM1LjAyLTE4LjE1NC0xMi44NzJBNDMuNDY3IDQzLjQ2NyAwIDAgMSAxNzEuNjggNjYuMjh6bS0yNy41MiAxOS42ODFsMTYuNTc0IDE0LjgyMy0uMDE4LjA5MWEzLjcyIDMuNzIgMCAwIDEtMS40NjIgNi4zOTRsLS4wMTcuMDcyLTIxLjI0NSA2LjEzMWE0My40NTQgNDMuNDU0IDAgMCAxIDYuMTY4LTI3LjUxem0yMi4xOTEgMzkuMzhsLTguNDQxIDIwLjM5NmE0My42OTYgNDMuNjk2IDAgMCAxLTE3LjUzNi0yMS45NDhsMjEuNzgzLTMuNjk5LjAzNy4wNDhhMy42NTUgMy42NTUgMCAwIDEgLjczLS4wNjUgMy43MiAzLjcyIDAgMCAxIDMuMzY0IDUuMTg1em0yNC45MTYgMjYuMjNhNDMuNjM3IDQzLjYzNyAwIDAgMS0yMy44MTUtMS4yMjRsMTAuNzEzLTE5LjM3MmguMDE4YTMuNzI1IDMuNzI1IDAgMCAxIDYuNTU3LS4wMDZoLjA4bDEwLjc0IDE5LjQwNHEtMi4wOTEuNjk4LTQuMjkzIDEuMTk5em0xMy44NDEtNS43NTJsLTguNTI4LTIwLjYwNS4wMjYtLjAzN2EzLjcyNSAzLjcyNSAwIDAgMSAxLjgwMy00LjgyMyAzLjY4NSAzLjY4NSAwIDAgMSAxLjQyNS0uMzcgMy41OSAzLjU5IDAgMCAxIC44NTUuMDYzbC4wMzctLjA0NiAyMS45NzcgMy43MTRhNDMuNTMgNDMuNTMgMCAwIDEtMTcuNTk1IDIyLjEwNXptMTkuOTAzLTMyLjQxOWwtMjEuMzUyLTYuMTUtLjAyLS4wOWEzLjcyNSAzLjcyNSAwIDAgMS0xLjQ2LTYuMzk2bC0uMDA4LS4wNDMgMTYuNDgyLTE0Ljc1MWE0NC4yNzkgNDQuMjc5IDAgMCAxIDYuMzU3IDI3LjQzeiIgY2xhc3M9ImNscy0xIi8+PC9zdmc+" parent="1" vertex="1">
                    <mxGeometry x="490" y="160" width="76" height="60" as="geometry"/>
                </mxCell>
                <mxCell id="-kEWRbQdguksYZ6EH8o2-1" value="アプリケーション" style="shape=image;verticalLabelPosition=bottom;verticalAlign=top;imageAspect=0;aspect=fixed;image=data:image/png,iVBORw0KGgoAAAANSUhEUgAAAIAAAACACAYAAADDPmHLAAAAAXNSR0IArs4c6QAAGrVJREFUeF7tnXlgVNW9xz/nzmRmsi8kCEJYZYmAEEUgrPqKfdqqtSiKqHWry1N5rhWeC9a6tvpsta8+bS1uVay1vvpK7VMBEURkJyQhsiRsYkIIScg2+5z3x53lzpZMwsxkJuTzV+655wzMnO89y/ee8ztwiiGlnCWl/KOUslJK2SalrJVSlkopfyGlHNtZ+T6SFCnlXCnlBtkxLinl36WU53b2eX0kCVKt+I0d13tIPpNSTu3s85Md0VmGZERKKYDLgEeB4sD7rRZZXrbfdnxvjV1kpwqGnqbnrGHGMxSF04M+DP4J/EII8XWIe0lPrxKAlFIB5qFW/FkBt51VNY6vH3u78bTKw/YzAssKgTx/YuqOh67KFrkZyqTA+8CnwBNCiC9D3EtaeoUA3BX/Q+Bxgp9417fHHBvv/0PDgH01juHBpYOZXmQqe3hhtmVAji7UWGA98EshxN9D3Es6kloA7oq/HLXiiwJu26tqHJseer1h0L4ax7CgwhEwdYyxfOm1OeYBObrJBP9WvUIISSkATcU/AYwJuG2vqnFsWrysYfD+WsfQ4NJdZ/www56nfpJzfHCBfhrBv9lXwLPJKoSkEoCUMgW4GngYGB1w21ZV49j84GsNhQfqHEOCS58844cZ9jx+bU7TsNP05xL82+0AngY+EELI4NKJSVIIQFPxjwKBAzhbxQH7xsXLGs+oaXQMDC4dfYoK9fsevy7v6MiB+mmALuB2KfAUSSKEhBaAlNIALACWAiMDblsrDtg3Pfh6w6jaBueA4NKxp6gwZd/j1+WGE0IZ8DzwJyGEK7h0YpCQAnBX/A2oT/zggNttW/Zatz76VtPYuiZn/6DCPcCQ/rrDT16Xd2DcsJQSQB9wuxx4DnhHCOEMLt2zJJQApJRG4HrUJ36Q/z3atu6zbn3kraaxxxKk4gPpRAi7gF+SYEJICAFIKdOBnwIPgr8b56n4h99oLKpvdhWE/IAEozBf/+0jC7OrJ48yTgWMAberUYWwTAjhCC4dX3pUAFLKDOBmYAng149LSev6CsvWpX9qOutEmys35AckOIPz9UceXZhdNXmUcQpgCri9H3iWHhZCjwhAU/H/AZzmf4+W9RWWbUvfPjHxRLszJ+QHJBmD8vXfLV2YvW/yKOO5QGrA7QPAb4BXhBDWoMIxJq4CkFJmAnegNvV5fvegYeV2c9nT7zVPam53Zof8gCSnIFupf2RBTsXM8aYpBAvhEPAC8KoQwhJcOjbERQBSyizg34DFgF9z7pKyYdUOS9mTy08Ut5pdWSE/oJfRL0upX3p1TsXM8aZzgbSA24eB/wR+L4QwB5eOLjEVgJSyH7AIuBvwa85dkuOrdpjLn3i36ew2i8wM+QG9nLwspeHBK7LL5k5KPVsIAn+DOtQW4aVYCiEmApBS5gN3AfcAfs25S1K/YmNbxS//0nyuxSYD1X9KkpspGhbPzymbOym1WAgCW0GPEH4rhGgPUfykiKoApJQFwJ3AveD/RVySYys2tu169v3mKVa7DOz/+gByMpTGJVdm75w7KXWSEASOg+qB3wEvCCGaQxTvFlERgJSyP3AfanPv91Q7XfK7D9a17fvN/7ZMsdlk4FSojxCkG0XrA1dkbb1kWvpEEdB14hPCr4UQJ0IU7xInJQAp5enAQ6hTOr/Kdbo4/Paq1r2vftwyw+aQgWZIHxGQmSra7r88u+yHU1LHKkIECuE46vTx10KIthDFI6LbApBS3obqaPk1VU4XB5d90nLgtU/apjucrpTQpfvoChkm0XbfvOzSS6aljVWE//QZ1Ue4VQjxWYiindItAUgpn0R9J+/F5pQH/vB/rUfe/LRlqtMV5IP3EQXSDKL9/ityNl86LXWcIsjX3HIAVwshPghXNhxdFoCU8nrgDU2SZcUm88Yn3m2a4XDKvoqPAxmpSvPv7szdOX6ocQa+OrQDU4QQOzooGkSXBCClzAN2g1d95gdea/zm81Jz0NLrPmLPA1dkrb16TsZsTdLXwPSuLERROssQwDX4Kp8X/9a8va/ye47nP2ievWWv9QtN0jSgS5tZuiqAKzx/NLbKrW+tap3eUeY+Ys99rzZMdrmo1SRdGTZzCCIWgJTShKowAF766ETCLGo4lWmzyvS1FZbdmqTzwuUNRcQCAM4BDKAu0vhki3liJ/n7iBNvfNqqXQw7wb3AJiK6IoASzx8NLa491j5zJ2EoP2gbJSVN7ks9EPHu5m4JoOyg7aQtyD6ih5SIhhZZpUkqIUK6IgDv6HJ1qTXiJqaP+LCtytKquYyuAKSUQ/Gt0pVf7WoPXKPfRw/zeak1Q3NZ4t4i3ymROndeRdmc8kBji4xol22ikpepMHOciVnjTbRZXKwrt7Ch0kq7NWL/JOH4qtI8GnJcqA91PupGmn0dl+qGAA7UOo4ASSeAQfk6Zo9XK33yKCM6Tdt3ydQ0nC4oP2BjbbmFz0stHKzrsYW63aKlXWZa7bLKmCI8rfN0YiGA9RWWpHhMDCmC4hEGpowxcv5EE0P7d/xVdQpMHGFg4ggDiy7N4ki9k3UVFtaWWdiy14ozYTd3+aiucdQUDUnxCKAEeKuj/BCBAKSUqYB3zr+61Noj+/AiISdDYeaZJmaNN1JSZCLdFFE3GJJB+ToWzElnwZx0TrS52LzHyrpyK2vKLLSaE1MNX1ZYKBrifQMf0UCw019ISjkTWKf+TeuUe75LdbmCNkL2GCMH6pk13sTs8SYmDDegdPqNTg6XC8rcXcWanRYOHE2crmLMYH31u4v7j3BfOoG8zpaPddoCoDWA2lx7XC7O7ihzrPE07bMnmDjvLBMDcuOrRaWDrmLrPhsOZ8/1kHuOOIZLaBTq0nsdMBlY3VGZLglgZ5UtaosRu0JuhsKMKDXt0SZcV/FFmYWWOHcVUiKOn3BW5WfrJruTSoiCADQGULt2rhlThvbX8/1zUpk1zsSZQ1IQiVPnYclOV5hbnMrc4lTsTsm2fTbWlVv4ZKuZhpb4iGF7tb31gmJvq9jpOKBDI0hKOQzfbl25fpctbgbQ4XoHm/dY2bzHyv4E6mcj5fAxJ5WH7FQettPYGp/KB1i1w6Jdjj+tM0Oow5tSyquBdwFsTqpL7vnOM8CIO9p5/DlnGNDrEqtJsNolO6rVJ371DgtHm3rmbXm6UbSufX5gKr6IJWOEEHvC5e+sC/A2Iftr7d8BcRNAmlH4OXNH6p0sX9PG8jVtZKUpTBljdAvCSFZaRI521GlocbGh0sracgtf7bKEdRIDv0ssabPKDKtN7jMahCeWUglw8gL4sjy+BtBvbu9HbobCyu1m1pZZ+OZbO9L9P2hud7Fyu5mV280oCowZlMLsCWrrUFQY25Xo1bUO1pZZWFdhobTa5v0/aVEEjBms/p/mFqfydaWV//wwfi9Qq2odNWcOSdEK4M1wecMKwG0AecOtfl5qjksELi0jBui59aJMbr0ok5oGJxsqrV7f3u6ebrlcUHlY7Wtf/biFQfk6prpbh2lFRlJOsqvQNu2rdlioC9O0G1MEU8cYVU9igpH8LN/09OvK+G77X1tuUc6M0BDqqAWYjG8FUMvuI5GFWY0VA/N0zJuRxrwZaTS3u9i0O7Qzd6TeyYf17Xy4vp1Ug+Dc0WqlnHeWibzMyLqKSJt2rfM4/UwTacaTE1u0+LzUcvrtP/BuNh4vpcwKZwh1JADtCqC9PW0AaclK8023PM7cZ9vNrC61cLTR94SabZK15RbWllt45v2Ou4pImnbwDUYvKE6Ni/PYHapq7MNcUjYoQuShzvSmACtD5Y1IADuqe8YAigStM/fA5dlhKzKwqygs0DNznJF2i2RdhSXsPF07xrigOJXhAzobNvU8UiKON7uqCrJ1nm1kJXRDAN4VwJ/vtMTNADpZRgzQM2JABjdckEFto5OvdgWPGwAOH3OwfE1of0Hbn8+ZYKJfVmRdRyKxda+97cLJnRtCIQUgpRyOL2qX/GqXJW4GUDQZkOsbN5htki17rKzcbglp02rt5hnjTKQaErBt7wKrSs3ZF072btgukVIqoSKWhmsBvIqx2uX+E22uuM3/Y0WqQTDLbSTZnZLbXjxO6X4bAPNmpPHQVTlJYTdHysZKyyjUN4I61BgDo4FvAvOFa9u8AqiudXwXJk/SkqITGDVPeIZJ6VWVD25DyE6nK4U7FcD6XfE1gOKFdpTfK78gsOeI/ajmMjIBBBpAa0otcTeA4oGfAHqpAr6ssGjrNzIBoO4qSQGQkubd39qTvv8PRS+tcz8+32HWRlo/U0oZFIAzlAD8DSAZ2d6BpEPz2PfWFqD6qGOIS3LcfekxhPzoUADbq20tIe73kSRIiag74ajWJAV1A6EE4FsBtMPcayN4ah962Ys7hO177doIYh0LQEo5Ao0B9HVl/FYAxZtTYRAIsGqHWRtebppUT1zzEtgCaA2g6t4Srj0Ufi1ALxbAxt22UahRxEA1hPyO2QsrgOpaZ68zgLT05krX0m51pVtsflvH/cL6hBXA+oq4hazvGU6RLgBg7xFHWEPIKwApZRoaA2hVaXuok7R7Df6DwN7NF+Vm7e6Z0AJANYD0AFJyYl8PrwCKNafKIBBgzU6L1hAqklJ6D+0IaRUeb3b2XgPoFGR/rWOoS3LMfSnQGEIhBbB9n00bbqRXcip1AQB1jY79mktvXWsF4DWAVu209FoDyIM8xRSwZa9de9qIvwCklCPxHd/m2vhN7zWAfGjfBfR+BazeYdYe1uU1hDwtgMYAoqq5FxtAHk6F9QBaNu6xag2hLKAIQgigqsaujTvbazmVZgEAFptMM1ulNmZQCYQQwLryXm4AuTnFhgAA7D5iq9NcqgJwx5Wd4En9vMySEAbQU8ub+DLJ3Ugp4R+bzLyxMjHeqq8rswUZQgoBBlDVEXtCGEAH6xzc/UoDd/zXcapqoh8fINazgPIDNm58oZ6lbzdyvDl+8QE6YvXO9iGay7FSyjw9mua/XjWAPOFFEoKNu60s/OUxLp2Wyp0XZ5GTEX1/KppjgKONTl5e0cI/NrdH9XOjwaE6Z6FLUqcI+uM2hPRodgDt/taekAaQwyn5cH07K7dbuO0Hmcyfle4X6LE7RHsWYLZJ3l7VyuuftWKzR+MTY0Nji+twvyylv/uyRA+c6blZXes8yZ81tjS3u3jugxO8v7aN++ZlMXNc98+hjNZ6ACnh481mXvzoRMI09R1Rd8Jp1mx1G6sHvC8KFCUqD0PM8YwPpo4xcv/l2Ywc2PUNm9FoAcoP2Hj+r82UHbB1ljVhUITf1z1dD1hwn/pZmK/r7m/RI5zM+ECehAISuZ/vjPwcnTbUv0UPHMJ9Pu3ZI439QpZKYKIxPoh0UWiy9PPhMBlEe166ol0SdkgBVnmuMtPEuKLClE4jTCcinvHB/Kfqor6ayTOfv+zxOl79uCUpKx9gwZz07UKgbQE+U1BPAfV8I+W5m3M9GwmSkoN1Dv49Av8gUiu4/ICNm36tzufrm3sm9Fs0SDMqbXdcnKn1eJqAvytCiJ3Anz2pA/vpp97+w8x1QZ+QZHjGB0+910RTiECNnc0CjjY5eeztJm54oZ6d+5NnkBeOl+/K3aZThNblfUQI0ebpLRcBhz13brkw89ziMwy7SHI844MfP1HHe1+0+cX8DzcGNNskv/9nC5f9oo4Vm5JvkBeKm/81Y8OEYcZZmqQvgFfA/TJICFGPeiqo1Z3B9Oqifjm5maKBXoBnfHDl077xQaAVLCWs3G7miieTu58PZPwww547Ls7SnvFYCywUQjghIFSslPLfgJc918ebXdsufLR2YiKdDxANZo83seuQ3duneyKGVR62d1Qs6chO0zV98nT/5hSd8LwDsAPfE0J4u/iguBhSymXAjZ7rldvNaxYvazwvMF8fiY0QyL///LRNA/N02sOk/10I8VttvlAz5juAbZ6LucWpc348I31jiHx9JDDP3Jj3RUDlvxdY+RBCAEIIC3A5ePeVi4evyh4zrL/+UGDePhKTucWp2y4oNmkHfd8At4bKG9IzE0IcAG4AXOo1Oe8uLrCYDEK7srSPBGRQP913z9yYMwxfuPgWYJ4QIuSqlLCmqRBiBfC059poEKPfeqBge7j8ffQ8Rr2wLl/S/4Q7RCyoM9ybhBCV4cp05po/Bvyf52LkQP2MRZdkre0gfx89yB/vzd+UbhJFmqRfCSE+CFuATgTgjix5DbDfk3bD9zOmTh5tKA1fqo+e4MbvZ6wvGpKi7fc/Bx4Jl99DZy0AQogGYB5gdicZ//vO/IK8TCWp3xn0JsYPM+y565IsbTT3WuAaIUSniyk7FQCAEGIHcI/nWlE4/f2H+h9UFJL37UgvITtN1/TaPf1SgVR3kh2YL4So6aCYl4gEACCE+D2wzHOdm6Gc/fxP85L+pVF3Wf3sAFY8fho9iSJw/fmh/H0pOlGoSb5XCPFl2EIBRCwAN3cCWz0XcyaY5syflf51B/n7iCHP3JS3tsB3SCTAciHE78IWCEGXBKAxieo9SYvnZxcNH6DXxqLrIw7MPTt129xJfmZPGXBLuPzh6JIAAIQQB4GFqKHIEYLsd35W4OwzieLH4Hz9kWduCDJ7rhRCaGMCRkTXl9MCQojPpJRPovoEGA1i1NsPFHw1/+k6vwhUsWLM4BTeXVzAio3tvPJxC/f8OIspo42k6AU799v47UfNYd/szRhn4iffS6eo0IBeBweOOvhoQzt/+bINV4hV3ZeVpLHw/AwKC3Q0tLj4x6Z2/vDPnts+YTAIy/IlBc2KEIPcSRK4UQgRdBZAJHS5BdDwC+CfnosRA/XT774sviZRbobCG/fnU1RoYP0uK5WH7EwdY+SP9+YzfpghKP/V56Xz0u15TBphoPygjQ2VVgbn63lwfjZPX6/dPq9yy0WZPLowh9P76VhfYWXXITtXn5fBMzcG540Xy+7J35Jm9DN7nhVC/DVsgU7oVgsAqkkkpbwG2IL7RNGffC+jZNMe284NuyzeaGOxZMY4E2t2WliyrNF7HtDFU9J4/Locli7M4apn6rwLP4b213PPZVm0WSS3vlTPN+4WIi9T4Q9353PB2amsq7Dwj02q3TF8gJ5bL8ykocXFDS8c40i9OuM9PU/H6/fnk52u0G6N7yz4josz1xUVBpk9j4bLHwkn0wIghGjE3yRKeem23IK8TJ02Ll3McEl44cMTfodBrdjUzs79NkYO1DNxhK8V+FFJGnqd4L0vWr2VD+oZgS/+TT0U7cpZvgWzl05LQ1HgzZWt3soH+K7Byeufxr8LOGuYYffN/5qpHfF/C1zlWdnTXU5KAABCiFLgNs+1ooiB7z9UUKNT6NSFOlm+OWznyPHg7//ZdlWPE4f7BOD5+9NtwUvG11VYaLNIioYYMOiFX/5VOzza9uH5/HiRna40vnZvfhr+Zs8CIYQn8le3OWkBAAgh3gZe81znZiiTXrg1L2IzortoD4nUUtugphdk+1ay5WerX7WmIViXUkJtoxOdgnd3UX6WDpck5FGxDS0uv1YnligC15//o6BKp6A1e+4WQqwPW6gLREUAbu5CHQ8AMHOcac5VszM2dJD/pAlXBZ4DoLQLP0Xw6rek4Fc3B5k97woh/jtsgS4SNQEIIawEmEQ/uyJrwuhBsTOJBuSGXqt6mjv9eIvv6T12Qv17YF7wuFcI9bOcLrx7COqbnSgC+ucE/xt5mcpJH0odCRdPTdt8/kTTbE1St8yejoiaAACEEIeABfhMoow37i9wphpETEZNYwencHpecAXNLVa7ytJq34YOzxmBF5wdvKV8+pkm0k2CykM2bA612fBsBvmXiZ5u18cFxcFp0WZwvv7Iz6/NGYmvjjxmT1QNt6gKAEAIsQrVIwDAmCJGvbO4YGcHRbqNosC987LRa57GiyanMnG4gf21DnZoBPDRhnYcTsmC2emMHuQ7ODonQ+HuH2UB8Jd1vt/2f79ux+WCn8xNZ1A/n8gG5Oq4fm5sT9L1mD0CtCt7buiu2dMRMWnHpJQC+BC4zJO2fE3rF8//tXlO+FKR43EC11dYGFOYgtWmPuGn5eo45wwDNrvk9t/6Tgb1cPV56TxweTZ2p2TTbhtmm4spo41kpSl8ts3Mktcb/fLf/oNMbrkoE7NNsqHSipRQUmRk024rxSMNtFslFz8W/Rnvu0sKvhwzKGWmJukpIUSnizu6Q9RbAAAhhARuAt/JlVeflzF95pmGqLYEja0ubnqhnt1H7Mwab2TckBQ277Hy0xfrgyofYPmaNu5+pYGd1TaKRxqYPc5EbaOT5z44wUNv+lc+wCsft/Dk8iZqGpzMGm9k/NAU3l/bxpJlwXmjxd2XZa8NqPzVuC33WBCTFsCDlPIsYAOQBuCS1P1w6VHqmpyeGDXdQvsu4LE/NXWWPWmYPNpU8eqivDMAozvpMHBONOb74YhJC+BBqDuPvevRFUH/95YUHNEponftwYoC2elK48t35mXhq/yomT0dEVMBAAgh3gFe9VxnpyvFL92eFxUTo7egCFzvB5s9i4QQX4UtFCViLgA3iwDvl5lWZJyzYE5sTaJk4vlb+63N9zd73hFCvEociOkYQIuUshB1OVmBek3bNb86Vrv7W/spEJo+PJdOTdv82LU55+B7GHcCJdGe74cjXi0AQojD+JtE6W88kK+km0JvWToVKMzXf7vU3+xpQt3GFZfKhzgKAEAI4TelMejE8HcW9y+ly4Hakh+32dMaYPbcJITQnvEXc+IqADdPo5pEABTm62YuuTI7riuJEoE378vfkmoUYzVJTwoh/idsgRgRdwG4TaKbAW84uvmz0qefPzH1lNl4+rP52V+M9jd7PgV+HiZ7TIm7AACEEE2oMYk8fV3Kczfnjo62U5iILLokc92C2enaN3wHUbdx9Uig4bjNAkIhpbwOeEuTZF9Xbl3/8BsNk9usMrZvXOLMwFx9zct35e0f0l+vXTltBWYJITaHKxdrelQAAFLK/0LdcaSl/WCdY8eug3ZbVa09xWztmZaqu6TopBmBKzNVpx92mo5JI4xZ/bKUiRAUbOsWIcRr9CCJIAAdarTSazvJ2tt4WAjxND1Mjz9Z7lWtNwAPoUYu7+3UoXr8PV75kAAtgBYp5VDgeuBS1L0GPbcDI3pIoAbYDXyAuqYvYV5h/j/GWaFV0MUuoQAAAABJRU5ErkJggg==" parent="1" vertex="1">
                    <mxGeometry x="498" y="240" width="60" height="60" as="geometry"/>
                </mxCell>
                <mxCell id="5" value="LocalStackなど" style="shape=image;verticalLabelPosition=bottom;verticalAlign=top;imageAspect=0;aspect=fixed;image=data:image/png,iVBORw0KGgoAAAANSUhEUgAAAIAAAACACAYAAADDPmHLAAAAAXNSR0IArs4c6QAAGrVJREFUeF7tnXlgVNW9xz/nzmRmsi8kCEJYZYmAEEUgrPqKfdqqtSiKqHWry1N5rhWeC9a6tvpsta8+bS1uVay1vvpK7VMBEURkJyQhsiRsYkIIScg2+5z3x53lzpZMwsxkJuTzV+655wzMnO89y/ee8ztwiiGlnCWl/KOUslJK2SalrJVSlkopfyGlHNtZ+T6SFCnlXCnlBtkxLinl36WU53b2eX0kCVKt+I0d13tIPpNSTu3s85Md0VmGZERKKYDLgEeB4sD7rRZZXrbfdnxvjV1kpwqGnqbnrGHGMxSF04M+DP4J/EII8XWIe0lPrxKAlFIB5qFW/FkBt51VNY6vH3u78bTKw/YzAssKgTx/YuqOh67KFrkZyqTA+8CnwBNCiC9D3EtaeoUA3BX/Q+Bxgp9417fHHBvv/0PDgH01juHBpYOZXmQqe3hhtmVAji7UWGA98EshxN9D3Es6kloA7oq/HLXiiwJu26tqHJseer1h0L4ax7CgwhEwdYyxfOm1OeYBObrJBP9WvUIISSkATcU/AYwJuG2vqnFsWrysYfD+WsfQ4NJdZ/www56nfpJzfHCBfhrBv9lXwLPJKoSkEoCUMgW4GngYGB1w21ZV49j84GsNhQfqHEOCS58844cZ9jx+bU7TsNP05xL82+0AngY+EELI4NKJSVIIQFPxjwKBAzhbxQH7xsXLGs+oaXQMDC4dfYoK9fsevy7v6MiB+mmALuB2KfAUSSKEhBaAlNIALACWAiMDblsrDtg3Pfh6w6jaBueA4NKxp6gwZd/j1+WGE0IZ8DzwJyGEK7h0YpCQAnBX/A2oT/zggNttW/Zatz76VtPYuiZn/6DCPcCQ/rrDT16Xd2DcsJQSQB9wuxx4DnhHCOEMLt2zJJQApJRG4HrUJ36Q/z3atu6zbn3kraaxxxKk4gPpRAi7gF+SYEJICAFIKdOBnwIPgr8b56n4h99oLKpvdhWE/IAEozBf/+0jC7OrJ48yTgWMAberUYWwTAjhCC4dX3pUAFLKDOBmYAng149LSev6CsvWpX9qOutEmys35AckOIPz9UceXZhdNXmUcQpgCri9H3iWHhZCjwhAU/H/AZzmf4+W9RWWbUvfPjHxRLszJ+QHJBmD8vXfLV2YvW/yKOO5QGrA7QPAb4BXhBDWoMIxJq4CkFJmAnegNvV5fvegYeV2c9nT7zVPam53Zof8gCSnIFupf2RBTsXM8aYpBAvhEPAC8KoQwhJcOjbERQBSyizg34DFgF9z7pKyYdUOS9mTy08Ut5pdWSE/oJfRL0upX3p1TsXM8aZzgbSA24eB/wR+L4QwB5eOLjEVgJSyH7AIuBvwa85dkuOrdpjLn3i36ew2i8wM+QG9nLwspeHBK7LL5k5KPVsIAn+DOtQW4aVYCiEmApBS5gN3AfcAfs25S1K/YmNbxS//0nyuxSYD1X9KkpspGhbPzymbOym1WAgCW0GPEH4rhGgPUfykiKoApJQFwJ3AveD/RVySYys2tu169v3mKVa7DOz/+gByMpTGJVdm75w7KXWSEASOg+qB3wEvCCGaQxTvFlERgJSyP3AfanPv91Q7XfK7D9a17fvN/7ZMsdlk4FSojxCkG0XrA1dkbb1kWvpEEdB14hPCr4UQJ0IU7xInJQAp5enAQ6hTOr/Kdbo4/Paq1r2vftwyw+aQgWZIHxGQmSra7r88u+yHU1LHKkIECuE46vTx10KIthDFI6LbApBS3obqaPk1VU4XB5d90nLgtU/apjucrpTQpfvoChkm0XbfvOzSS6aljVWE//QZ1Ue4VQjxWYiindItAUgpn0R9J+/F5pQH/vB/rUfe/LRlqtMV5IP3EQXSDKL9/ityNl86LXWcIsjX3HIAVwshPghXNhxdFoCU8nrgDU2SZcUm88Yn3m2a4XDKvoqPAxmpSvPv7szdOX6ocQa+OrQDU4QQOzooGkSXBCClzAN2g1d95gdea/zm81Jz0NLrPmLPA1dkrb16TsZsTdLXwPSuLERROssQwDX4Kp8X/9a8va/ye47nP2ievWWv9QtN0jSgS5tZuiqAKzx/NLbKrW+tap3eUeY+Ys99rzZMdrmo1SRdGTZzCCIWgJTShKowAF766ETCLGo4lWmzyvS1FZbdmqTzwuUNRcQCAM4BDKAu0vhki3liJ/n7iBNvfNqqXQw7wb3AJiK6IoASzx8NLa491j5zJ2EoP2gbJSVN7ks9EPHu5m4JoOyg7aQtyD6ih5SIhhZZpUkqIUK6IgDv6HJ1qTXiJqaP+LCtytKquYyuAKSUQ/Gt0pVf7WoPXKPfRw/zeak1Q3NZ4t4i3ymROndeRdmc8kBji4xol22ikpepMHOciVnjTbRZXKwrt7Ch0kq7NWL/JOH4qtI8GnJcqA91PupGmn0dl+qGAA7UOo4ASSeAQfk6Zo9XK33yKCM6Tdt3ydQ0nC4oP2BjbbmFz0stHKzrsYW63aKlXWZa7bLKmCI8rfN0YiGA9RWWpHhMDCmC4hEGpowxcv5EE0P7d/xVdQpMHGFg4ggDiy7N4ki9k3UVFtaWWdiy14ozYTd3+aiucdQUDUnxCKAEeKuj/BCBAKSUqYB3zr+61Noj+/AiISdDYeaZJmaNN1JSZCLdFFE3GJJB+ToWzElnwZx0TrS52LzHyrpyK2vKLLSaE1MNX1ZYKBrifQMf0UCw019ISjkTWKf+TeuUe75LdbmCNkL2GCMH6pk13sTs8SYmDDegdPqNTg6XC8rcXcWanRYOHE2crmLMYH31u4v7j3BfOoG8zpaPddoCoDWA2lx7XC7O7ihzrPE07bMnmDjvLBMDcuOrRaWDrmLrPhsOZ8/1kHuOOIZLaBTq0nsdMBlY3VGZLglgZ5UtaosRu0JuhsKMKDXt0SZcV/FFmYWWOHcVUiKOn3BW5WfrJruTSoiCADQGULt2rhlThvbX8/1zUpk1zsSZQ1IQiVPnYclOV5hbnMrc4lTsTsm2fTbWlVv4ZKuZhpb4iGF7tb31gmJvq9jpOKBDI0hKOQzfbl25fpctbgbQ4XoHm/dY2bzHyv4E6mcj5fAxJ5WH7FQettPYGp/KB1i1w6Jdjj+tM0Oow5tSyquBdwFsTqpL7vnOM8CIO9p5/DlnGNDrEqtJsNolO6rVJ371DgtHm3rmbXm6UbSufX5gKr6IJWOEEHvC5e+sC/A2Iftr7d8BcRNAmlH4OXNH6p0sX9PG8jVtZKUpTBljdAvCSFZaRI521GlocbGh0sracgtf7bKEdRIDv0ssabPKDKtN7jMahCeWUglw8gL4sjy+BtBvbu9HbobCyu1m1pZZ+OZbO9L9P2hud7Fyu5mV280oCowZlMLsCWrrUFQY25Xo1bUO1pZZWFdhobTa5v0/aVEEjBms/p/mFqfydaWV//wwfi9Qq2odNWcOSdEK4M1wecMKwG0AecOtfl5qjksELi0jBui59aJMbr0ok5oGJxsqrV7f3u6ebrlcUHlY7Wtf/biFQfk6prpbh2lFRlJOsqvQNu2rdlioC9O0G1MEU8cYVU9igpH8LN/09OvK+G77X1tuUc6M0BDqqAWYjG8FUMvuI5GFWY0VA/N0zJuRxrwZaTS3u9i0O7Qzd6TeyYf17Xy4vp1Ug+Dc0WqlnHeWibzMyLqKSJt2rfM4/UwTacaTE1u0+LzUcvrtP/BuNh4vpcwKZwh1JADtCqC9PW0AaclK8023PM7cZ9vNrC61cLTR94SabZK15RbWllt45v2Ou4pImnbwDUYvKE6Ni/PYHapq7MNcUjYoQuShzvSmACtD5Y1IADuqe8YAigStM/fA5dlhKzKwqygs0DNznJF2i2RdhSXsPF07xrigOJXhAzobNvU8UiKON7uqCrJ1nm1kJXRDAN4VwJ/vtMTNADpZRgzQM2JABjdckEFto5OvdgWPGwAOH3OwfE1of0Hbn8+ZYKJfVmRdRyKxda+97cLJnRtCIQUgpRyOL2qX/GqXJW4GUDQZkOsbN5htki17rKzcbglp02rt5hnjTKQaErBt7wKrSs3ZF072btgukVIqoSKWhmsBvIqx2uX+E22uuM3/Y0WqQTDLbSTZnZLbXjxO6X4bAPNmpPHQVTlJYTdHysZKyyjUN4I61BgDo4FvAvOFa9u8AqiudXwXJk/SkqITGDVPeIZJ6VWVD25DyE6nK4U7FcD6XfE1gOKFdpTfK78gsOeI/ajmMjIBBBpAa0otcTeA4oGfAHqpAr6ssGjrNzIBoO4qSQGQkubd39qTvv8PRS+tcz8+32HWRlo/U0oZFIAzlAD8DSAZ2d6BpEPz2PfWFqD6qGOIS3LcfekxhPzoUADbq20tIe73kSRIiag74ajWJAV1A6EE4FsBtMPcayN4ah962Ys7hO177doIYh0LQEo5Ao0B9HVl/FYAxZtTYRAIsGqHWRtebppUT1zzEtgCaA2g6t4Srj0Ufi1ALxbAxt22UahRxEA1hPyO2QsrgOpaZ68zgLT05krX0m51pVtsflvH/cL6hBXA+oq4hazvGU6RLgBg7xFHWEPIKwApZRoaA2hVaXuok7R7Df6DwN7NF+Vm7e6Z0AJANYD0AFJyYl8PrwCKNafKIBBgzU6L1hAqklJ6D+0IaRUeb3b2XgPoFGR/rWOoS3LMfSnQGEIhBbB9n00bbqRXcip1AQB1jY79mktvXWsF4DWAVu209FoDyIM8xRSwZa9de9qIvwCklCPxHd/m2vhN7zWAfGjfBfR+BazeYdYe1uU1hDwtgMYAoqq5FxtAHk6F9QBaNu6xag2hLKAIQgigqsaujTvbazmVZgEAFptMM1ulNmZQCYQQwLryXm4AuTnFhgAA7D5iq9NcqgJwx5Wd4En9vMySEAbQU8ub+DLJ3Ugp4R+bzLyxMjHeqq8rswUZQgoBBlDVEXtCGEAH6xzc/UoDd/zXcapqoh8fINazgPIDNm58oZ6lbzdyvDl+8QE6YvXO9iGay7FSyjw9mua/XjWAPOFFEoKNu60s/OUxLp2Wyp0XZ5GTEX1/KppjgKONTl5e0cI/NrdH9XOjwaE6Z6FLUqcI+uM2hPRodgDt/taekAaQwyn5cH07K7dbuO0Hmcyfle4X6LE7RHsWYLZJ3l7VyuuftWKzR+MTY0Nji+twvyylv/uyRA+c6blZXes8yZ81tjS3u3jugxO8v7aN++ZlMXNc98+hjNZ6ACnh481mXvzoRMI09R1Rd8Jp1mx1G6sHvC8KFCUqD0PM8YwPpo4xcv/l2Ywc2PUNm9FoAcoP2Hj+r82UHbB1ljVhUITf1z1dD1hwn/pZmK/r7m/RI5zM+ECehAISuZ/vjPwcnTbUv0UPHMJ9Pu3ZI439QpZKYKIxPoh0UWiy9PPhMBlEe166ol0SdkgBVnmuMtPEuKLClE4jTCcinvHB/Kfqor6ayTOfv+zxOl79uCUpKx9gwZz07UKgbQE+U1BPAfV8I+W5m3M9GwmSkoN1Dv49Av8gUiu4/ICNm36tzufrm3sm9Fs0SDMqbXdcnKn1eJqAvytCiJ3Anz2pA/vpp97+w8x1QZ+QZHjGB0+910RTiECNnc0CjjY5eeztJm54oZ6d+5NnkBeOl+/K3aZThNblfUQI0ebpLRcBhz13brkw89ziMwy7SHI844MfP1HHe1+0+cX8DzcGNNskv/9nC5f9oo4Vm5JvkBeKm/81Y8OEYcZZmqQvgFfA/TJICFGPeiqo1Z3B9Oqifjm5maKBXoBnfHDl077xQaAVLCWs3G7miieTu58PZPwww547Ls7SnvFYCywUQjghIFSslPLfgJc918ebXdsufLR2YiKdDxANZo83seuQ3duneyKGVR62d1Qs6chO0zV98nT/5hSd8LwDsAPfE0J4u/iguBhSymXAjZ7rldvNaxYvazwvMF8fiY0QyL///LRNA/N02sOk/10I8VttvlAz5juAbZ6LucWpc348I31jiHx9JDDP3Jj3RUDlvxdY+RBCAEIIC3A5ePeVi4evyh4zrL/+UGDePhKTucWp2y4oNmkHfd8At4bKG9IzE0IcAG4AXOo1Oe8uLrCYDEK7srSPBGRQP913z9yYMwxfuPgWYJ4QIuSqlLCmqRBiBfC059poEKPfeqBge7j8ffQ8Rr2wLl/S/4Q7RCyoM9ybhBCV4cp05po/Bvyf52LkQP2MRZdkre0gfx89yB/vzd+UbhJFmqRfCSE+CFuATgTgjix5DbDfk3bD9zOmTh5tKA1fqo+e4MbvZ6wvGpKi7fc/Bx4Jl99DZy0AQogGYB5gdicZ//vO/IK8TCWp3xn0JsYPM+y565IsbTT3WuAaIUSniyk7FQCAEGIHcI/nWlE4/f2H+h9UFJL37UgvITtN1/TaPf1SgVR3kh2YL4So6aCYl4gEACCE+D2wzHOdm6Gc/fxP85L+pVF3Wf3sAFY8fho9iSJw/fmh/H0pOlGoSb5XCPFl2EIBRCwAN3cCWz0XcyaY5syflf51B/n7iCHP3JS3tsB3SCTAciHE78IWCEGXBKAxieo9SYvnZxcNH6DXxqLrIw7MPTt129xJfmZPGXBLuPzh6JIAAIQQB4GFqKHIEYLsd35W4OwzieLH4Hz9kWduCDJ7rhRCaGMCRkTXl9MCQojPpJRPovoEGA1i1NsPFHw1/+k6vwhUsWLM4BTeXVzAio3tvPJxC/f8OIspo42k6AU799v47UfNYd/szRhn4iffS6eo0IBeBweOOvhoQzt/+bINV4hV3ZeVpLHw/AwKC3Q0tLj4x6Z2/vDPnts+YTAIy/IlBc2KEIPcSRK4UQgRdBZAJHS5BdDwC+CfnosRA/XT774sviZRbobCG/fnU1RoYP0uK5WH7EwdY+SP9+YzfpghKP/V56Xz0u15TBphoPygjQ2VVgbn63lwfjZPX6/dPq9yy0WZPLowh9P76VhfYWXXITtXn5fBMzcG540Xy+7J35Jm9DN7nhVC/DVsgU7oVgsAqkkkpbwG2IL7RNGffC+jZNMe284NuyzeaGOxZMY4E2t2WliyrNF7HtDFU9J4/Locli7M4apn6rwLP4b213PPZVm0WSS3vlTPN+4WIi9T4Q9353PB2amsq7Dwj02q3TF8gJ5bL8ykocXFDS8c40i9OuM9PU/H6/fnk52u0G6N7yz4josz1xUVBpk9j4bLHwkn0wIghGjE3yRKeem23IK8TJ02Ll3McEl44cMTfodBrdjUzs79NkYO1DNxhK8V+FFJGnqd4L0vWr2VD+oZgS/+TT0U7cpZvgWzl05LQ1HgzZWt3soH+K7Byeufxr8LOGuYYffN/5qpHfF/C1zlWdnTXU5KAABCiFLgNs+1ooiB7z9UUKNT6NSFOlm+OWznyPHg7//ZdlWPE4f7BOD5+9NtwUvG11VYaLNIioYYMOiFX/5VOzza9uH5/HiRna40vnZvfhr+Zs8CIYQn8le3OWkBAAgh3gZe81znZiiTXrg1L2IzortoD4nUUtugphdk+1ay5WerX7WmIViXUkJtoxOdgnd3UX6WDpck5FGxDS0uv1YnligC15//o6BKp6A1e+4WQqwPW6gLREUAbu5CHQ8AMHOcac5VszM2dJD/pAlXBZ4DoLQLP0Xw6rek4Fc3B5k97woh/jtsgS4SNQEIIawEmEQ/uyJrwuhBsTOJBuSGXqt6mjv9eIvv6T12Qv17YF7wuFcI9bOcLrx7COqbnSgC+ucE/xt5mcpJH0odCRdPTdt8/kTTbE1St8yejoiaAACEEIeABfhMoow37i9wphpETEZNYwencHpecAXNLVa7ytJq34YOzxmBF5wdvKV8+pkm0k2CykM2bA612fBsBvmXiZ5u18cFxcFp0WZwvv7Iz6/NGYmvjjxmT1QNt6gKAEAIsQrVIwDAmCJGvbO4YGcHRbqNosC987LRa57GiyanMnG4gf21DnZoBPDRhnYcTsmC2emMHuQ7ODonQ+HuH2UB8Jd1vt/2f79ux+WCn8xNZ1A/n8gG5Oq4fm5sT9L1mD0CtCt7buiu2dMRMWnHpJQC+BC4zJO2fE3rF8//tXlO+FKR43EC11dYGFOYgtWmPuGn5eo45wwDNrvk9t/6Tgb1cPV56TxweTZ2p2TTbhtmm4spo41kpSl8ts3Mktcb/fLf/oNMbrkoE7NNsqHSipRQUmRk024rxSMNtFslFz8W/Rnvu0sKvhwzKGWmJukpIUSnizu6Q9RbAAAhhARuAt/JlVeflzF95pmGqLYEja0ubnqhnt1H7Mwab2TckBQ277Hy0xfrgyofYPmaNu5+pYGd1TaKRxqYPc5EbaOT5z44wUNv+lc+wCsft/Dk8iZqGpzMGm9k/NAU3l/bxpJlwXmjxd2XZa8NqPzVuC33WBCTFsCDlPIsYAOQBuCS1P1w6VHqmpyeGDXdQvsu4LE/NXWWPWmYPNpU8eqivDMAozvpMHBONOb74YhJC+BBqDuPvevRFUH/95YUHNEponftwYoC2elK48t35mXhq/yomT0dEVMBAAgh3gFe9VxnpyvFL92eFxUTo7egCFzvB5s9i4QQX4UtFCViLgA3iwDvl5lWZJyzYE5sTaJk4vlb+63N9zd73hFCvEociOkYQIuUshB1OVmBek3bNb86Vrv7W/spEJo+PJdOTdv82LU55+B7GHcCJdGe74cjXi0AQojD+JtE6W88kK+km0JvWToVKMzXf7vU3+xpQt3GFZfKhzgKAEAI4TelMejE8HcW9y+ly4Hakh+32dMaYPbcJITQnvEXc+IqADdPo5pEABTm62YuuTI7riuJEoE378vfkmoUYzVJTwoh/idsgRgRdwG4TaKbAW84uvmz0qefPzH1lNl4+rP52V+M9jd7PgV+HiZ7TIm7AACEEE2oMYk8fV3Kczfnjo62U5iILLokc92C2enaN3wHUbdx9Uig4bjNAkIhpbwOeEuTZF9Xbl3/8BsNk9usMrZvXOLMwFx9zct35e0f0l+vXTltBWYJITaHKxdrelQAAFLK/0LdcaSl/WCdY8eug3ZbVa09xWztmZaqu6TopBmBKzNVpx92mo5JI4xZ/bKUiRAUbOsWIcRr9CCJIAAdarTSazvJ2tt4WAjxND1Mjz9Z7lWtNwAPoUYu7+3UoXr8PV75kAAtgBYp5VDgeuBS1L0GPbcDI3pIoAbYDXyAuqYvYV5h/j/GWaFV0MUuoQAAAABJRU5ErkJggg==" vertex="1" parent="1">
                    <mxGeometry x="498" y="330" width="60" height="60" as="geometry"/>
                </mxCell>
            </root>
        </mxGraphModel>
    </diagram>
</mxfile>